<?xml version="1.0" encoding="UTF-8"?>
<svg width="902px" height="471px" viewBox="0 0 902 471" version="1.1" xmlns="http://www.w3.org/2000/svg" xmlns:xlink="http://www.w3.org/1999/xlink">
    <!-- Generator: Sketch 54.1 (76490) - https://sketchapp.com -->
    <title>pokemon-types</title>
    <desc>Created with Sketch.</desc>
    <g id="Page-1" stroke="none" stroke-width="1" fill="none" fill-rule="evenodd">
        <g id="pokemon-types" transform="translate(1.000000, 0.000000)">
            <g id="type-leaf" transform="translate(30.000000, 29.000000)" fill="#000000" fill-rule="nonzero">
                <path d="M1.94,0.42 C-0.45,3.22 -1.33,15.86 3.47,19.27 C4.51577781,20.0077612 5.64742392,20.6155593 6.84,21.08 C6.94843187,21.1214658 7.07121458,21.0860234 7.14086857,20.9931514 C7.21052256,20.9002794 7.2101681,20.7724842 7.14,20.68 C5.27809872,18.3481973 4.18149667,15.498429 4,12.52 C4.01258933,12.4838243 4.04669627,12.4595804 4.085,12.4595804 C4.12330373,12.4595804 4.15741067,12.4838243 4.17,12.52 C4.98440983,15.1347293 6.34819755,17.5452241 8.17,19.59 C8.41505884,19.9483498 8.69292266,20.2831255 9,20.59 C9.37868987,20.9858211 9.79762184,21.3410754 10.25,21.65 L10.31,21.71 C10.3706083,21.7593253 10.4379561,21.799734 10.51,21.83 C14.36,24.35 20,24 20.54,24 C20.6902753,24.0028368 20.8209361,23.8974652 20.85,23.75 C20.94,23.28 19.94,22.69 19.38,22.88 C18.6145695,23.1534543 17.8008928,23.2658029 16.99,23.21 C15.448493,23.0315384 13.966006,22.5123263 12.65,21.69 C12.8563265,21.5904439 13.0537189,21.4733468 13.24,21.34 C13.5175512,21.1257514 13.7633296,20.8732393 13.97,20.59 C15.0325371,19.0814011 15.661939,17.310776 15.79,15.47 C15.8000176,15.3268417 15.8000176,15.1831583 15.79,15.04 C15.34,9.37 4.3,-2.35 1.94,0.42 Z" id="Path"></path>
            </g>
            <path d="M40.648,81.6948 C63.069,81.6948 81.245,63.5188 81.245,41.0968 C81.245,18.6748 63.069,0.4998 40.648,0.4998 C18.227,0.4998 0.051,18.6748 0.051,41.0968 C0.051,63.5188 18.227,81.6948 40.648,81.6948 Z" id="Stroke-2" stroke="#231F20" stroke-linecap="round" stroke-linejoin="round"></path>
            <g id="type-normal" transform="translate(30.000000, 210.000000)" fill="#000000" fill-rule="nonzero">
                <path d="M0.49,8 C-0.0496559872,7.39331274 -0.141502571,6.50973177 0.261836152,5.80502198 C0.665174876,5.10031219 1.47355443,4.73197319 2.27,4.89 C3.45179162,5.17131901 4.67436514,5.23905162 5.88,5.09 C7.16,4.85 8.07,3.26 8.71,1.3 C8.96540178,0.525167495 9.68915965,0.00167136148 10.505,0.00167136148 C11.3208404,0.00167136148 12.0445982,0.525167495 12.3,1.3 C12.98,3.4 13.71,5.09 14.3,5.18 C15.8098091,5.09074201 17.303639,4.82218831 18.75,4.38 C19.5629007,4.1724686 20.4153129,4.52565985 20.8432139,5.24730907 C21.2711149,5.9689583 21.1720717,6.88631377 20.6,7.5 C18.92,9.29 17.6,11.04 17.76,11.85 C17.92,12.66 19.23,14.16 20.76,15.85 C21.3204202,16.4683015 21.4090171,17.3809623 20.9779837,18.0955095 C20.5469504,18.8100568 19.6983141,19.1573543 18.89,18.95 C16.89,18.46 15.12,18.16 14.29,18.42 C13.46,18.68 12.62,20.54 11.96,22.7 C11.7136693,23.495621 10.9778815,24.0380614 10.145,24.0380614 C9.31211846,24.0380614 8.57633068,23.495621 8.33,22.7 C7.73,20.8 7.04,19.12 6.33,18.5 C5.62,17.88 4.11,18.02 2.33,18.42 C1.53221482,18.5899031 0.715436638,18.2288262 0.304158322,17.5244269 C-0.107119993,16.8200276 -0.0200970169,15.9312475 0.52,15.32 C1.71,13.96 2.62,12.65 2.67,11.77 C2.72,10.89 1.76,9.44 0.49,8 Z" id="Path"></path>
            </g>
            <path d="M40.648,262.9702 C63.069,262.9702 81.245,244.7942 81.245,222.3722 C81.245,199.9502 63.069,181.7752 40.648,181.7752 C18.227,181.7752 0.051,199.9502 0.051,222.3722 C0.051,244.7942 18.227,262.9702 40.648,262.9702 Z" id="Stroke-5" stroke="#231F20" stroke-linecap="round" stroke-linejoin="round"></path>
            <g id="type-ghost" transform="translate(32.000000, 391.000000)">
                <path d="M5,9.15 C4.72,9.15 4.49,9.5 4.49,9.93 C4.49,10.36 4.72,10.71 5,10.71 C5.28,10.71 5.51,10.37 5.51,9.93 C5.51,9.49 5.32,9.15 5,9.15 Z" id="Path"></path>
                <path d="M9.91,7.06 C8.83,7.06 7.91,8.25 7.91,9.72 C7.91,11.19 8.79,12.38 9.91,12.38 C11.03,12.38 11.91,11.19 11.91,9.72 C11.91,8.25 11,7.06 9.91,7.06 Z M9.91,10.71 C9.63,10.71 9.4,10.37 9.4,9.93 C9.4,9.49 9.63,9.15 9.91,9.15 C10.19,9.15 10.42,9.5 10.42,9.93 C10.42,10.36 10.19,10.71 9.91,10.71 L9.91,10.71 Z" id="Shape"></path>
                <path d="M16.28,16.25 C16.51,12.15 16.86,0.08 7.9,-8.51803437e-16 C-2.3,-0.09 0.25,22.46 0.37,22.77 C0.853036882,23.7826929 2.05493683,24.2261984 3.08,23.77 C4.72,23.08 5.08,22.35 5.76,22.47 C6.44,22.59 6.28,23.63 8.18,23.58 C10.08,23.53 10.42,22.85 11.06,22.73 C11.29,22.73 13.53,22.9 13.53,22.9 C15.04,22.85 15.65,22.84 16.24,21.33 C16.63,20.38 16.22,17.31 16.28,16.25 Z M5,10.71 C4.72,10.71 4.49,10.37 4.49,9.93 C4.49,9.49 4.72,9.15 5,9.15 C5.28,9.15 5.51,9.5 5.51,9.93 C5.51,10.36 5.32,10.71 5,10.71 Z M9.87,12.38 C8.79,12.38 7.87,11.19 7.87,9.72 C7.87,8.25 8.75,7.06 9.87,7.06 C10.99,7.06 11.87,8.25 11.87,9.72 C11.87,11.19 11,12.38 9.91,12.38 L9.87,12.38 Z" id="Shape" fill="#000000" fill-rule="nonzero"></path>
                <path d="M9.91,9.15 C9.63,9.15 9.4,9.5 9.4,9.93 C9.4,10.36 9.63,10.71 9.91,10.71 C10.19,10.71 10.42,10.37 10.42,9.93 C10.42,9.49 10.19,9.15 9.91,9.15 Z" id="Path" fill="#231F20" fill-rule="nonzero"></path>
            </g>
            <path d="M40.648,444.2456 C63.069,444.2456 81.245,426.0696 81.245,403.6476 C81.245,381.2256 63.069,363.0506 40.648,363.0506 C18.227,363.0506 0.051,381.2256 0.051,403.6476 C0.051,426.0696 18.227,444.2456 40.648,444.2456 Z" id="Stroke-8" stroke="#231F20" stroke-linecap="round" stroke-linejoin="round"></path>
            <g id="type-electric" transform="translate(525.000000, 29.000000)" fill="#000000" fill-rule="nonzero">
                <path d="M7.38,6.77236045e-17 L14.46,6.77236045e-17 C14.6765473,0.00331616616 14.8738718,0.125006789 14.974051,0.317016887 C15.0742301,0.509026984 15.0611593,0.740489073 14.94,0.92 L10.36,7.39 C10.2432699,7.55931788 10.223129,7.77720139 10.3068433,7.96504808 C10.3905576,8.15289477 10.5660459,8.28359573 10.77,8.31 L11.66,8.42 C11.8899587,8.4353551 12.0890073,8.58540698 12.1670722,8.802254 C12.2451371,9.01910102 12.1874047,9.26159409 12.02,9.42 L9,12.77 C8.84288814,12.9275803 8.78779952,13.1601517 8.85753265,13.3714642 C8.92726577,13.5827767 9.10995729,13.7368807 9.33,13.77 L9.33,13.77 C9.55177827,13.7999876 9.7374982,13.9528724 9.8095389,14.1647568 C9.88157959,14.3766412 9.82753777,14.611045 9.67,14.77 L2,23.78 C1.88567501,23.9586328 1.6847349,24.0627046 1.47287187,24.0530127 C1.26100884,24.0433208 1.07040991,23.9213374 0.972871871,23.7330127 C0.875333827,23.544688 0.885675011,23.3186328 1,23.14 L4.2,17 C4.29458974,16.8162388 4.28612853,16.5963798 4.17769549,16.4204318 C4.06926245,16.2444839 3.87666835,16.1381022 3.67,16.14 L2.41,16.14 C2.19963397,16.1464824 2.00226394,16.0384967 1.89428566,15.8578408 C1.78630737,15.6771848 1.7846672,15.4522111 1.89,15.27 L3.89,11.77 C3.94511499,11.6035531 3.92334453,11.4212157 3.83059112,11.2724237 C3.7378377,11.1236318 3.58371157,11.0238018 3.41,11 L2.49,10.89 C2.28141084,10.8836774 2.0916787,10.7676355 1.99103067,10.5848258 C1.89038263,10.4020161 1.8937932,10.1796372 2,10 L6.85,0.32 C6.95538745,0.124944662 7.15830829,0.00242641755 7.38,6.77236045e-17 Z" id="Path"></path>
            </g>
            <path d="M531.8517,81.6948 C554.2727,81.6948 572.4487,63.5188 572.4487,41.0968 C572.4487,18.6748 554.2727,0.4998 531.8517,0.4998 C509.4307,0.4998 491.2547,18.6748 491.2547,41.0968 C491.2547,63.5188 509.4307,81.6948 531.8517,81.6948 Z" id="Stroke-11" stroke="#231F20" stroke-linecap="round" stroke-linejoin="round"></path>
            <g id="type-rock" transform="translate(518.000000, 210.000000)" fill="#000000" fill-rule="nonzero">
                <path d="M9,11.88 L11.17,8.47 C11.2364743,8.36299995 11.354041,8.29852792 11.48,8.3 L16.18,8.3 C16.3090142,8.29698393 16.4302788,8.36140572 16.5,8.47 L18.77,12.07 C18.8440747,12.189448 18.8440747,12.340552 18.77,12.46 L16.48,16.46 C16.4127249,16.5724235 16.2910122,16.6408869 16.16,16.64 L11.48,16.64 C11.3495013,16.6389293 11.2286814,16.5709681 11.16,16.46 L9,12.66 C8.86066642,12.4186672 8.86066642,12.1213328 9,11.88 L9,11.88 Z" id="Path"></path>
                <path d="M4.7,15.17 C5,15.93 3.12,17.51 2.14,16.53 C1.33158407,15.27238 0.661046413,13.9313047 0.14,12.53 C-0.0510014739,12.1068687 -0.00938366553,11.6150218 0.25,11.23 C1.11,9.93 5.51,2.64 6.36,1.56 C6.60280719,1.25342651 6.9690569,1.07030166 7.36,1.06 C9.36,0.99 10.47,0.99 11.48,1.06 C12.12,1.06 12.25,3.89 11.42,3.89 L9.09,3.89 C8.67613457,3.8603488 8.2724133,4.02702272 8,4.34 C7.53,4.93 4.1,10.69 3.69,11.34 C3.45,11.69 3.12,12.41 3.35,12.76 L4.7,15.17 Z" id="Path"></path>
                <path d="M23,15.17 C22.7,15.93 24.58,17.51 25.57,16.53 C26.3705052,15.267893 27.0406176,13.9276684 27.57,12.53 C27.7523152,12.1042407 27.7071722,11.6151913 27.45,11.23 C26.57,9.91 22.17,2.62 21.32,1.54 C21.0771928,1.23342651 20.7109431,1.05030166 20.32,1.04 C18.32,0.97 17.21,0.97 16.2,1.04 C15.56,1.04 15.43,3.87 16.26,3.87 L18.6,3.87 C18.992614,3.88273575 19.3591576,4.06967296 19.6,4.38 C20.07,4.97 23.5,10.73 23.92,11.38 C24.15,11.73 24.48,12.45 24.25,12.8 L23,15.17 Z" id="Path"></path>
                <path d="M7.27,19.43 C6.8,18.77 4.45,19.52 4.75,20.87 C5.35114256,21.9207854 6.06902436,22.9003251 6.89,23.79 C7.28491848,24.1282619 7.7662284,24.3498722 8.28,24.43 C9.86,24.43 18.37,24.57 19.74,24.43 C20.1461531,24.4052039 20.5167984,24.1902297 20.74,23.85 C21.86,22.22 22.46,21.26 22.98,20.39 C23.32,19.85 20.98,18.23 20.55,18.93 C20.12,19.63 19.64,20.42 19.32,20.93 C19.0947796,21.2727687 18.7278374,21.4966034 18.32,21.54 C17.57,21.62 10.83,21.54 10.12,21.54 C9.76,21.54 8.88,21.62 8.52,21.11 L7.27,19.43 Z" id="Path"></path>
            </g>
            <path d="M531.8517,262.9702 C554.2727,262.9702 572.4487,244.7942 572.4487,222.3722 C572.4487,199.9502 554.2727,181.7752 531.8517,181.7752 C509.4307,181.7752 491.2547,199.9502 491.2547,222.3722 C491.2547,244.7942 509.4307,262.9702 531.8517,262.9702 Z" id="Stroke-14" stroke="#231F20" stroke-linecap="round" stroke-linejoin="round"></path>
            <g id="type-ice" transform="translate(521.000000, 391.000000)" fill="#000000" fill-rule="nonzero">
                <path d="M20.32,5.17 L11.24,1.33 C10.3453171,0.857079459 9.27468285,0.857079459 8.38,1.33 C8.38,1.33 2.39,5.83 1,7 C0.194809208,7.54487704 -0.171676569,8.54365147 0.09,9.48 C0.09,9.48 0.65,14.35 1.03,16.88 C1.41,19.41 2.62,19.73 2.62,19.73 C2.62,19.73 9.36,23.73 10.96,24.6 C11.8754137,25.116866 12.9945863,25.116866 13.91,24.6 L20,18 C20.6656427,17.2400381 21.2180135,16.3879051 21.64,15.47 C21.64,15.47 21.83,9.57 21.87,7.65 C21.9608671,6.57097866 21.329725,5.56115125 20.32,5.17 L20.32,5.17 Z M19.09,8.64 C17.47,10.74 14.3,14.82 13.92,15.24 C13.54,15.66 13.04,19.44 12.77,21.6 C12.7505304,21.6808717 12.6781823,21.7378693 12.595,21.7378693 C12.5118177,21.7378693 12.4394696,21.6808717 12.42,21.6 C12.15,19.51 11.56,15.87 10.77,15.24 C9.98,14.61 6.77,12.36 4.51,10.82 C4.44440775,10.7613412 4.43084052,10.6638579 4.47792265,10.5895177 C4.52500479,10.5151775 4.61893321,10.4857747 4.7,10.52 C7.44,11.87 11.76,13.96 12.27,13.93 C12.78,13.9 16.87,10.29 18.9,8.46 C18.9497056,8.40753295 19.0325329,8.40529437 19.085,8.455 C19.1374671,8.50470563 19.1397056,8.58753295 19.09,8.64 Z" id="Shape"></path>
            </g>
            <path d="M531.8517,444.2456 C554.2727,444.2456 572.4487,426.0696 572.4487,403.6476 C572.4487,381.2256 554.2727,363.0506 531.8517,363.0506 C509.4307,363.0506 491.2547,381.2256 491.2547,403.6476 C491.2547,426.0696 509.4307,444.2456 531.8517,444.2456 Z" id="Stroke-17" stroke="#231F20" stroke-linecap="round" stroke-linejoin="round"></path>
            <g id="type-fire" transform="translate(194.000000, 29.000000)" fill="#000000" fill-rule="nonzero">
                <path d="M4,8.2 C4,8.2 -3,13.91 4.37,21.58 C4.37,21.58 10.57,26.86 16.55,21.82 C19.455425,19.3998688 20.8217263,15.5956574 20.12,11.88 C19.9466696,10.7135128 19.5310921,9.59622221 18.9,8.6 C18.5771191,8.05744282 18.293075,7.49269625 18.05,6.91 C17.54,5.68 17.95,5.34 18.05,5.16 C16.9137787,5.46397818 16.0680724,6.41588952 15.9,7.58 C15.71,9.52 15.9,11.3 15.34,11.3 C14.78,11.3 12.24,7.43 12.15,0 C8.88647095,0.724111517 6.64227879,3.72486846 6.87,7.06 C7.12,13.06 7.42,14.06 6.96,14.24 C6.5,14.42 4.05,9.06 4,8.2 Z" id="Path"></path>
            </g>
            <path d="M204.3825,81.6948 C226.8035,81.6948 244.9795,63.5188 244.9795,41.0968 C244.9795,18.6748 226.8035,0.4998 204.3825,0.4998 C181.9615,0.4998 163.7855,18.6748 163.7855,41.0968 C163.7855,63.5188 181.9615,81.6948 204.3825,81.6948 Z" id="Stroke-20" stroke="#231F20" stroke-linecap="round" stroke-linejoin="round"></path>
            <g id="type-fighting" transform="translate(194.000000, 210.000000)" fill="#000000" fill-rule="nonzero">
                <path d="M8.69,21.13 C5.82029759,20.6695113 3.22117009,19.167002 1.39,16.91 C1.36383756,16.8723178 1.32087396,16.8498436 1.275,16.8498436 C1.22912604,16.8498436 1.18616244,16.8723178 1.16,16.91 L0.16,19.25 C-0.129573821,19.9097725 0.124867881,20.6817228 0.75,21.04 L5.47,23.77 C6.10088063,24.133106 6.90416509,23.9603566 7.33,23.37 L8.71,21.47 C8.86,21.26 8.8,21.15 8.69,21.13 Z" id="Path"></path>
                <path d="M9.58,20 C10.79,20 29.37,9.35 15.21,1.18 C11.82,-0.82 7.82,-0.43 8.89,3.58 C9.96,7.59 7.47,3 7.9,1.87 C8.33,0.74 -0.21,-2.22044605e-16 2,15.54 C1.99566392,15.559765 1.99566392,15.580235 2,15.6 C3.3,17.72 7.27,20 9.58,20 Z" id="Path"></path>
            </g>
            <path d="M204.3825,262.9702 C226.8035,262.9702 244.9795,244.7942 244.9795,222.3722 C244.9795,199.9502 226.8035,181.7752 204.3825,181.7752 C181.9615,181.7752 163.7855,199.9502 163.7855,222.3722 C163.7855,244.7942 181.9615,262.9702 204.3825,262.9702 Z" id="Stroke-23" stroke="#231F20" stroke-linecap="round" stroke-linejoin="round"></path>
            <g id="type-psychic" transform="translate(188.000000, 391.000000)" fill="#000000" fill-rule="nonzero">
                <path d="M0.16,12.22 C2.92,8 17.86,-12.9 32.22,12 C32.4246526,12.37027 32.4246526,12.81973 32.22,13.19 C19.95,31.19 9.27,23.27 0.22,13.47 C-0.0423138266,13.1007768 -0.0657439118,12.61265 0.16,12.22 Z M20.42,13.84 C20.59,10.64 19.05,8.97 17.55,8.76 C16.05,8.55 14.63,9.66 14.48,12.1 C14.36,14.1 15.43,15.64 16.53,15.92 C17.63,16.2 18.64,15.45 18.97,13.26 C19.066102,12.8752966 18.9049037,12.4723011 18.57,12.26 C18.29,12.15 18,12.43 17.93,12.88 C17.71,14.36 17,14.34 16.71,14.27 C15.9202836,13.9369632 15.4469372,13.1208488 15.55,12.27 C15.5202477,11.7634873 15.7156509,11.2696805 16.0839383,10.9206752 C16.4522257,10.5716699 16.9558173,10.4030785 17.46,10.46 C18.4,10.59 19.46,11.52 19.36,13.73 C19.27,15.42 18.3,17.23 16.69,17.23 C15.08,17.23 14.11,15.23 13.78,13.55 C13.45,11.87 13.51,9.55 14.78,8.05 C16.05,6.55 17.37,6.72 18,7 C18.8919736,7.41861895 19.5592703,8.20260142 19.83,9.15 C19.94,9.58 20.25,9.79 20.53,9.62 C20.8297181,9.33934814 20.9423991,8.9119373 20.82,8.52 C20.4836729,7.14768153 19.5574427,5.99447007 18.29,5.37 C16.84,4.73 15.35,5.19 14.11,6.67 C12.7,8.33 12.17,11.22 12.74,14.03 C13.31,16.84 14.85,18.81 16.66,18.88 C19,18.89 20.3,16.29 20.42,13.84 Z" id="Psychic"></path>
            </g>
            <path d="M204.3825,444.2456 C226.8035,444.2456 244.9795,426.0696 244.9795,403.6476 C244.9795,381.2256 226.8035,363.0506 204.3825,363.0506 C181.9615,363.0506 163.7855,381.2256 163.7855,403.6476 C163.7855,426.0696 181.9615,444.2456 204.3825,444.2456 Z" id="Stroke-26" stroke="#231F20" stroke-linecap="round" stroke-linejoin="round"></path>
            <g id="type-bug" transform="translate(687.000000, 29.000000)" fill="#000000" fill-rule="nonzero">
                <path d="M12.8,5 C12.9368323,4.5976309 13.0044572,4.17497542 13,3.75 C13,1.67893221 11.3210678,5.58793546e-08 9.25,5.58793545e-08 C7.17893221,5.58793544e-08 5.50000003,1.67893221 5.5,3.75 C5.50838139,4.17727805 5.58954406,4.60000027 5.74,5 C2.68705818,6.95753373 0.887121827,10.3751344 1,14 C1,19.52 4.7,24 9.27,24 C13.84,24 17.54,19.52 17.54,14 C17.6528782,10.3751344 15.8529418,6.95753373 12.8,5 Z M7,16.89 C5.43523926,16.8733725 4.17655653,15.5982039 4.18029109,14.0333593 C4.18402566,12.4685146 5.4487805,11.1993683 7.01360278,11.1902097 C8.57842505,11.1810511 9.85794886,12.4353063 9.88,14 C9.89361581,14.7688281 9.59489153,15.5103176 9.05210589,16.0549879 C8.50932024,16.5996582 7.76887066,16.9009508 7,16.89 Z M11.86,19.58 C11.3077153,19.58 10.86,19.1322847 10.86,18.58 C10.86,18.0277153 11.3077153,17.58 11.86,17.58 C12.4122847,17.58 12.86,18.0277153 12.86,18.58 C12.8604298,19.1170335 12.4366039,19.5585188 11.9,19.58 L11.86,19.58 Z M13.06,11.81 C12.4807262,11.814051 11.9562351,11.4682228 11.731744,10.9342019 C11.5072529,10.400181 11.6271169,9.78347959 12.0352956,9.37242641 C12.4434743,8.96137323 13.0593194,8.83718445 13.5949025,9.05792254 C14.1304856,9.27866063 14.4799858,9.80071203 14.48,10.38 C14.4804712,11.150646 13.8701749,11.7830545 13.1,11.81 L13.06,11.81 Z" id="Shape"></path>
            </g>
            <path d="M695.5864,81.6948 C718.0074,81.6948 736.1834,63.5188 736.1834,41.0968 C736.1834,18.6748 718.0074,0.4998 695.5864,0.4998 C673.1654,0.4998 654.9894,18.6748 654.9894,41.0968 C654.9894,63.5188 673.1654,81.6948 695.5864,81.6948 Z" id="Stroke-29" stroke="#231F20" stroke-linecap="round" stroke-linejoin="round"></path>
            <g id="type-steel" transform="translate(682.000000, 210.000000)" fill="#000000" fill-rule="nonzero">
                <path d="M9.3,5.65 L20.58,5.65 C20.9642423,5.62824623 21.326872,5.82892867 21.5125059,6.16605688 C21.6981398,6.50318508 21.6738327,6.91692766 21.45,7.23 L15.81,16.13 C15.6311011,16.4384022 15.3015343,16.6282281 14.945,16.6282281 C14.5884657,16.6282281 14.2588989,16.4384022 14.08,16.13 L8.43,7.23 C8.2061673,6.91692766 8.18186022,6.50318508 8.3674941,6.16605688 C8.55312799,5.82892867 8.91575771,5.62824623 9.3,5.65 Z" id="Path"></path>
                <path d="M6,9.79 C6.2,10.3 4.92,11.37 4.26,10.71 C3.72,9.9 1.7,6.06 1.08,4.65 C0.948883823,4.36320822 0.979316718,4.02844638 1.16,3.77 C1.75,2.88 3,1.14 3.59,0.41 C3.7525341,0.198384948 4.0031875,0.0730582486 4.27,0.07 C5.6,0 9.53,0 10.21,0 C10.64,0 10.66,2 10.1,2 L5.32,2.08 C5.04335138,2.07681694 4.78095564,2.20247124 4.61,2.42 L3.52,3.82 C3.29472047,4.10613983 3.25943201,4.49823389 3.43,4.82 L6,9.79 Z" id="Path"></path>
                <path d="M23.76,9.79 C23.55,10.3 24.83,11.37 25.49,10.71 C26.04,9.9 28.06,6.06 28.68,4.65 C28.8111162,4.36320822 28.7806833,4.02844638 28.6,3.77 C28,2.88 26.75,1.14 26.17,0.41 C26.008454,0.197190542 25.7571752,0.0715511189 25.49,0.07 C24.16,0 20.23,0 19.55,0 C19.12,0 19.1,2 19.66,2 L24.44,2.08 C24.7166486,2.07681694 24.9790444,2.20247124 25.15,2.42 L26.24,3.82 C26.4652795,4.10613983 26.500568,4.49823389 26.33,4.82 L23.76,9.79 Z" id="Path"></path>
                <path d="M10.65,17.76 C10.35,17.3 8.74,17.76 8.89,18.65 C9.24,19.56 11.14,22.21 11.94,23.54 C12.0997323,23.8086969 12.387446,23.9752679 12.7,23.98 C13.77,23.98 15.92,23.98 16.85,23.98 C17.1142448,23.968683 17.359767,23.8404252 17.52,23.63 C18.33,22.57 20.64,19.39 21.02,18.82 C21.27,18.47 19.65,17.3 19.33,17.76 C19.01,18.22 17.26,20.55 16.49,21.61 C16.3377893,21.8436738 16.0949159,22.0031728 15.82,22.05 C15.32,22.05 14.55,22.05 14.03,22.05 C13.6784728,22.0443396 13.3557408,21.8544973 13.18,21.55 L10.65,17.76 Z" id="Path"></path>
            </g>
            <path d="M695.5864,262.9702 C718.0074,262.9702 736.1834,244.7942 736.1834,222.3722 C736.1834,199.9502 718.0074,181.7752 695.5864,181.7752 C673.1654,181.7752 654.9894,199.9502 654.9894,222.3722 C654.9894,244.7942 673.1654,262.9702 695.5864,262.9702 Z" id="Stroke-32" stroke="#231F20" stroke-linecap="round" stroke-linejoin="round"></path>
            <g id="type-dragon" transform="translate(682.000000, 391.000000)" fill="#000000" fill-rule="nonzero">
                <path d="M27.49,9.54 C27.3991464,9.43154587 27.3554262,9.29126833 27.3685739,9.15040023 C27.3817216,9.00953214 27.4506456,8.87976805 27.56,8.79 C27.6749348,8.67095174 27.8345808,8.605642 28,8.61 C27.9,7.09 27.53,6.05 27,6.05 C25.57,6.05 23.39,8.44 21.48,10.19 C20.48,11.19 19.24,12.26 18.31,13.13 C18.31,13.13 18.31,13.13 18.31,13.13 C18.9,13.13 22.74,13.25 22.89,14.01 L22.89,14.01 C22.6233742,15.3768506 21.8294896,16.5838426 20.68,17.37 C19.5989342,18.2526398 18.293574,18.8170263 16.91,19 C15.9316184,19.2068804 14.9128415,19.0983508 14,18.69 C12,17.69 11.59,15.48 12.38,14.55 C13.17,13.62 14.22,12.62 14.5,12.29 C14.78,11.96 14.05,9.72 14.03,9.35 C13.94,8.67 13.96,8.35 15.12,7.43 C15.56,7.14 16.36,6.3 16.36,5.73 C16.36,4.58 12.12,3.68 10.57,3.47 C10.57,3.47 10.57,3.47 10.57,3.53 C11.41,3.97 13.66,4.78 13.38,6.16 C13.24,7 11.79,7.66 10.56,8 C10.76,8.39 11.15,9 11.28,9.31 C11.5914201,9.92786944 11.8329146,10.578563 12,11.25 L12,11.4 C11.4947307,11.6707084 10.9738114,11.9111327 10.44,12.12 C11.52,14.49 9.05,15.47 8.24,15.72 C8.08871323,15.7595475 7.9276837,15.7302694 7.8,15.64 C3.77,12.81 3,7.14 5,8.94 C5,8.94 5,8.94 5,8.94 C5.24,4.72 6.2,1.35 9.17,0.06 C6.06,0.12 3.62,2.25 2.17,5.06 C0.402955476,8.82844903 0.612573445,13.2266832 2.73,16.81 L2.73,16.81 C6.83,24.05 16.51,26.23 23.02,21.05 C24.3441066,20.040765 25.4184468,18.7406081 26.16,17.25 C27.3735024,14.8828077 28.0043219,12.2601069 28,9.6 C27.8336179,9.68558062 27.6319775,9.66185823 27.49,9.54 Z M25.11,10.21 C24.64,10.68 24.11,10.93 23.98,10.78 C23.85,10.63 24.08,10.12 24.55,9.65 C25.02,9.18 25.55,8.93 25.68,9.08 C25.81,9.23 25.58,9.74 25.11,10.21 L25.11,10.21 Z" id="Dragon"></path>
            </g>
            <path d="M695.5864,444.2456 C718.0074,444.2456 736.1834,426.0696 736.1834,403.6476 C736.1834,381.2256 718.0074,363.0506 695.5864,363.0506 C673.1654,363.0506 654.9894,381.2256 654.9894,403.6476 C654.9894,426.0696 673.1654,444.2456 695.5864,444.2456 Z" id="Stroke-35" stroke="#231F20" stroke-linecap="round" stroke-linejoin="round"></path>
            <g id="type-water" transform="translate(360.000000, 29.000000)" fill="#000000" fill-rule="nonzero">
                <path d="M8,0 C8,0 2.32,9.1 2,9.85 C0.720443166,11.8118845 0.0266673454,14.0978759 -1.77635684e-15,16.44 C-4.08562073e-16,20.37 3,24 8,24 C10.1425115,24.0703036 12.2184467,23.2500464 13.7342465,21.7342465 C15.2500464,20.2184467 16.0703036,18.1425115 16,16 C16,12 8,0 8,0 Z M4.38,13.79 C4.54317443,15.1316291 5.00443994,16.4197557 5.73,17.56 C6.28,18.56 6.25,19.56 5.84,19.88 C5.43,20.2 3.44,20.07 2.47,16.88 C1.5,13.69 3.33,10.66 3.59,10.17 C3.85,9.68 7.34,3.17 7.34,3.17 C5.17,8.18 4.16,10.94 4.38,13.79 Z" id="Shape"></path>
            </g>
            <path d="M368.1172,81.6948 C390.5382,81.6948 408.7142,63.5188 408.7142,41.0968 C408.7142,18.6748 390.5382,0.4998 368.1172,0.4998 C345.6962,0.4998 327.5202,18.6748 327.5202,41.0968 C327.5202,63.5188 345.6962,81.6948 368.1172,81.6948 Z" id="Stroke-38" stroke="#231F20" stroke-linecap="round" stroke-linejoin="round"></path>
            <g id="type-ground" transform="translate(358.000000, 210.000000)" fill="#000000" fill-rule="nonzero">
                <path d="M1.89,0 L19.89,0 C20.82,0 21.5,0.61 21.27,1.24 L20.62,3 L1.92,2 L1.1,0.91 C0.79,0.5 1.22,0 1.89,0 Z" id="Path"></path>
                <polygon id="Path" points="2.32 3.02 5.72 9.41 18.72 9.41 20.21 4.02"></polygon>
                <path d="M6,10.46 L18.49,10.46 L15,22.89 C14.79,23.61 13.37,23.7 13,23.01 L6,10.46 Z" id="Path"></path>
            </g>
            <path d="M368.1172,262.9702 C390.5382,262.9702 408.7142,244.7942 408.7142,222.3722 C408.7142,199.9502 390.5382,181.7752 368.1172,181.7752 C345.6962,181.7752 327.5202,199.9502 327.5202,222.3722 C327.5202,244.7942 345.6962,262.9702 368.1172,262.9702 Z" id="Stroke-41" stroke="#231F20" stroke-linecap="round" stroke-linejoin="round"></path>
            <g id="type-dark" transform="translate(356.000000, 391.000000)" fill="#000000" fill-rule="nonzero">
                <path d="M12,0 C5.372583,-4.05812251e-16 8.11624501e-16,5.372583 0,12 C-8.11624501e-16,18.627417 5.372583,24 12,24 C18.627417,24 24,18.627417 24,12 C24,8.81740212 22.7357179,5.76515517 20.4852814,3.51471863 C18.2348448,1.26428208 15.1825979,1.94877915e-16 12,0 Z M12,21.94 C12,21.94 24.47,11.43 12,2 C12,2 22,3.24 22,12 C22,20.76 12,21.94 12,21.94 Z" id="Shape"></path>
            </g>
            <path d="M368.1172,444.2456 C390.5382,444.2456 408.7142,426.0696 408.7142,403.6476 C408.7142,381.2256 390.5382,363.0506 368.1172,363.0506 C345.6962,363.0506 327.5202,381.2256 327.5202,403.6476 C327.5202,426.0696 345.6962,444.2456 368.1172,444.2456 Z" id="Stroke-44" stroke="#231F20" stroke-linecap="round" stroke-linejoin="round"></path>
            <g id="type-flying" transform="translate(849.000000, 29.000000)" fill="#000000" fill-rule="nonzero">
                <path d="M0.64,24 C-2.22,25 5.15,10.66 10.17,5.22 C12.4620519,2.71103134 15.4430118,0.933586185 18.74,0.11 C24.5,-1.07 18.17,7.85 15.54,8.73 C15.54,8.73 15.22,13.49 12.86,13.81 C12.86,13.81 12.86,17.89 9.11,18.87 C5.36,19.85 4.56,22.58 0.64,24 Z" id="Path"></path>
            </g>
            <path d="M859.321,81.6948 C881.742,81.6948 899.918,63.5188 899.918,41.0968 C899.918,18.6748 881.742,0.4998 859.321,0.4998 C836.9,0.4998 818.724,18.6748 818.724,41.0968 C818.724,63.5188 836.9,81.6948 859.321,81.6948 Z" id="Stroke-47" stroke="#231F20" stroke-linecap="round" stroke-linejoin="round"></path>
            <g id="type-poison" transform="translate(851.000000, 210.000000)" fill="#000000" fill-rule="nonzero">
                <path d="M10.53,3.57 C10.4052266,3.35464269 10.3428979,3.10879055 10.35,2.86 L10.35,1.06 C10.35,0.47 10,0 9.61,0 L7,0 C6.59,0 6.26,0.47 6.26,1.06 L6.26,2.86 C6.24680609,3.11744852 6.1561848,3.36491434 6,3.57 C5,5.22 0,13.06 0,14.57 C0,16.08 4.93,22.35 6,23.71 C6.1060526,23.8858665 6.29468602,23.9952738 6.5,24 L10.06,24 C10.2592634,23.9914762 10.4435833,23.8919435 10.56,23.73 C11.65,22.32 16.66,15.83 16.66,14.6 C16.66,13.37 11.59,5.24 10.53,3.57 Z M11,16.1 C10.9099351,16.1903782 10.7875927,16.2411785 10.66,16.2411785 C10.5324073,16.2411785 10.4100649,16.1903782 10.32,16.1 L8.33,14.16 L6.39,16.1 C6.2685297,16.2214703 6.09148288,16.2689099 5.92555136,16.2244487 C5.75961983,16.1799874 5.63001256,16.0503802 5.58555135,15.8844486 C5.54109013,15.7185171 5.58852969,15.5414703 5.71,15.42 L7.65,13.48 L5.71,11.54 C5.5885297,11.4185297 5.54109015,11.2414829 5.58555136,11.0755514 C5.63001258,10.9096198 5.75961985,10.7800126 5.92555136,10.7355514 C6.09148288,10.6910901 6.2685297,10.7385297 6.39,10.86 L8.33,12.8 L10.27,10.86 C10.4577768,10.6722232 10.7622232,10.6722232 10.95,10.86 C11.1377768,11.0477768 11.1377768,11.3522232 10.95,11.54 L9,13.48 L11,15.42 C11.0903782,15.5100649 11.1411785,15.6324073 11.1411785,15.76 C11.1411785,15.8875927 11.0903782,16.0099351 11,16.1 Z" id="Shape"></path>
            </g>
            <path d="M859.321,262.9702 C881.742,262.9702 899.918,244.7942 899.918,222.3722 C899.918,199.9502 881.742,181.7752 859.321,181.7752 C836.9,181.7752 818.724,199.9502 818.724,222.3722 C818.724,244.7942 836.9,262.9702 859.321,262.9702 Z" id="Stroke-50" stroke="#231F20" stroke-linecap="round" stroke-linejoin="round"></path>
            <g id="type-faerie" transform="translate(844.000000, 391.000000)" fill="#000000" fill-rule="nonzero" stroke="#000000">
                <path d="M14,24.39 C14.1362974,24.5486769 14.3624923,24.5954156 14.5505173,24.5037534 C14.7385423,24.4120913 14.841049,24.2051105 14.8,24 C14.8,20.14 12.8,7.39 2.19,3.37 C1.6904267,3.19159766 1.15896622,3.1200549 0.63,3.16 C0.03,3.16 1.63,3.34 2.22,3.93 C3.23660139,5.02846756 3.51804964,6.61943201 2.94,8 C2.46,9.38 1.32,11.49 3.12,14.07 C4.63,16.26 11.77,22.45 14,24.39 Z" id="Path"></path>
                <path d="M18,24.12 C17.6700914,24.402348 17.2031641,24.4596509 16.8147725,24.2654551 C16.4263808,24.0712592 16.1920667,23.6633357 16.22,23.23 C16.49,18.74 18.35,8.75 22.12,4.73 C23.5804434,2.92040646 25.4860426,1.52135897 27.65,0.67 C28.89,0.32 30.08,0.54 30.08,1.09 C30.08,1.42 28.58,1.4 27.9,1.57 C26.7,1.88 26.66,3.41 26.9,4.19 C27.3418428,5.82219621 27.5935135,7.50000034 27.65,9.19 C27.6549789,9.26992253 27.6549789,9.35007747 27.65,9.43 C27.37,12.43 25.55,16.57 22.19,20.25 C20.8609833,21.61137 19.4624488,22.9030952 18,24.12 L18,24.12 Z" id="Path"></path>
                <path d="M14.88,1.55 C14.88,2.65 14.68,4.39 17.58,4.39 C15.06,4.39 14.85,4.39 14.85,7.1 C14.85,4.39 14.25,4.39 12.01,4.39 C12.7791893,4.43645185 13.531781,4.15324856 14.0795262,3.61122895 C14.6272714,3.06920935 14.918367,2.31963498 14.88,1.55 Z" id="Path" stroke-linecap="round" stroke-linejoin="round"></path>
            </g>
            <path d="M859.321,444.2456 C881.742,444.2456 899.918,426.0696 899.918,403.6476 C899.918,381.2256 881.742,363.0506 859.321,363.0506 C836.9,363.0506 818.724,381.2256 818.724,403.6476 C818.724,426.0696 836.9,444.2456 859.321,444.2456 Z" id="Stroke-53" stroke="#231F20" stroke-linecap="round" stroke-linejoin="round"></path>
            <text id="grass" font-family="MrEavesModOT-Bold, Mr Eaves Mod OT" font-size="18" font-weight="bold" fill="#231F20">
                <tspan x="17.9623" y="106.63986">grass</tspan>
            </text>
            <text id="normal" font-family="MrEavesModOT-Bold, Mr Eaves Mod OT" font-size="18" font-weight="bold" fill="#231F20">
                <tspan x="13.0233" y="286.63986">normal</tspan>
            </text>
            <text id="ghost" font-family="MrEavesModOT-Bold, Mr Eaves Mod OT" font-size="18" font-weight="bold" fill="#231F20">
                <tspan x="18.1433" y="466.63986">ghost</tspan>
            </text>
            <text id="fire" font-family="MrEavesModOT-Bold, Mr Eaves Mod OT" font-size="18" font-weight="bold" fill="#231F20">
                <tspan x="191.6333" y="106.63986">fire</tspan>
            </text>
            <text id="fighting" font-family="MrEavesModOT-Bold, Mr Eaves Mod OT" font-size="18" font-weight="bold" fill="#231F20">
                <tspan x="176.0563" y="286.63986">fighting</tspan>
            </text>
            <text id="psychic" font-family="MrEavesModOT-Bold, Mr Eaves Mod OT" font-size="18" font-weight="bold" fill="#231F20">
                <tspan x="179.5193" y="466.63986">psychic</tspan>
            </text>
            <text id="water" font-family="MrEavesModOT-Bold, Mr Eaves Mod OT" font-size="18" font-weight="bold" fill="#231F20">
                <tspan x="347.0983" y="106.63986">water</tspan>
            </text>
            <text id="ground" font-family="MrEavesModOT-Bold, Mr Eaves Mod OT" font-size="18" font-weight="bold" fill="#231F20">
                <tspan x="341.1863" y="286.63986">ground</tspan>
            </text>
            <text id="dark" font-family="MrEavesModOT-Bold, Mr Eaves Mod OT" font-size="18" font-weight="bold" fill="#231F20">
                <tspan x="351.3473" y="466.63986">dark</tspan>
            </text>
            <text id="electric" font-family="MrEavesModOT-Bold, Mr Eaves Mod OT" font-size="18" font-weight="bold" fill="#231F20">
                <tspan x="501.4983" y="106.63986">electric</tspan>
            </text>
            <text id="rock" font-family="MrEavesModOT-Bold, Mr Eaves Mod OT" font-size="18" font-weight="bold" fill="#231F20">
                <tspan x="514.4573" y="286.63986">rock</tspan>
            </text>
            <text id="ice" font-family="MrEavesModOT-Bold, Mr Eaves Mod OT" font-size="18" font-weight="bold" fill="#231F20">
                <tspan x="522.1293" y="466.63986">ice</tspan>
            </text>
            <text id="bug" font-family="MrEavesModOT-Bold, Mr Eaves Mod OT" font-size="18" font-weight="bold" fill="#231F20">
                <tspan x="682.7473" y="106.63986">bug</tspan>
            </text>
            <text id="steel" font-family="MrEavesModOT-Bold, Mr Eaves Mod OT" font-size="18" font-weight="bold" fill="#231F20">
                <tspan x="678.1193" y="286.63986">steel</tspan>
            </text>
            <text id="dragon" font-family="MrEavesModOT-Bold, Mr Eaves Mod OT" font-size="18" font-weight="bold" fill="#231F20">
                <tspan x="669.8933" y="466.63986">dragon</tspan>
            </text>
            <text id="flying" font-family="MrEavesModOT-Bold, Mr Eaves Mod OT" font-size="18" font-weight="bold" fill="#231F20">
                <tspan x="837.3013" y="106.63986">flying</tspan>
            </text>
            <text id="poison" font-family="MrEavesModOT-Bold, Mr Eaves Mod OT" font-size="18" font-weight="bold" fill="#231F20">
                <tspan x="835.2843" y="286.63986">poison</tspan>
            </text>
            <text id="faerie" font-family="MrEavesModOT-Bold, Mr Eaves Mod OT" font-size="18" font-weight="bold" fill="#231F20">
                <tspan x="838.1613" y="466.63986">faerie</tspan>
            </text>
        </g>
    </g>
</svg>