<svg width="902" height="471" xmlns="http://www.w3.org/2000/svg"><g fill="none" fill-rule="evenodd"><path d="M32.94 29.42c-2.39 2.8-3.27 15.44 1.53 18.85a15.78 15.78 0 0 0 3.37 1.81.26.26 0 0 0 .3-.4A14.49 14.49 0 0 1 35 41.52a.09.09 0 0 1 .17 0 19.22 19.22 0 0 0 4 7.07 7 7 0 0 0 .83 1 7.88 7.88 0 0 0 1.25 1.06l.06.06c.06.05.128.09.2.12C45.36 53.35 51 53 51.54 53a.31.31 0 0 0 .31-.25c.09-.47-.91-1.06-1.47-.87a5.9 5.9 0 0 1-2.39.33 10.46 10.46 0 0 1-4.34-1.52 4 4 0 0 0 .59-.35 3.71 3.71 0 0 0 .73-.75 10.11 10.11 0 0 0 1.82-5.12 3.08 3.08 0 0 0 0-.43c-.45-5.67-11.49-17.39-13.85-14.62z" fill="#000" fill-rule="nonzero"/><path d="M41.648 81.695c22.421 0 40.597-18.176 40.597-40.598S64.069.5 41.648.5C19.227.5 1.051 18.675 1.051 41.097s18.176 40.598 40.597 40.598z" stroke="#231F20" stroke-linecap="round" stroke-linejoin="round"/><path d="M31.49 218a1.89 1.89 0 0 1 1.78-3.11 10.19 10.19 0 0 0 3.61.2c1.28-.24 2.19-1.83 2.83-3.79a1.89 1.89 0 0 1 3.59 0c.68 2.1 1.41 3.79 2 3.88a19.07 19.07 0 0 0 4.45-.8 1.89 1.89 0 0 1 1.85 3.12c-1.68 1.79-3 3.54-2.84 4.35.16.81 1.47 2.31 3 4a1.89 1.89 0 0 1-1.87 3.1c-2-.49-3.77-.79-4.6-.53-.83.26-1.67 2.12-2.33 4.28a1.9 1.9 0 0 1-3.63 0c-.6-1.9-1.29-3.58-2-4.2-.71-.62-2.22-.48-4-.08a1.89 1.89 0 0 1-1.81-3.1c1.19-1.36 2.1-2.67 2.15-3.55.05-.88-.91-2.33-2.18-3.77z" fill="#000" fill-rule="nonzero"/><path d="M41.648 262.97c22.421 0 40.597-18.176 40.597-40.598s-18.176-40.597-40.597-40.597c-22.421 0-40.597 18.175-40.597 40.597s18.176 40.598 40.597 40.598z" stroke="#231F20" stroke-linecap="round" stroke-linejoin="round"/><path d="M38 400.15c-.28 0-.51.35-.51.78 0 .43.23.78.51.78s.51-.34.51-.78-.19-.78-.51-.78zM42.91 398.06c-1.08 0-2 1.19-2 2.66 0 1.47.88 2.66 2 2.66s2-1.19 2-2.66c0-1.47-.91-2.66-2-2.66zm0 3.65c-.28 0-.51-.34-.51-.78s.23-.78.51-.78.51.35.51.78c0 .43-.23.78-.51.78z"/><path d="M49.28 407.25c.23-4.1.58-16.17-8.38-16.25-10.2-.09-7.65 22.46-7.53 22.77a2.07 2.07 0 0 0 2.71 1c1.64-.69 2-1.42 2.68-1.3.68.12.52 1.16 2.42 1.11 1.9-.05 2.24-.73 2.88-.85.23 0 2.47.17 2.47.17 1.51-.05 2.12-.06 2.71-1.57.39-.95-.02-4.02.04-5.08zM38 401.71c-.28 0-.51-.34-.51-.78s.23-.78.51-.78.51.35.51.78c0 .43-.19.78-.51.78zm4.87 1.67c-1.08 0-2-1.19-2-2.66 0-1.47.88-2.66 2-2.66s2 1.19 2 2.66c0 1.47-.87 2.66-1.96 2.66h-.04z" fill="#000" fill-rule="nonzero"/><path d="M42.91 400.15c-.28 0-.51.35-.51.78 0 .43.23.78.51.78s.51-.34.51-.78-.23-.78-.51-.78z" fill="#231F20" fill-rule="nonzero"/><path d="M41.648 444.246c22.421 0 40.597-18.176 40.597-40.598S64.069 363.05 41.648 363.05c-22.421 0-40.597 18.175-40.597 40.597s18.176 40.598 40.597 40.598z" stroke="#231F20" stroke-linecap="round" stroke-linejoin="round"/><path d="M533.38 29h7.08a.59.59 0 0 1 .48.92l-4.58 6.47a.59.59 0 0 0 .41.92l.89.11a.58.58 0 0 1 .36 1L535 41.77a.59.59 0 0 0 .33 1 .59.59 0 0 1 .34 1L528 52.78a.594.594 0 0 1-1-.64l3.2-6.14a.59.59 0 0 0-.53-.86h-1.26a.58.58 0 0 1-.52-.87l2-3.5a.59.59 0 0 0-.48-.77l-.92-.11A.59.59 0 0 1 528 39l4.85-9.68a.61.61 0 0 1 .53-.32z" fill="#000" fill-rule="nonzero"/><path d="M532.852 81.695c22.42 0 40.597-18.176 40.597-40.598S555.273.5 532.852.5c-22.421 0-40.597 18.175-40.597 40.597s18.176 40.598 40.597 40.598z" stroke="#231F20" stroke-linecap="round" stroke-linejoin="round"/><g fill="#000" fill-rule="nonzero"><path d="M528 221.88l2.17-3.41a.36.36 0 0 1 .31-.17h4.7a.37.37 0 0 1 .32.17l2.27 3.6a.37.37 0 0 1 0 .39l-2.29 4a.37.37 0 0 1-.32.18h-4.68a.38.38 0 0 1-.32-.18l-2.16-3.8a.78.78 0 0 1 0-.78zM523.7 225.17c.3.76-1.58 2.34-2.56 1.36a20.81 20.81 0 0 1-2-4 1.34 1.34 0 0 1 .11-1.3c.86-1.3 5.26-8.59 6.11-9.67a1.32 1.32 0 0 1 1-.5c2-.07 3.11-.07 4.12 0 .64 0 .77 2.83-.06 2.83h-2.33a1.32 1.32 0 0 0-1.09.45c-.47.59-3.9 6.35-4.31 7-.24.35-.57 1.07-.34 1.42l1.35 2.41zM542 225.17c-.3.76 1.58 2.34 2.57 1.36a22.05 22.05 0 0 0 2-4 1.37 1.37 0 0 0-.12-1.3c-.88-1.32-5.28-8.61-6.13-9.69a1.32 1.32 0 0 0-1-.5c-2-.07-3.11-.07-4.12 0-.64 0-.77 2.83.06 2.83h2.34c.393.013.76.2 1 .51.47.59 3.9 6.35 4.32 7 .23.35.56 1.07.33 1.42l-1.25 2.37zM526.27 229.43c-.47-.66-2.82.09-2.52 1.44a16.08 16.08 0 0 0 2.14 2.92 2.8 2.8 0 0 0 1.39.64c1.58 0 10.09.14 11.46 0a1.29 1.29 0 0 0 1-.58c1.12-1.63 1.72-2.59 2.24-3.46.34-.54-2-2.16-2.43-1.46-.43.7-.91 1.49-1.23 2a1.37 1.37 0 0 1-1 .61c-.75.08-7.49 0-8.2 0-.36 0-1.24.08-1.6-.43l-1.25-1.68z"/></g><path d="M532.852 262.97c22.42 0 40.597-18.176 40.597-40.598s-18.176-40.597-40.597-40.597c-22.421 0-40.597 18.175-40.597 40.597s18.176 40.598 40.597 40.598z" stroke="#231F20" stroke-linecap="round" stroke-linejoin="round"/><path d="M542.32 396.17l-9.08-3.84a3.06 3.06 0 0 0-2.86 0s-5.99 4.5-7.38 5.67a2.26 2.26 0 0 0-.91 2.48s.56 4.87.94 7.4c.38 2.53 1.59 2.85 1.59 2.85s6.74 4 8.34 4.87a3 3 0 0 0 2.95 0L542 409a10.49 10.49 0 0 0 1.64-2.53s.19-5.9.23-7.82a2.44 2.44 0 0 0-1.55-2.48zm-1.23 3.47c-1.62 2.1-4.79 6.18-5.17 6.6-.38.42-.88 4.2-1.15 6.36a.18.18 0 0 1-.35 0c-.27-2.09-.86-5.73-1.65-6.36-.79-.63-4-2.88-6.26-4.42a.18.18 0 0 1 .19-.3c2.74 1.35 7.06 3.44 7.57 3.41.51-.03 4.6-3.64 6.63-5.47a.13.13 0 1 1 .19.18z" fill="#000" fill-rule="nonzero"/><path d="M532.852 444.246c22.42 0 40.597-18.176 40.597-40.598s-18.176-40.597-40.597-40.597c-22.421 0-40.597 18.175-40.597 40.597s18.176 40.598 40.597 40.598z" stroke="#231F20" stroke-linecap="round" stroke-linejoin="round"/><path d="M199 37.2s-7 5.71.37 13.38c0 0 6.2 5.28 12.18.24a10.42 10.42 0 0 0 3.57-9.94 8.45 8.45 0 0 0-1.22-3.28 13.37 13.37 0 0 1-.85-1.69c-.51-1.23-.1-1.57 0-1.75a2.94 2.94 0 0 0-2.15 2.42c-.19 1.94 0 3.72-.56 3.72s-3.1-3.87-3.19-11.3a6.76 6.76 0 0 0-5.28 7.06c.25 6 .55 7 .09 7.18-.46.18-2.91-5.18-2.96-6.04z" fill="#000" fill-rule="nonzero"/><path d="M205.382 81.695c22.422 0 40.597-18.176 40.597-40.598S227.804.5 205.382.5c-22.42 0-40.596 18.175-40.596 40.597s18.175 40.598 40.596 40.598z" stroke="#231F20" stroke-linecap="round" stroke-linejoin="round"/><g fill="#000" fill-rule="nonzero"><path d="M203.69 231.13a11.81 11.81 0 0 1-7.3-4.22.14.14 0 0 0-.23 0l-1 2.34a1.41 1.41 0 0 0 .59 1.79l4.72 2.73a1.42 1.42 0 0 0 1.86-.4l1.38-1.9c.15-.21.09-.32-.02-.34zM204.58 230c1.21 0 19.79-10.65 5.63-18.82-3.39-2-7.39-1.61-6.32 2.4 1.07 4.01-1.42-.58-.99-1.71.43-1.13-8.11-1.87-5.9 13.67a.14.14 0 0 0 0 .06c1.3 2.12 5.27 4.4 7.58 4.4z"/></g><path d="M205.382 262.97c22.422 0 40.597-18.176 40.597-40.598s-18.175-40.597-40.597-40.597c-22.42 0-40.596 18.175-40.596 40.597s18.175 40.598 40.596 40.598z" stroke="#231F20" stroke-linecap="round" stroke-linejoin="round"/><path d="M189.16 403.22c2.76-4.22 17.7-25.12 32.06-.22.205.37.205.82 0 1.19-12.27 18-22.95 10.08-32 .28a1.16 1.16 0 0 1-.06-1.25zm20.26 1.62c.17-3.2-1.37-4.87-2.87-5.08-1.5-.21-2.92.9-3.07 3.34-.12 2 .95 3.54 2.05 3.82 1.1.28 2.11-.47 2.44-2.66a.92.92 0 0 0-.4-1c-.28-.11-.57.17-.64.62-.22 1.48-.93 1.46-1.22 1.39a1.92 1.92 0 0 1-1.16-2 1.72 1.72 0 0 1 1.91-1.81c.94.13 2 1.06 1.9 3.27-.09 1.69-1.06 3.5-2.67 3.5-1.61 0-2.58-2-2.91-3.68-.33-1.68-.27-4 1-5.5s2.59-1.33 3.22-1.05a3.41 3.41 0 0 1 1.83 2.15c.11.43.42.64.7.47.3-.28.412-.708.29-1.1a4.78 4.78 0 0 0-2.53-3.15c-1.45-.64-2.94-.18-4.18 1.3-1.41 1.66-1.94 4.55-1.37 7.36.57 2.81 2.11 4.78 3.92 4.85 2.34.01 3.64-2.59 3.76-5.04z" fill="#000" fill-rule="nonzero"/><path d="M205.382 444.246c22.422 0 40.597-18.176 40.597-40.598s-18.175-40.597-40.597-40.597c-22.42 0-40.596 18.175-40.596 40.597s18.175 40.598 40.596 40.598z" stroke="#231F20" stroke-linecap="round" stroke-linejoin="round"/><path d="M700.8 34a3.76 3.76 0 0 0 .2-1.25 3.75 3.75 0 0 0-7.5 0c.008.427.09.85.24 1.25a10.31 10.31 0 0 0-4.74 9c0 5.52 3.7 10 8.27 10 4.57 0 8.27-4.48 8.27-10a10.31 10.31 0 0 0-4.74-9zM695 45.89a2.85 2.85 0 1 1 2.88-2.89 2.84 2.84 0 0 1-2.88 2.89zm4.86 2.69a1 1 0 1 1 .04 0h-.04zm1.2-7.77a1.43 1.43 0 1 1 .04 0h-.04z" fill="#000" fill-rule="nonzero"/><path d="M696.586 81.695c22.421 0 40.597-18.176 40.597-40.598S719.007.5 696.586.5c-22.42 0-40.597 18.175-40.597 40.597s18.176 40.598 40.597 40.598z" stroke="#231F20" stroke-linecap="round" stroke-linejoin="round"/><g fill="#000" fill-rule="nonzero"><path d="M692.3 215.65h11.28a1 1 0 0 1 .87 1.58l-5.64 8.9a1 1 0 0 1-1.73 0l-5.65-8.9a1 1 0 0 1 .87-1.58zM689 219.79c.2.51-1.08 1.58-1.74.92-.54-.81-2.56-4.65-3.18-6.06a.89.89 0 0 1 .08-.88c.59-.89 1.84-2.63 2.43-3.36a.87.87 0 0 1 .68-.34c1.33-.07 5.26-.07 5.94-.07.43 0 .45 2-.11 2l-4.78.08a.89.89 0 0 0-.71.34l-1.09 1.4a.92.92 0 0 0-.09 1l2.57 4.97z"/><path d="M706.76 219.79c-.21.51 1.07 1.58 1.73.92.55-.81 2.57-4.65 3.19-6.06a.89.89 0 0 0-.08-.88c-.6-.89-1.85-2.63-2.43-3.36a.86.86 0 0 0-.68-.34c-1.33-.07-5.26-.07-5.94-.07-.43 0-.45 2 .11 2l4.78.08a.89.89 0 0 1 .71.34l1.09 1.4a.92.92 0 0 1 .09 1l-2.57 4.97zM693.65 227.76c-.3-.46-1.91 0-1.76.89.35.91 2.25 3.56 3.05 4.89a.9.9 0 0 0 .76.44h4.15a.89.89 0 0 0 .67-.35c.81-1.06 3.12-4.24 3.5-4.81.25-.35-1.37-1.52-1.69-1.06-.32.46-2.07 2.79-2.84 3.85a1 1 0 0 1-.67.44h-1.79a1 1 0 0 1-.85-.5l-2.53-3.79z"/></g><path d="M696.586 262.97c22.421 0 40.597-18.176 40.597-40.598s-18.176-40.597-40.597-40.597c-22.42 0-40.597 18.175-40.597 40.597s18.176 40.598 40.597 40.598z" stroke="#231F20" stroke-linecap="round" stroke-linejoin="round"/><path d="M710.49 400.54a.53.53 0 0 1 .07-.75.59.59 0 0 1 .44-.18c-.1-1.52-.47-2.56-1-2.56-1.43 0-3.61 2.39-5.52 4.14-1 1-2.24 2.07-3.17 2.94.59 0 4.43.12 4.58.88a5.3 5.3 0 0 1-2.21 3.36 7.52 7.52 0 0 1-3.77 1.63 4.73 4.73 0 0 1-2.91-.31c-2-1-2.41-3.21-1.62-4.14.79-.93 1.84-1.93 2.12-2.26.28-.33-.45-2.57-.47-2.94-.09-.68-.07-1 1.09-1.92.44-.29 1.24-1.13 1.24-1.7 0-1.15-4.24-2.05-5.79-2.26v.06c.84.44 3.09 1.25 2.81 2.63-.14.84-1.59 1.5-2.82 1.84.2.39.59 1 .72 1.31a9.3 9.3 0 0 1 .72 1.94v.15a14.46 14.46 0 0 1-1.56.72c1.08 2.37-1.39 3.35-2.2 3.6a.53.53 0 0 1-.44-.08c-4.03-2.83-4.8-8.5-2.8-6.7.24-4.22 1.2-7.59 4.17-8.88-3.11.06-5.55 2.19-7 5a12.59 12.59 0 0 0 .56 11.75c4.1 7.24 13.78 9.42 20.29 4.24a10.86 10.86 0 0 0 3.14-3.8 16.71 16.71 0 0 0 1.84-7.65.46.46 0 0 1-.51-.06zm-2.38.67c-.47.47-1 .72-1.13.57-.13-.15.1-.66.57-1.13.47-.47 1-.72 1.13-.57.13.15-.1.66-.57 1.13z" fill="#000" fill-rule="nonzero"/><path d="M696.586 444.246c22.421 0 40.597-18.176 40.597-40.598s-18.176-40.597-40.597-40.597c-22.42 0-40.597 18.175-40.597 40.597s18.176 40.598 40.597 40.598z" stroke="#231F20" stroke-linecap="round" stroke-linejoin="round"/><path d="M369 29s-5.68 9.1-6 9.85a12.32 12.32 0 0 0-2 6.59c0 3.93 3 7.56 8 7.56a7.75 7.75 0 0 0 8-8c0-4-8-16-8-16zm-3.62 13.79a9.06 9.06 0 0 0 1.35 3.77c.55 1 .52 2 .11 2.32-.41.32-2.4.19-3.37-3-.97-3.19.86-6.22 1.12-6.71.26-.49 3.75-7 3.75-7-2.17 5.01-3.18 7.77-2.96 10.62z" fill="#000" fill-rule="nonzero"/><path d="M369.117 81.695c22.421 0 40.597-18.176 40.597-40.598S391.538.5 369.117.5c-22.42 0-40.597 18.175-40.597 40.597s18.176 40.598 40.597 40.598z" stroke="#231F20" stroke-linecap="round" stroke-linejoin="round"/><g fill="#000" fill-rule="nonzero"><path d="M360.89 210h18c.93 0 1.61.61 1.38 1.24l-.65 1.76-18.7-1-.82-1.09c-.31-.41.12-.91.79-.91zM361.32 213.02l3.4 6.39h13l1.49-5.39zM365 220.46h12.49L374 232.89c-.21.72-1.63.81-2 .12l-7-12.55z"/></g><path d="M369.117 262.97c22.421 0 40.597-18.176 40.597-40.598s-18.176-40.597-40.597-40.597c-22.42 0-40.597 18.175-40.597 40.597s18.176 40.598 40.597 40.598z" stroke="#231F20" stroke-linecap="round" stroke-linejoin="round"/><path d="M369 391c-6.627 0-12 5.373-12 12s5.373 12 12 12 12-5.373 12-12a12 12 0 0 0-12-12zm0 21.94s12.47-10.51 0-19.94c0 0 10 1.24 10 10s-10 9.94-10 9.94z" fill="#000" fill-rule="nonzero"/><path d="M369.117 444.246c22.421 0 40.597-18.176 40.597-40.598s-18.176-40.597-40.597-40.597c-22.42 0-40.597 18.175-40.597 40.597s18.176 40.598 40.597 40.598z" stroke="#231F20" stroke-linecap="round" stroke-linejoin="round"/><path d="M850.64 53c-2.86 1 4.51-13.34 9.53-18.78a17.28 17.28 0 0 1 8.57-5.11c5.76-1.18-.57 7.74-3.2 8.62 0 0-.32 4.76-2.68 5.08 0 0 0 4.08-3.75 5.06-3.75.98-4.55 3.71-8.47 5.13z" fill="#000" fill-rule="nonzero"/><path d="M860.321 81.695c22.421 0 40.597-18.176 40.597-40.598S882.742.5 860.321.5c-22.421 0-40.597 18.175-40.597 40.597s18.176 40.598 40.597 40.598z" stroke="#231F20" stroke-linecap="round" stroke-linejoin="round"/><path d="M862.53 213.57a1.34 1.34 0 0 1-.18-.71v-1.8c0-.59-.35-1.06-.74-1.06H859c-.41 0-.74.47-.74 1.06v1.8a1.28 1.28 0 0 1-.26.71c-1 1.65-6 9.49-6 11 0 1.51 4.93 7.78 6 9.14a.6.6 0 0 0 .5.29h3.56a.65.65 0 0 0 .5-.27c1.09-1.41 6.1-7.9 6.1-9.13 0-1.23-5.07-9.36-6.13-11.03zm.47 12.53a.48.48 0 0 1-.68 0l-1.99-1.94-1.94 1.94a.48.48 0 1 1-.68-.68l1.94-1.94-1.94-1.94a.48.48 0 1 1 .68-.68l1.94 1.94 1.94-1.94a.48.48 0 0 1 .68.68l-1.95 1.94 2 1.94a.48.48 0 0 1 0 .68z" fill="#000" fill-rule="nonzero"/><path d="M860.321 262.97c22.421 0 40.597-18.176 40.597-40.598s-18.176-40.597-40.597-40.597c-22.421 0-40.597 18.175-40.597 40.597s18.176 40.598 40.597 40.598z" stroke="#231F20" stroke-linecap="round" stroke-linejoin="round"/><g fill="#000" fill-rule="nonzero" stroke="#000"><path d="M859 415.39a.46.46 0 0 0 .8-.39c0-3.86-2-16.61-12.61-20.63a3.79 3.79 0 0 0-1.56-.21c-.6 0 1 .18 1.59.77a3.82 3.82 0 0 1 .72 4.07c-.48 1.38-1.62 3.49.18 6.07 1.51 2.19 8.65 8.38 10.88 10.32zM863 415.12a1.08 1.08 0 0 1-1.78-.89c.27-4.49 2.13-14.48 5.9-18.5a13.42 13.42 0 0 1 5.53-4.06c1.24-.35 2.43-.13 2.43.42 0 .33-1.5.31-2.18.48-1.2.31-1.24 1.84-1 2.62a21.94 21.94 0 0 1 .75 5c.005.08.005.16 0 .24-.28 3-2.1 7.14-5.46 10.82a55.18 55.18 0 0 1-4.19 3.87h0z"/><path d="M859.88 392.55c0 1.1-.2 2.84 2.7 2.84-2.52 0-2.73 0-2.73 2.71 0-2.71-.6-2.71-2.84-2.71a2.71 2.71 0 0 0 2.87-2.84z" stroke-linecap="round" stroke-linejoin="round"/></g><path d="M860.321 444.246c22.421 0 40.597-18.176 40.597-40.598s-18.176-40.597-40.597-40.597c-22.421 0-40.597 18.175-40.597 40.597s18.176 40.598 40.597 40.598z" stroke="#231F20" stroke-linecap="round" stroke-linejoin="round"/><text font-family="MrEavesModOT-Bold, Mr Eaves Mod OT" font-size="18" font-weight="bold" fill="#231F20" transform="translate(1)"><tspan x="17.962" y="106.64">grass</tspan></text><text font-family="MrEavesModOT-Bold, Mr Eaves Mod OT" font-size="18" font-weight="bold" fill="#231F20" transform="translate(1)"><tspan x="13.023" y="286.64">normal</tspan></text><text font-family="MrEavesModOT-Bold, Mr Eaves Mod OT" font-size="18" font-weight="bold" fill="#231F20" transform="translate(1)"><tspan x="18.143" y="466.64">ghost</tspan></text><text font-family="MrEavesModOT-Bold, Mr Eaves Mod OT" font-size="18" font-weight="bold" fill="#231F20" transform="translate(1)"><tspan x="191.633" y="106.64">fire</tspan></text><text font-family="MrEavesModOT-Bold, Mr Eaves Mod OT" font-size="18" font-weight="bold" fill="#231F20" transform="translate(1)"><tspan x="176.056" y="286.64">fighting</tspan></text><text font-family="MrEavesModOT-Bold, Mr Eaves Mod OT" font-size="18" font-weight="bold" fill="#231F20" transform="translate(1)"><tspan x="179.519" y="466.64">psychic</tspan></text><text font-family="MrEavesModOT-Bold, Mr Eaves Mod OT" font-size="18" font-weight="bold" fill="#231F20" transform="translate(1)"><tspan x="347.098" y="106.64">water</tspan></text><text font-family="MrEavesModOT-Bold, Mr Eaves Mod OT" font-size="18" font-weight="bold" fill="#231F20" transform="translate(1)"><tspan x="341.186" y="286.64">ground</tspan></text><text font-family="MrEavesModOT-Bold, Mr Eaves Mod OT" font-size="18" font-weight="bold" fill="#231F20" transform="translate(1)"><tspan x="351.347" y="466.64">dark</tspan></text><text font-family="MrEavesModOT-Bold, Mr Eaves Mod OT" font-size="18" font-weight="bold" fill="#231F20" transform="translate(1)"><tspan x="501.498" y="106.64">electric</tspan></text><text font-family="MrEavesModOT-Bold, Mr Eaves Mod OT" font-size="18" font-weight="bold" fill="#231F20" transform="translate(1)"><tspan x="514.457" y="286.64">rock</tspan></text><text font-family="MrEavesModOT-Bold, Mr Eaves Mod OT" font-size="18" font-weight="bold" fill="#231F20" transform="translate(1)"><tspan x="522.129" y="466.64">ice</tspan></text><text font-family="MrEavesModOT-Bold, Mr Eaves Mod OT" font-size="18" font-weight="bold" fill="#231F20" transform="translate(1)"><tspan x="682.747" y="106.64">bug</tspan></text><text font-family="MrEavesModOT-Bold, Mr Eaves Mod OT" font-size="18" font-weight="bold" fill="#231F20" transform="translate(1)"><tspan x="678.119" y="286.64">steel</tspan></text><text font-family="MrEavesModOT-Bold, Mr Eaves Mod OT" font-size="18" font-weight="bold" fill="#231F20" transform="translate(1)"><tspan x="669.893" y="466.64">dragon</tspan></text><text font-family="MrEavesModOT-Bold, Mr Eaves Mod OT" font-size="18" font-weight="bold" fill="#231F20" transform="translate(1)"><tspan x="837.301" y="106.64">flying</tspan></text><text font-family="MrEavesModOT-Bold, Mr Eaves Mod OT" font-size="18" font-weight="bold" fill="#231F20" transform="translate(1)"><tspan x="835.284" y="286.64">poison</tspan></text><text font-family="MrEavesModOT-Bold, Mr Eaves Mod OT" font-size="18" font-weight="bold" fill="#231F20" transform="translate(1)"><tspan x="838.161" y="466.64">faerie</tspan></text></g></svg>