<svg xmlns="http://www.w3.org/2000/svg" viewBox="0 0 32.36 24"><title>Psychic</title><g id="Layer_2" data-name="Layer 2"><g id="FINISHED_ICONS" data-name="FINISHED ICONS"><path id="Psychic" d="M.16,12.22C2.92,8,17.86-12.9,32.22,12a1.23,1.23,0,0,1,0,1.19c-12.27,18-22.95,10.08-32,.28A1.16,1.16,0,0,1,.16,12.22Zm20.26,1.62c.17-3.2-1.37-4.87-2.87-5.08s-2.92.9-3.07,3.34c-.12,2,.95,3.54,2.05,3.82s2.11-.47,2.44-2.66a.92.92,0,0,0-.4-1c-.28-.11-.57.17-.64.62-.22,1.48-.93,1.46-1.22,1.39a1.92,1.92,0,0,1-1.16-2,1.72,1.72,0,0,1,1.91-1.81c.94.13,2,1.06,1.9,3.27-.09,1.69-1.06,3.5-2.67,3.5s-2.58-2-2.91-3.68-.27-4,1-5.5S17.37,6.72,18,7a3.41,3.41,0,0,1,1.83,2.15c.11.43.42.64.7.47a1.07,1.07,0,0,0,.29-1.1,4.78,4.78,0,0,0-2.53-3.15c-1.45-.64-2.94-.18-4.18,1.3-1.41,1.66-1.94,4.55-1.37,7.36s2.11,4.78,3.92,4.85C19,18.89,20.3,16.29,20.42,13.84Z"/></g></g></svg>