<svg xmlns="http://www.w3.org/2000/svg" viewBox="0 0 20.86 24"><title>Leaf</title><g id="Layer_2" data-name="Layer 2"><g id="FINISHED_ICONS" data-name="FINISHED ICONS"><g id="Leaf"><path d="M1.94.42C-.45,3.22-1.33,15.86,3.47,19.27a15.78,15.78,0,0,0,3.37,1.81.26.26,0,0,0,.3-.4A14.49,14.49,0,0,1,4,12.52a.09.09,0,0,1,.17,0,19.22,19.22,0,0,0,4,7.07,7,7,0,0,0,.83,1,7.88,7.88,0,0,0,1.25,1.06l.06.06a.82.82,0,0,0,.2.12C14.36,24.35,20,24,20.54,24a.31.31,0,0,0,.31-.25c.09-.47-.91-1.06-1.47-.87a5.9,5.9,0,0,1-2.39.33,10.46,10.46,0,0,1-4.34-1.52,4,4,0,0,0,.59-.35,3.71,3.71,0,0,0,.73-.75,10.11,10.11,0,0,0,1.82-5.12,3.08,3.08,0,0,0,0-.43C15.34,9.37,4.3-2.35,1.94.42Z"/></g></g></g></svg>