<svg xmlns="http://www.w3.org/2000/svg" viewBox="0 0 14.05 24"><title>Electric</title><g id="Layer_2" data-name="Layer 2"><g id="FINISHED_ICONS" data-name="FINISHED ICONS"><g id="Electric"><path d="M6.38,0h7.08a.59.59,0,0,1,.48.92L9.36,7.39a.59.59,0,0,0,.41.92l.89.11a.58.58,0,0,1,.36,1L8,12.77a.59.59,0,0,0,.33,1h0a.59.59,0,0,1,.34,1L1,23.78a.58.58,0,0,1-1-.64L3.2,17a.59.59,0,0,0-.53-.86l-1.26,0a.58.58,0,0,1-.52-.87l2-3.5A.59.59,0,0,0,2.41,11l-.92-.11A.59.59,0,0,1,1,10L5.85.32A.61.61,0,0,1,6.38,0Z"/></g></g></g></svg>