<svg xmlns="http://www.w3.org/2000/svg" viewBox="0 0 27.73 23.48"><title>Rock</title><g id="Layer_2" data-name="Layer 2"><g id="FINISHED_ICONS" data-name="FINISHED ICONS"><g id="Rock"><path d="M9,10.88l2.17-3.41a.36.36,0,0,1,.31-.17h4.7a.37.37,0,0,1,.32.17l2.27,3.6a.37.37,0,0,1,0,.39l-2.29,4a.37.37,0,0,1-.32.18H11.48a.38.38,0,0,1-.32-.18L9,11.66A.78.78,0,0,1,9,10.88Z"/><path d="M4.7,14.17c.3.76-1.58,2.34-2.56,1.36a20.81,20.81,0,0,1-2-4,1.34,1.34,0,0,1,.11-1.3C1.11,8.93,5.51,1.64,6.36.56a1.32,1.32,0,0,1,1-.5c2-.07,3.11-.07,4.12,0,.64,0,.77,2.83-.06,2.83l-2.33,0A1.32,1.32,0,0,0,8,3.34c-.47.59-3.9,6.35-4.31,7-.24.35-.57,1.07-.34,1.42Z"/><path d="M23,14.17c-.3.76,1.58,2.34,2.57,1.36a22.05,22.05,0,0,0,2-4,1.37,1.37,0,0,0-.12-1.3c-.88-1.32-5.28-8.61-6.13-9.69a1.32,1.32,0,0,0-1-.5c-2-.07-3.11-.07-4.12,0-.64,0-.77,2.83.06,2.83l2.34,0a1.32,1.32,0,0,1,1,.51c.47.59,3.9,6.35,4.32,7,.23.35.56,1.07.33,1.42Z"/><path d="M7.27,18.43c-.47-.66-2.82.09-2.52,1.44a16.08,16.08,0,0,0,2.14,2.92,2.8,2.8,0,0,0,1.39.64c1.58,0,10.09.14,11.46,0a1.29,1.29,0,0,0,1-.58c1.12-1.63,1.72-2.59,2.24-3.46.34-.54-2-2.16-2.43-1.46s-.91,1.49-1.23,2a1.37,1.37,0,0,1-1,.61c-.75.08-7.49,0-8.2,0-.36,0-1.24.08-1.6-.43Z"/></g></g></g></svg>