<svg xmlns="http://www.w3.org/2000/svg" viewBox="0 0 27.76 24"><g data-name="Layer 2"><g data-name="FINISHED ICONS"><path d="M8.3 5.65h11.28a1 1 0 0 1 .87 1.58l-5.64 8.9a1 1 0 0 1-1.73 0l-5.65-8.9a1 1 0 0 1 .87-1.58zM5 9.79c.2.51-1.08 1.58-1.74.92C2.72 9.9.7 6.06.08 4.65a.89.89 0 0 1 .08-.88C.75 2.88 2 1.14 2.59.41a.87.87 0 0 1 .68-.34C4.6 0 8.53 0 9.21 0c.43 0 .45 2-.11 2l-4.78.08a.89.89 0 0 0-.71.34l-1.09 1.4a.92.92 0 0 0-.09 1z"/><path d="M22.76 9.79c-.21.51 1.07 1.58 1.73.92.55-.81 2.57-4.65 3.19-6.06a.89.89 0 0 0-.08-.88c-.6-.89-1.85-2.63-2.43-3.36a.86.86 0 0 0-.68-.34C23.16 0 19.23 0 18.55 0c-.43 0-.45 2 .11 2l4.78.08a.89.89 0 0 1 .71.34l1.09 1.4a.92.92 0 0 1 .09 1zM9.65 17.76c-.3-.46-1.91 0-1.76.89.35.91 2.25 3.56 3.05 4.89a.9.9 0 0 0 .76.44h4.15a.89.89 0 0 0 .67-.35c.81-1.06 3.12-4.24 3.5-4.81.25-.35-1.37-1.52-1.69-1.06s-2.07 2.79-2.84 3.85a1 1 0 0 1-.67.44h-1.79a1 1 0 0 1-.85-.5z"/></g></g></svg>