<svg xmlns="http://www.w3.org/2000/svg" viewBox="0 0 27.04 23.91"><title>Dragon</title><g id="Layer_2" data-name="Layer 2"><g id="FINISHED_ICONS" data-name="FINISHED ICONS"><path id="Dragon" d="M26.49,9.54a.53.53,0,0,1,.07-.75A.59.59,0,0,1,27,8.61c-.1-1.52-.47-2.56-1-2.56-1.43,0-3.61,2.39-5.52,4.14-1,1-2.24,2.07-3.17,2.94,0,0,0,0,0,0,.59,0,4.43.12,4.58.88v0a5.3,5.3,0,0,1-2.21,3.36A7.52,7.52,0,0,1,15.91,19,4.73,4.73,0,0,1,13,18.69c-2-1-2.41-3.21-1.62-4.14s1.84-1.93,2.12-2.26-.45-2.57-.47-2.94c-.09-.68-.07-1,1.09-1.92.44-.29,1.24-1.13,1.24-1.7,0-1.15-4.24-2.05-5.79-2.26,0,0,0,0,0,.06.84.44,3.09,1.25,2.81,2.63C12.24,7,10.79,7.66,9.56,8c.2.39.59,1,.72,1.31A9.3,9.3,0,0,1,11,11.25L11,11.4a14.46,14.46,0,0,1-1.56.72,0,0,0,0,0,0,0c1.08,2.37-1.39,3.35-2.2,3.6a.53.53,0,0,1-.44-.08C2.77,12.81,2,7.14,4,8.94c0,0,0,0,0,0C4.24,4.72,5.2,1.35,8.17.06a0,0,0,0,0,0-.06c-3.11.06-5.55,2.19-7,5a12.59,12.59,0,0,0,.56,11.75l0,0c4.1,7.24,13.78,9.42,20.29,4.24a10.86,10.86,0,0,0,3.14-3.8A16.71,16.71,0,0,0,27,9.6.46.46,0,0,1,26.49,9.54Zm-2.38.67c-.47.47-1,.72-1.13.57s.1-.66.57-1.13,1-.72,1.13-.57S24.58,9.74,24.11,10.21Z"/></g></g></svg>