<svg xmlns="http://www.w3.org/2000/svg" viewBox="0 0 16.54 24"><title>Bug</title><g id="Layer_2" data-name="Layer 2"><g id="FINISHED_ICONS" data-name="FINISHED ICONS"><g id="Bug"><path d="M11.8,5A3.76,3.76,0,0,0,12,3.75a3.75,3.75,0,0,0-7.5,0A3.76,3.76,0,0,0,4.74,5,10.31,10.31,0,0,0,0,14c0,5.52,3.7,10,8.27,10s8.27-4.48,8.27-10A10.31,10.31,0,0,0,11.8,5ZM6,16.89A2.85,2.85,0,1,1,8.88,14,2.84,2.84,0,0,1,6,16.89Zm4.86,2.69a1,1,0,1,1,1-1A1,1,0,0,1,10.9,19.58Zm1.2-7.77a1.43,1.43,0,1,1,1.42-1.43A1.43,1.43,0,0,1,12.1,11.81Z"/></g></g></g></svg>