<svg xmlns="http://www.w3.org/2000/svg" viewBox="0 0 21.91 24"><title>Ice</title><g id="Layer_2" data-name="Layer 2"><g id="FINISHED_ICONS" data-name="FINISHED ICONS"><g id="Ice"><path d="M20.32,4.17,11.24.33a3.06,3.06,0,0,0-2.86,0S2.39,4.83,1,6A2.26,2.26,0,0,0,.09,8.48s.56,4.87.94,7.4,1.59,2.85,1.59,2.85,6.74,4,8.34,4.87a3,3,0,0,0,2.95,0L20,17a10.49,10.49,0,0,0,1.64-2.53s.19-5.9.23-7.82A2.44,2.44,0,0,0,20.32,4.17ZM19.09,7.64c-1.62,2.1-4.79,6.18-5.17,6.6s-.88,4.2-1.15,6.36a.18.18,0,0,1-.35,0c-.27-2.09-.86-5.73-1.65-6.36s-4-2.88-6.26-4.42a.18.18,0,0,1,.19-.3c2.74,1.35,7.06,3.44,7.57,3.41s4.6-3.64,6.63-5.47A.13.13,0,0,1,19.09,7.64Z"/></g></g></g></svg>