<svg xmlns="http://www.w3.org/2000/svg" viewBox="0 0 29.58 25"><defs><style>.cls-1,.cls-2{stroke:#000;}.cls-1{stroke-miterlimit:10;}.cls-2{stroke-linecap:round;stroke-linejoin:round;}</style></defs><title>Faerie</title><g id="Layer_2" data-name="Layer 2"><g id="FINISHED_ICONS" data-name="FINISHED ICONS"><g id="Faerie"><path class="cls-1" d="M14,24.39A.46.46,0,0,0,14.8,24c0-3.86-2-16.61-12.61-20.63A3.79,3.79,0,0,0,.63,3.16c-.6,0,1,.18,1.59.77A3.82,3.82,0,0,1,2.94,8c-.48,1.38-1.62,3.49.18,6.07C4.63,16.26,11.77,22.45,14,24.39Z"/><path class="cls-1" d="M18,24.12a1.08,1.08,0,0,1-1.78-.89c.27-4.49,2.13-14.48,5.9-18.5A13.42,13.42,0,0,1,27.65.67c1.24-.35,2.43-.13,2.43.42,0,.33-1.5.31-2.18.48-1.2.31-1.24,1.84-1,2.62a21.94,21.94,0,0,1,.75,5,1.93,1.93,0,0,1,0,.24c-.28,3-2.1,7.14-5.46,10.82A55.18,55.18,0,0,1,18,24.12Z"/><path class="cls-2" d="M14.88,1.55c0,1.1-.2,2.84,2.7,2.84-2.52,0-2.73,0-2.73,2.71,0-2.71-.6-2.71-2.84-2.71A2.71,2.71,0,0,0,14.88,1.55Z"/></g></g></g></svg>