<svg xmlns="http://www.w3.org/2000/svg" viewBox="0 0 27.76 24"><title>Steel</title><g id="Layer_2" data-name="Layer 2"><g id="FINISHED_ICONS" data-name="FINISHED ICONS"><g id="Steel"><path d="M8.3,5.65H19.58a1,1,0,0,1,.87,1.58l-5.64,8.9a1,1,0,0,1-1.73,0L7.43,7.23A1,1,0,0,1,8.3,5.65Z"/><path d="M5,9.79c.2.51-1.08,1.58-1.74.92C2.72,9.9.7,6.06.08,4.65a.89.89,0,0,1,.08-.88C.75,2.88,2,1.14,2.59.41A.87.87,0,0,1,3.27.07C4.6,0,8.53,0,9.21,0c.43,0,.45,2-.11,2l-4.78.08a.89.89,0,0,0-.71.34L2.52,3.82a.92.92,0,0,0-.09,1Z"/><path d="M22.76,9.79c-.21.51,1.07,1.58,1.73.92.55-.81,2.57-4.65,3.19-6.06a.89.89,0,0,0-.08-.88C27,2.88,25.75,1.14,25.17.41a.86.86,0,0,0-.68-.34C23.16,0,19.23,0,18.55,0c-.43,0-.45,2,.11,2l4.78.08a.89.89,0,0,1,.71.34l1.09,1.4a.92.92,0,0,1,.09,1Z"/><path d="M9.65,17.76c-.3-.46-1.91,0-1.76.89.35.91,2.25,3.56,3.05,4.89a.9.9,0,0,0,.76.44c1.07,0,3.22,0,4.15,0a.89.89,0,0,0,.67-.35c.81-1.06,3.12-4.24,3.5-4.81.25-.35-1.37-1.52-1.69-1.06s-2.07,2.79-2.84,3.85a1,1,0,0,1-.67.44c-.5,0-1.27,0-1.79,0a1,1,0,0,1-.85-.5Z"/></g></g></g></svg>