<svg xmlns="http://www.w3.org/2000/svg" viewBox="0 0 16.41 24"><defs><style>.cls-1{fill:none;}.cls-2{fill:#231f20;}</style></defs><title>Ghost</title><g id="Layer_2" data-name="Layer 2"><g id="FINISHED_ICONS" data-name="FINISHED ICONS"><g id="Ghost"><path class="cls-1" d="M5,9.15c-.28,0-.51.35-.51.78s.23.78.51.78.51-.34.51-.78S5.32,9.15,5,9.15Z"/><path class="cls-1" d="M9.91,7.06c-1.08,0-2,1.19-2,2.66s.88,2.66,2,2.66,2-1.19,2-2.66S11,7.06,9.91,7.06Zm0,3.65c-.28,0-.51-.34-.51-.78s.23-.78.51-.78.51.35.51.78S10.19,10.71,9.91,10.71Z"/><path d="M16.28,16.25C16.51,12.15,16.86.08,7.9,0-2.3-.09.25,22.46.37,22.77a2.07,2.07,0,0,0,2.71,1c1.64-.69,2-1.42,2.68-1.3s.52,1.16,2.42,1.11,2.24-.73,2.88-.85c.23,0,2.47.17,2.47.17,1.51-.05,2.12-.06,2.71-1.57C16.63,20.38,16.22,17.31,16.28,16.25ZM5,10.71c-.28,0-.51-.34-.51-.78s.23-.78.51-.78.51.35.51.78S5.32,10.71,5,10.71Zm4.87,1.67c-1.08,0-2-1.19-2-2.66s.88-2.66,2-2.66,2,1.19,2,2.66S11,12.38,9.91,12.38Z"/><path class="cls-2" d="M9.91,9.15c-.28,0-.51.35-.51.78s.23.78.51.78.51-.34.51-.78S10.19,9.15,9.91,9.15Z"/></g></g></g></svg>