<svg xmlns="http://www.w3.org/2000/svg" viewBox="0 0 21.22 24"><g data-name="Layer 2"><path d="M.49 8a1.89 1.89 0 0 1 1.78-3.11 10.19 10.19 0 0 0 3.61.2c1.28-.24 2.19-1.83 2.83-3.79a1.89 1.89 0 0 1 3.59 0c.68 2.1 1.41 3.79 2 3.88a19.07 19.07 0 0 0 4.45-.8A1.89 1.89 0 0 1 20.6 7.5c-1.68 1.79-3 3.54-2.84 4.35s1.47 2.31 3 4a1.89 1.89 0 0 1-1.87 3.1c-2-.49-3.77-.79-4.6-.53s-1.67 2.12-2.33 4.28a1.9 1.9 0 0 1-3.63 0c-.6-1.9-1.29-3.58-2-4.2s-2.22-.48-4-.08a1.89 1.89 0 0 1-1.81-3.1c1.19-1.36 2.1-2.67 2.15-3.55S1.76 9.44.49 8z" data-name="FINISHED ICONS"/></g></svg>