<svg xmlns="http://www.w3.org/2000/svg" viewBox="0 0 16.41 24"><g data-name="Layer 2"><g data-name="FINISHED ICONS"><path d="M5 9.15c-.28 0-.51.35-.51.78s.23.78.51.78.51-.34.51-.78-.19-.78-.51-.78zm4.91-2.09c-1.08 0-2 1.19-2 2.66s.88 2.66 2 2.66 2-1.19 2-2.66-.91-2.66-2-2.66zm0 3.65c-.28 0-.51-.34-.51-.78s.23-.78.51-.78.51.35.51.78-.23.78-.51.78z" fill="none"/><path d="M16.28 16.25C16.51 12.15 16.86.08 7.9 0-2.3-.09.25 22.46.37 22.77a2.07 2.07 0 0 0 2.71 1c1.64-.69 2-1.42 2.68-1.3s.52 1.16 2.42 1.11 2.24-.73 2.88-.85c.23 0 2.47.17 2.47.17 1.51-.05 2.12-.06 2.71-1.57.39-.95-.02-4.02.04-5.08zM5 10.71c-.28 0-.51-.34-.51-.78s.23-.78.51-.78.51.35.51.78-.19.78-.51.78zm4.87 1.67c-1.08 0-2-1.19-2-2.66s.88-2.66 2-2.66 2 1.19 2 2.66-.87 2.66-1.96 2.66z"/><path d="M9.91 9.15c-.28 0-.51.35-.51.78s.23.78.51.78.51-.34.51-.78-.23-.78-.51-.78z" fill="#231f20"/></g></g></svg>