<svg xmlns="http://www.w3.org/2000/svg" viewBox="0 0 27.73 23.48"><g data-name="Layer 2"><path d="M9 10.88l2.17-3.41a.36.36 0 0 1 .31-.17h4.7a.37.37 0 0 1 .32.17l2.27 3.6a.37.37 0 0 1 0 .39l-2.29 4a.37.37 0 0 1-.32.18h-4.68a.38.38 0 0 1-.32-.18L9 11.66a.78.78 0 0 1 0-.78zm-4.3 3.29c.3.76-1.58 2.34-2.56 1.36a20.81 20.81 0 0 1-2-4 1.34 1.34 0 0 1 .11-1.3c.86-1.3 5.26-8.59 6.11-9.67a1.32 1.32 0 0 1 1-.5c2-.07 3.11-.07 4.12 0 .64 0 .77 2.83-.06 2.83H9.09A1.32 1.32 0 0 0 8 3.34c-.47.59-3.9 6.35-4.31 7-.24.35-.57 1.07-.34 1.42zm18.3 0c-.3.76 1.58 2.34 2.57 1.36a22.05 22.05 0 0 0 2-4 1.37 1.37 0 0 0-.12-1.3c-.88-1.32-5.28-8.61-6.13-9.69a1.32 1.32 0 0 0-1-.5c-2-.07-3.11-.07-4.12 0-.64 0-.77 2.83.06 2.83h2.34a1.32 1.32 0 0 1 1 .51c.47.59 3.9 6.35 4.32 7 .23.35.56 1.07.33 1.42zM7.27 18.43c-.47-.66-2.82.09-2.52 1.44a16.08 16.08 0 0 0 2.14 2.92 2.8 2.8 0 0 0 1.39.64c1.58 0 10.09.14 11.46 0a1.29 1.29 0 0 0 1-.58c1.12-1.63 1.72-2.59 2.24-3.46.34-.54-2-2.16-2.43-1.46s-.91 1.49-1.23 2a1.37 1.37 0 0 1-1 .61c-.75.08-7.49 0-8.2 0-.36 0-1.24.08-1.6-.43z" data-name="FINISHED ICONS"/></g></svg>