<svg width="491" height="624" xmlns="http://www.w3.org/2000/svg"><g fill="none" fill-rule="evenodd"><path fill="#231F20" d="M1.717 53.075h488.632V1.717H1.717z"/><path d="M1.717 88.616h93.007V53.075H1.717v35.541zm93.007 0h98.906V53.075H94.724v35.541zm98.906 0h98.906V53.075H193.63v35.541zm98.906 0h98.906V53.075h-98.906v35.541zm98.907 0h98.906V53.075h-98.906v35.541zM1.717 126.181h93.007V88.617H1.717v37.564zm0 37.564h93.007v-37.564H1.717v37.564zm0 38.114h93.007v-38.114H1.717v38.114zm0 37.563h93.007v-37.564H1.717v37.564zm0 37.564h93.007v-37.564H1.717v37.564zm0 37.564h93.007v-37.564H1.717v37.564zm0 41.211h93.007V314.55H1.717v41.211zm0 37.564h93.007v-37.564H1.717v37.564zm0 37.564h93.007v-37.564H1.717v37.564zm0 37.564h93.007v-37.564H1.717v37.564zm0 37.564h93.007v-37.564H1.717v37.564zm0 37.564h93.007v-37.564H1.717v37.564zm0 37.564h93.007v-37.564H1.717v37.564zm0 41.211h93.007v-41.211H1.717v41.211z" fill="#626366"/><path d="M94.724 126.181h98.906V88.617H94.724v37.564zm98.906 0h98.906V88.617H193.63v37.564zm98.906 0h98.906V88.617h-98.906v37.564zm98.907 0h98.906V88.617h-98.906v37.564zM94.724 201.859h98.906v-38.114H94.724v38.114zm98.906 0h98.906v-38.114H193.63v38.114zm98.906 0h98.906v-38.114h-98.906v38.114zm98.907 0h98.906v-38.114h-98.906v38.114zM94.724 276.986h98.906v-37.564H94.724v37.564zm98.906 0h98.906v-37.564H193.63v37.564zm98.906 0h98.906v-37.564h-98.906v37.564zm98.907 0h98.906v-37.564h-98.906v37.564zM94.724 355.761h98.906V314.55H94.724v41.211zm98.906 0h98.906V314.55H193.63v41.211zm98.906 0h98.906V314.55h-98.906v41.211zm98.907 0h98.906V314.55h-98.906v41.211zM94.724 430.889h98.906v-37.564H94.724v37.564zm98.906 0h98.906v-37.564H193.63v37.564zm98.906 0h98.906v-37.564h-98.906v37.564zm98.907 0h98.906v-37.564h-98.906v37.564zM94.724 506.017h98.906v-37.564H94.724v37.564zm98.906 0h98.906v-37.564H193.63v37.564zm98.906 0h98.906v-37.564h-98.906v37.564zm98.907 0h98.906v-37.564h-98.906v37.564zM94.724 581.145h98.906v-37.564H94.724v37.564zm98.906 0h98.906v-37.564H193.63v37.564zm98.906 0h98.906v-37.564h-98.906v37.564zm98.907 0h98.906v-37.564h-98.906v37.564z" fill="#FEFEFE"/><path d="M94.724 163.745h98.906v-37.564H94.724v37.564zm98.906 0h98.906v-37.564H193.63v37.564zm98.906 0h98.906v-37.564h-98.906v37.564zm98.907 0h98.906v-37.564h-98.906v37.564zM94.724 239.422h98.906v-37.564H94.724v37.564zm98.906 0h98.906v-37.564H193.63v37.564zm98.906 0h98.906v-37.564h-98.906v37.564zm98.907 0h98.906v-37.564h-98.906v37.564zM94.724 314.55h98.906v-37.564H94.724v37.564zm98.906 0h98.906v-37.564H193.63v37.564zm98.906 0h98.906v-37.564h-98.906v37.564zm98.907 0h98.906v-37.564h-98.906v37.564zM94.724 393.325h98.906v-37.564H94.724v37.564zm98.906 0h98.906v-37.564H193.63v37.564zm98.906 0h98.906v-37.564h-98.906v37.564zm98.907 0h98.906v-37.564h-98.906v37.564zM94.724 468.453h98.906v-37.564H94.724v37.564zm98.906 0h98.906v-37.564H193.63v37.564zm98.906 0h98.906v-37.564h-98.906v37.564zm98.907 0h98.906v-37.564h-98.906v37.564zM94.724 543.581h98.906v-37.564H94.724v37.564zm98.906 0h98.906v-37.564H193.63v37.564zm98.906 0h98.906v-37.564h-98.906v37.564zm98.907 0h98.906v-37.564h-98.906v37.564zM94.724 622.356h98.906v-41.211H94.724v41.211zm98.906 0h98.906v-41.211H193.63v41.211zm98.906 0h98.906v-41.211h-98.906v41.211zm98.907 0h98.906v-41.211h-98.906v41.211z" fill="#F0F0F1"/><text font-family="MrEavesModOT-Bold, Mr Eaves Mod OT" font-size="20.227" font-weight="bold" letter-spacing="-.04" fill="#FEFEFE" transform="translate(1 1)"><tspan x="45.348" y="25.259">f</tspan> <tspan x="51.153" y="25.259" letter-spacing="-.004">e</tspan> <tspan x="59.746" y="25.259" letter-spacing="-.081">a</tspan> <tspan x="69.576" y="25.259" letter-spacing="-.166">t</tspan> <tspan x="75.519" y="25.259" letter-spacing="-.004">u</tspan> <tspan x="85.284" y="25.259" letter-spacing=".04">r</tspan> <tspan x="91.555" y="25.259" letter-spacing=".077">e</tspan> <tspan x="100.228" y="25.259" letter-spacing="-.004"> an</tspan> <tspan x="123.396" y="25.259" letter-spacing="-.016">a</tspan> <tspan x="133.291" y="25.259" letter-spacing=".04">l</tspan> <tspan x="137.983" y="25.259" letter-spacing="-.03">y</tspan> <tspan x="146.226" y="25.259" letter-spacing=".032">s</tspan> <tspan x="153.419" y="25.259" letter-spacing=".063">i</tspan> <tspan x="158.134" y="25.259" letter-spacing=".077">s</tspan> <tspan x="165.371" y="25.259" letter-spacing="-.004"> </tspan> <tspan x="168.866" y="25.259" letter-spacing=".032">b</tspan> <tspan x="178.809" y="25.259" letter-spacing="-.135">e</tspan> <tspan x="187.27" y="25.259" letter-spacing=".318">t</tspan> <tspan x="193.697" y="25.259" letter-spacing="-.226">w</tspan> <tspan x="205.95" y="25.259" letter-spacing="-.034">e</tspan> <tspan x="214.512" y="25.259" letter-spacing="-.004">e</tspan> <tspan x="223.104" y="25.259" letter-spacing=".077">n</tspan> <tspan x="232.951" y="25.259" letter-spacing="-.004"> </tspan> <tspan x="236.446" y="25.259" letter-spacing=".136">c</tspan> <tspan x="244.45" y="25.259" letter-spacing="-.073">r</tspan> <tspan x="250.708" y="25.259" letter-spacing="-.004">u</tspan> <tspan x="260.474" y="25.259" letter-spacing="-.036">n</tspan> <tspan x="270.207" y="25.259" letter-spacing=".136">c</tspan> <tspan x="278.211" y="25.259" letter-spacing="-.224">h</tspan> <tspan x="287.452" y="25.259" letter-spacing=".051">y</tspan> <tspan x="295.776" y="25.259" letter-spacing=".071">r</tspan> <tspan x="302.076" y="25.259" letter-spacing=".024">o</tspan> <tspan x="311.648" y="25.259" letter-spacing="-.044">l</tspan> <tspan x="316.255" y="25.259" letter-spacing=".077">l</tspan> <tspan x="320.984" y="25.259" letter-spacing="-.004"> an</tspan> <tspan x="344.152" y="25.259" letter-spacing=".077">d</tspan> <tspan x="354.14" y="25.259" letter-spacing="-.004"> </tspan> <tspan x="357.636" y="25.259" letter-spacing=".063">c</tspan> <tspan x="365.567" y="25.259" letter-spacing="-.004">om</tspan> <tspan x="389.467" y="25.259" letter-spacing=".032">p</tspan> <tspan x="399.41" y="25.259" letter-spacing="-.133">e</tspan> <tspan x="407.873" y="25.259" letter-spacing="-.101">t</tspan> <tspan x="413.881" y="25.259" letter-spacing="-.075">i</tspan> <tspan x="418.458" y="25.259" letter-spacing="-.156">t</tspan> <tspan x="424.411" y="25.259" letter-spacing="-.004">o</tspan> <tspan x="433.954" y="25.259" letter-spacing=".069">r</tspan> <tspan x="440.354" y="25.259" letter-spacing="-.004">s</tspan></text><text font-family="MrEavesModOT-Reg, Mr Eaves Mod OT" font-size="17.337" letter-spacing="-.006" fill="#FEFEFE" transform="translate(1 1)"><tspan x="109.126" y="71.063">c</tspan> <tspan x="115.778" y="71.063" letter-spacing="-.034">r</tspan> <tspan x="120.789" y="71.063" letter-spacing=".027">u</tspan> <tspan x="128.826" y="71.063">nc</tspan> <tspan x="143.481" y="71.063" letter-spacing="-.157">h</tspan> <tspan x="151.074" y="71.063" letter-spacing=".096">y</tspan> <tspan x="157.811" y="71.063" letter-spacing="-.077">r</tspan> <tspan x="162.605" y="71.063" letter-spacing=".067">o</tspan> <tspan x="170.855" y="71.063">ll</tspan></text><text font-family="MrEavesModOT-Reg, Mr Eaves Mod OT" font-size="17.337" fill="#FEFEFE" transform="translate(1 1)"><tspan x="207.758" y="71.063">funimation</tspan></text><text font-family="MrEavesModOT-Reg, Mr Eaves Mod OT" font-size="17.337" fill="#FEFEFE" transform="translate(1 1)"><tspan x="310.534" y="71.063">kissanime</tspan></text><text font-family="MrEavesModOT-Reg, Mr Eaves Mod OT" font-size="17.337" fill="#FEFEFE" transform="translate(1 1)"><tspan x="420.66" y="71.063">netlix</tspan></text><text font-family="MrEavesModOT-Reg, Mr Eaves Mod OT" font-size="17.337" fill="#FEFEFE" transform="translate(1 1)"><tspan x="46.192" y="106.604">anime</tspan></text><text font-family="HWTArtz, HWT Artz" font-size="14.448" font-style="condensed" font-weight="bold" fill="#133339" transform="translate(1 1)"><tspan x="141.465" y="109.73">•</tspan></text><text font-family="HWTArtz, HWT Artz" font-size="14.448" font-style="condensed" font-weight="bold" fill="#133339" transform="translate(1 1)"><tspan x="240.374" y="109.73">•</tspan></text><text font-family="HWTArtz, HWT Artz" font-size="14.448" font-style="condensed" font-weight="bold" fill="#133339" transform="translate(1 1)"><tspan x="339.283" y="109.73">•</tspan></text><text font-family="HWTArtz, HWT Artz" font-size="14.448" font-style="condensed" font-weight="bold" fill="#133339" transform="translate(1 1)"><tspan x="438.192" y="109.73">•</tspan></text><text font-family="MrEavesModOT-Reg, Mr Eaves Mod OT" font-size="17.337" fill="#FEFEFE" transform="translate(1 1)"><tspan x="40.395" y="144.168">manga</tspan></text><text font-family="HWTArtz, HWT Artz" font-size="14.448" font-style="condensed" font-weight="bold" fill="#133339" transform="translate(1 1)"><tspan x="141.465" y="147.294">•</tspan></text><text font-family="MrEavesModOT-Reg, Mr Eaves Mod OT" font-size="17.337" letter-spacing="-.173" fill="#FEFEFE" transform="translate(1 1)"><tspan x="35.559" y="181.732">r</tspan> <tspan x="40.257" y="181.732">andom</tspan></text><text font-family="HWTArtz, HWT Artz" font-size="14.448" font-style="condensed" font-weight="bold" fill="#133339" transform="translate(1 1)"><tspan x="141.465" y="184.858">•</tspan></text><text font-family="HWTArtz, HWT Artz" font-size="14.448" font-style="condensed" font-weight="bold" fill="#133339" transform="translate(1 1)"><tspan x="339.283" y="184.858">•</tspan></text><text font-family="MrEavesModOT-Reg, Mr Eaves Mod OT" font-size="17.337" fill="#FEFEFE" transform="translate(1 1)"><tspan x="56.987" y="219.846">blog</tspan></text><text font-family="HWTArtz, HWT Artz" font-size="14.448" font-style="condensed" font-weight="bold" fill="#133339" transform="translate(1 1)"><tspan x="141.465" y="222.972">•</tspan></text><text font-family="HWTArtz, HWT Artz" font-size="14.448" font-style="condensed" font-weight="bold" fill="#133339" transform="translate(1 1)"><tspan x="240.374" y="222.972">•</tspan></text><text font-family="MrEavesModOT-Reg, Mr Eaves Mod OT" font-size="17.337" fill="#FEFEFE" transform="translate(1 1)"><tspan x="44.157" y="257.41">guides</tspan></text><text font-family="HWTArtz, HWT Artz" font-size="14.448" font-style="condensed" font-weight="bold" fill="#133339" transform="translate(1 1)"><tspan x="240.371" y="260.536">•</tspan></text><text font-family="MrEavesModOT-Reg, Mr Eaves Mod OT" font-size="17.337" fill="#FEFEFE" transform="translate(1 1)"><tspan x="32.23" y="294.974">t</tspan> <tspan x="37.084" y="294.974" letter-spacing="-.173">r</tspan> <tspan x="41.783" y="294.974">ending</tspan></text><text font-family="HWTArtz, HWT Artz" font-size="14.448" font-style="condensed" font-weight="bold" fill="#133339" transform="translate(1 1)"><tspan x="240.371" y="298.1">•</tspan></text><text font-family="HWTArtz, HWT Artz" font-size="14.448" font-style="condensed" font-weight="bold" fill="#133339" transform="translate(1 1)"><tspan x="339.28" y="298.1">•</tspan></text><text font-family="HWTArtz, HWT Artz" font-size="14.448" font-style="condensed" font-weight="bold" fill="#133339" transform="translate(1 1)"><tspan x="438.189" y="298.1">•</tspan></text><text font-family="MrEavesModOT-Reg, Mr Eaves Mod OT" font-size="17.337" fill="#FEFEFE" transform="translate(1 1)"><tspan x="30.514" y="332.538">schedule</tspan></text><text font-family="HWTArtz, HWT Artz" font-size="14.448" font-style="condensed" font-weight="bold" fill="#133339" transform="translate(1 1)"><tspan x="141.465" y="335.664">•</tspan></text><text font-family="HWTArtz, HWT Artz" font-size="14.448" font-style="condensed" font-weight="bold" fill="#133339" transform="translate(1 1)"><tspan x="240.374" y="335.664">•</tspan></text><text font-family="MrEavesModOT-Reg, Mr Eaves Mod OT" font-size="17.337" fill="#FEFEFE" transform="translate(1 1)"><tspan x="42.667" y="373.749">moods</tspan></text><text font-family="HWTArtz, HWT Artz" font-size="14.448" font-style="condensed" font-weight="bold" fill="#133339" transform="translate(1 1)"><tspan x="240.371" y="376.874">•</tspan></text><text font-family="MrEavesModOT-Reg, Mr Eaves Mod OT" font-size="17.337" fill="#FEFEFE" transform="translate(1 1)"><tspan x="43.62" y="411.313">games</tspan></text><text font-family="HWTArtz, HWT Artz" font-size="14.448" font-style="condensed" font-weight="bold" fill="#133339" transform="translate(1 1)"><tspan x="240.371" y="414.438">•</tspan></text><text font-family="MrEavesModOT-Reg, Mr Eaves Mod OT" font-size="17.337" fill="#FEFEFE" transform="translate(1 1)"><tspan x="53.641" y="448.876">n</tspan> <tspan x="61.651" y="448.876" letter-spacing="-.173">e</tspan> <tspan x="68.499" y="448.876">ws</tspan></text><text font-family="HWTArtz, HWT Artz" font-size="14.448" font-style="condensed" font-weight="bold" fill="#133339" transform="translate(1 1)"><tspan x="141.465" y="452.002">•</tspan></text><text font-family="HWTArtz, HWT Artz" font-size="14.448" font-style="condensed" font-weight="bold" fill="#133339" transform="translate(1 1)"><tspan x="339.283" y="452.002">•</tspan></text><text font-family="MrEavesModOT-Reg, Mr Eaves Mod OT" font-size="17.337" fill="#FEFEFE" transform="translate(1 1)"><tspan x="47.348" y="486.44">forum</tspan></text><text font-family="HWTArtz, HWT Artz" font-size="14.448" font-style="condensed" font-weight="bold" fill="#133339" transform="translate(1 1)"><tspan x="141.465" y="489.566">•</tspan></text><text font-family="HWTArtz, HWT Artz" font-size="14.448" font-style="condensed" font-weight="bold" fill="#133339" transform="translate(1 1)"><tspan x="240.374" y="489.566">•</tspan></text><text font-family="MrEavesModOT-Reg, Mr Eaves Mod OT" font-size="17.337" letter-spacing="-.01" fill="#FEFEFE" transform="translate(1 1)"><tspan x="51.508" y="524.004">ev</tspan> <tspan x="64.977" y="524.004" letter-spacing=".163">en</tspan> <tspan x="80.508" y="524.004">t</tspan></text><text font-family="HWTArtz, HWT Artz" font-size="14.448" font-style="condensed" font-weight="bold" fill="#133339" transform="translate(1 1)"><tspan x="240.371" y="527.13">•</tspan></text><text font-family="MrEavesModOT-Reg, Mr Eaves Mod OT" font-size="17.337" fill="#FEFEFE" transform="translate(1 1)"><tspan x="54.144" y="561.568">sto</tspan> <tspan x="72.99" y="561.568" letter-spacing="-.173">r</tspan> <tspan x="77.688" y="561.568">e</tspan></text><text font-family="HWTArtz, HWT Artz" font-size="14.448" font-style="condensed" font-weight="bold" fill="#133339" transform="translate(1 1)"><tspan x="141.465" y="564.694">•</tspan></text><text font-family="HWTArtz, HWT Artz" font-size="14.448" font-style="condensed" font-weight="bold" fill="#133339" transform="translate(1 1)"><tspan x="240.374" y="564.694">•</tspan></text><text font-family="MrEavesModOT-Reg, Mr Eaves Mod OT" font-size="17.337" fill="#FEFEFE" transform="translate(1 1)"><tspan x="46.429" y="599.132">queue</tspan></text><text font-family="HWTArtz, HWT Artz" font-size="14.448" font-style="condensed" font-weight="bold" fill="#133339" transform="translate(1 1)"><tspan x="141.465" y="602.258">•</tspan></text><text font-family="HWTArtz, HWT Artz" font-size="14.448" font-style="condensed" font-weight="bold" fill="#133339" transform="translate(1 1)"><tspan x="240.374" y="602.258">•</tspan></text><text font-family="HWTArtz, HWT Artz" font-size="14.448" font-style="condensed" font-weight="bold" fill="#133339" transform="translate(1 1)"><tspan x="339.283" y="602.258">•</tspan></text><text font-family="HWTArtz, HWT Artz" font-size="14.448" font-style="condensed" font-weight="bold" fill="#133339" transform="translate(1 1)"><tspan x="438.192" y="602.258">•</tspan></text><path stroke="#231F20" stroke-width=".717" d="M1.358 623.222h488.983V1.358H1.358z"/></g></svg>