<?xml version="1.0" encoding="UTF-8"?>
<svg width="378px" height="619px" viewBox="0 0 378 619" version="1.1" xmlns="http://www.w3.org/2000/svg" xmlns:xlink="http://www.w3.org/1999/xlink">
    <!-- Generator: Sketch 54.1 (76490) - https://sketchapp.com -->
    <title>cr-survey-results</title>
    <desc>Created with Sketch.</desc>
    <defs>
        <polygon id="path-1" points="0 629 401.691 629 401.691 0.827 0 0.827"></polygon>
        <polygon id="path-3" points="0 629 401.691 629 401.691 0.827 0 0.827"></polygon>
        <polygon id="path-5" points="0 629 401.691 629 401.691 0.827 0 0.827"></polygon>
    </defs>
    <g id="Desktop" stroke="none" stroke-width="1" fill="none" fill-rule="evenodd">
        <g id="cr-survey-results" transform="translate(-10.000000, -1.000000)">
            <text id="Age" font-family="MrEavesModOT-Bold, Mr Eaves Mod OT" font-size="18" font-weight="bold" letter-spacing="-0.015" fill="#133339">
                <tspan x="49.9236" y="143.29486">A</tspan>
                <tspan x="61.1046" y="143.29486" letter-spacing="0.0264">g</tspan>
                <tspan x="69.969" y="143.29486">e</tspan>
            </text>
            <text id="--" font-family="MrEavesModOT-Bold, Mr Eaves Mod OT" font-size="12" font-weight="bold"></text>
            <text id="18-29-years-old" font-family="MrEavesModOT-Reg, Mr Eaves Mod OT" font-size="18" font-weight="normal" letter-spacing="-0.3196" fill="#133339">
                <tspan x="16.5905" y="161.29486">1</tspan>
                <tspan x="21.1669" y="161.29486" letter-spacing="-0.01">8</tspan>
                <tspan x="30.7509" y="161.29486" letter-spacing="-0.5608">-</tspan>
                <tspan x="35.4101" y="161.29486" letter-spacing="-0.2872">2</tspan>
                <tspan x="43.2769" y="161.29486" letter-spacing="-0.01">9 </tspan>
                <tspan x="55.5689" y="161.29486" letter-spacing="-0.2422">y</tspan>
                <tspan x="62.0407" y="161.29486" letter-spacing="-0.1342">e</tspan>
                <tspan x="69.3765" y="161.29486" letter-spacing="-0.0874">a</tspan>
                <tspan x="77.8211" y="161.29486" letter-spacing="-0.0334">r</tspan>
                <tspan x="83.0257" y="161.29486" letter-spacing="-0.01">s </tspan>
                <tspan x="92.1497" y="161.29486" letter-spacing="-0.046">o</tspan>
                <tspan x="100.5997" y="161.29486" letter-spacing="-0.073">l</tspan>
                <tspan x="104.1087" y="161.29486" letter-spacing="-0.01">d</tspan>
            </text>
            <text id="Watch-anime?--" font-family="MrEavesModOT-Bold, Mr Eaves Mod OT" font-size="18" font-weight="bold" letter-spacing="-0.725" fill="#133339">
                <tspan x="285.3845" y="372.59686">W</tspan>
                <tspan x="299.0415" y="372.59686" letter-spacing="-0.0752">a</tspan>
                <tspan x="307.7863" y="372.59686" letter-spacing="-0.1742">t</tspan>
                <tspan x="313.0481" y="372.59686" letter-spacing="0.1192">c</tspan>
                <tspan x="320.1693" y="372.59686" letter-spacing="0.058">h</tspan>
                <tspan x="328.9213" y="372.59686" letter-spacing="1.012"> </tspan>
                <tspan x="333.0473" y="372.59686" letter-spacing="-0.014">an</tspan>
                <tspan x="350.5333" y="372.59686" letter-spacing="-0.032">i</tspan>
                <tspan x="354.6413" y="372.59686" letter-spacing="-0.014">m</tspan>
                <tspan x="367.4073" y="372.59686" letter-spacing="-0.4946">e</tspan>
                <tspan x="374.5627" y="372.59686" letter-spacing="0.238">?</tspan>
                <tspan x="382.7927" y="372.59686" letter-spacing="-0.014">  </tspan>
            </text>
            <text id="Yes" font-family="MrEavesModOT-Reg, Mr Eaves Mod OT" font-size="18" font-weight="normal" letter-spacing="-0.094" fill="#133339">
                <tspan x="322.0325" y="390.59686">Y</tspan>
                <tspan x="329.8225" y="390.59686" letter-spacing="1.3226">e</tspan>
                <tspan x="338.6151" y="390.59686">s</tspan>
            </text>
            <g id="Group-6" transform="translate(35.000000, 585.173000)" fill="#133339" font-size="18">
                <text id="ece?" font-family="MrEavesModOT-Bold, Mr Eaves Mod OT" font-weight="bold" letter-spacing="-0.2738">
                    <tspan x="0.3707" y="15.1598595">e</tspan>
                    <tspan x="7.7469" y="15.1598595" letter-spacing="-0.0344">c</tspan>
                    <tspan x="14.7145" y="15.1598595" letter-spacing="-0.5636">e</tspan>
                    <tspan x="21.8009" y="15.1598595" letter-spacing="-0.011">?</tspan>
                </text>
                <g id="Group-3" transform="translate(132.000000, 0.000000)">
                    <text id="atorm?" font-family="MrEavesModOT-Bold, Mr Eaves Mod OT" font-weight="bold" letter-spacing="-0.017">
                        <tspan x="0.1381" y="15.1598595">a</tspan>
                        <tspan x="8.9411" y="15.1598595" letter-spacing="0.3322">t</tspan>
                        <tspan x="14.7093" y="15.1598595" letter-spacing="0.055">o</tspan>
                        <tspan x="23.2603" y="15.1598595">r</tspan>
                        <tspan x="28.8773" y="15.1598595" letter-spacing="-0.3446">m</tspan>
                        <tspan x="41.3127" y="15.1598595">?</tspan>
                    </text>
                    <text id="et" font-family="MrEavesModOT-Reg, Mr Eaves Mod OT" font-weight="normal" letter-spacing="-0.033">
                        <tspan x="15.0583" y="33.1598595">e</tspan>
                        <tspan x="22.4953" y="33.1598595" letter-spacing="0.804">t</tspan>
                    </text>
                </g>
                <g id="Group-5" transform="translate(267.000000, 0.000000)">
                    <text id="eature?" font-family="MrEavesModOT-Bold, Mr Eaves Mod OT" font-weight="bold" letter-spacing="-0.0506">
                        <tspan x="0.3698" y="15.1598595">e</tspan>
                        <tspan x="7.9692" y="15.1598595" letter-spacing="-0.1262">a</tspan>
                        <tspan x="16.663" y="15.1598595" letter-spacing="-0.1982">t</tspan>
                        <tspan x="21.9008" y="15.1598595" letter-spacing="-0.0614">u</tspan>
                        <tspan x="30.5334" y="15.1598595" letter-spacing="-0.011">r</tspan>
                        <tspan x="36.0664" y="15.1598595" letter-spacing="-0.5636">e</tspan>
                        <tspan x="43.1528" y="15.1598595" letter-spacing="-0.011">?</tspan>
                    </text>
                    <text id="--" font-family="MrEavesModOT-Reg, Mr Eaves Mod OT" font-weight="normal" letter-spacing="-0.018">
                        <tspan x="26.6948" y="33.1598595">--</tspan>
                    </text>
                </g>
            </g>
            <text id="Gender" font-family="MrEavesModOT-Bold, Mr Eaves Mod OT" font-size="18" font-weight="bold" letter-spacing="0.0886" fill="#133339">
                <tspan x="173.8288" y="143.29486">G</tspan>
                <tspan x="185.9414" y="143.29486" letter-spacing="-0.014">e</tspan>
                <tspan x="193.5774" y="143.29486" letter-spacing="0.004">n</tspan>
                <tspan x="202.2754" y="143.29486" letter-spacing="0.0184">d</tspan>
                <tspan x="211.1138" y="143.29486" letter-spacing="-0.014">er</tspan>
            </text>
            <text id="Female" font-family="MrEavesModOT-Reg, Mr Eaves Mod OT" font-size="18" font-weight="normal" letter-spacing="-0.4344" fill="#133339">
                <tspan x="175.6108" y="161.29486">F</tspan>
                <tspan x="182.3584" y="161.29486" letter-spacing="-0.024">e</tspan>
                <tspan x="189.8044" y="161.29486" letter-spacing="0.0102">m</tspan>
                <tspan x="202.2706" y="161.29486" letter-spacing="-0.015">a</tspan>
                <tspan x="210.7876" y="161.29486" letter-spacing="0.03">l</tspan>
                <tspan x="214.3996" y="161.29486" letter-spacing="-0.015">e</tspan>
            </text>
            <text id="Occupation" font-family="MrEavesModOT-Bold, Mr Eaves Mod OT" font-size="18" font-weight="bold" letter-spacing="-0.014" fill="#133339">
                <tspan x="294.4468" y="143.29486">O</tspan>
                <tspan x="307.5008" y="143.29486" letter-spacing="0.0076">c</tspan>
                <tspan x="314.5104" y="143.29486" letter-spacing="0.0634">c</tspan>
                <tspan x="321.5758" y="143.29486">u</tspan>
                <tspan x="330.2558" y="143.29486" letter-spacing="0.0256">p</tspan>
                <tspan x="339.1014" y="143.29486" letter-spacing="-0.0752">a</tspan>
                <tspan x="347.8462" y="143.29486" letter-spacing="-0.0932">t</tspan>
                <tspan x="353.189" y="143.29486" letter-spacing="0.0274">i</tspan>
                <tspan x="357.3564" y="143.29486" letter-spacing="0.004">o</tspan>
                <tspan x="365.8564" y="143.29486">n</tspan>
            </text>
            <text id="Student" font-family="MrEavesModOT-Reg, Mr Eaves Mod OT" font-size="18" font-weight="normal" letter-spacing="0.0386" fill="#133339">
                <tspan x="308.8288" y="161.29486">S</tspan>
                <tspan x="317.4534" y="161.29486" letter-spacing="0.0638">t</tspan>
                <tspan x="322.5572" y="161.29486" letter-spacing="0.2366">u</tspan>
                <tspan x="331.1098" y="161.29486" letter-spacing="0.2546">d</tspan>
                <tspan x="339.8964" y="161.29486" letter-spacing="0.197">e</tspan>
                <tspan x="347.5634" y="161.29486" letter-spacing="-0.028">nt</tspan>
            </text>
            <text id="Location" font-family="MrEavesModOT-Bold, Mr Eaves Mod OT" font-size="18" font-weight="bold" letter-spacing="0.1176" fill="#133339">
                <tspan x="35.8408" y="372.61486">L</tspan>
                <tspan x="44.4004" y="372.61486" letter-spacing="-0.012">o</tspan>
                <tspan x="52.8844" y="372.61486" letter-spacing="0.015">c</tspan>
                <tspan x="59.9014" y="372.61486" letter-spacing="-0.1092">a</tspan>
                <tspan x="68.6122" y="372.61486" letter-spacing="-0.1272">t</tspan>
                <tspan x="73.921" y="372.61486" letter-spacing="-0.012">i</tspan>
                <tspan x="78.049" y="372.61486" letter-spacing="-0.03">o</tspan>
                <tspan x="86.515" y="372.61486" letter-spacing="-0.012">n</tspan>
            </text>
            <text id="CA/US" font-family="MrEavesModOT-Reg, Mr Eaves Mod OT" font-size="18" font-weight="normal" letter-spacing="0.2284" fill="#133339">
                <tspan x="40.9888" y="390.61486">C</tspan>
                <tspan x="52.1972" y="390.61486" letter-spacing="0.7288">A</tspan>
                <tspan x="63.51" y="390.61486" letter-spacing="0.1924">/</tspan>
                <tspan x="69.6424" y="390.61486" letter-spacing="-0.02">US</tspan>
            </text>
            <text id="Education" font-family="MrEavesModOT-Bold, Mr Eaves Mod OT" font-size="18" font-weight="bold" letter-spacing="-0.1832" fill="#133339">
                <tspan x="171.1828" y="372.61486">E</tspan>
                <tspan x="179.7296" y="372.61486" letter-spacing="-0.014">du</tspan>
                <tspan x="197.2156" y="372.61486" letter-spacing="0.0508">c</tspan>
                <tspan x="204.2684" y="372.61486" letter-spacing="-0.0752">a</tspan>
                <tspan x="213.0132" y="372.61486" letter-spacing="-0.0932">t</tspan>
                <tspan x="218.356" y="372.61486" letter-spacing="0.0274">i</tspan>
                <tspan x="222.5234" y="372.61486" letter-spacing="0.004">o</tspan>
                <tspan x="231.0234" y="372.61486" letter-spacing="-0.014">n</tspan>
            </text>
            <text id="Masters" font-family="MrEavesModOT-Reg, Mr Eaves Mod OT" font-size="18" font-weight="normal" letter-spacing="0.2952" fill="#133339">
                <tspan x="179.6068" y="390.61486">M</tspan>
                <tspan x="193.438" y="390.61486" letter-spacing="0.2124">a</tspan>
                <tspan x="202.1824" y="390.61486" letter-spacing="0.1188">s</tspan>
                <tspan x="208.3312" y="390.61486" letter-spacing="-0.027">t</tspan>
                <tspan x="213.3442" y="390.61486" letter-spacing="0.1782">e</tspan>
                <tspan x="220.9924" y="390.61486" letter-spacing="0.2556">r</tspan>
                <tspan x="226.486" y="390.61486" letter-spacing="-0.027">s</tspan>
            </text>
            <g id="Group-15" transform="translate(280.000000, 2.173000)">
                <path d="M53.1307,105.2373 C82.1737,105.2373 105.7177,81.6933 105.7177,52.6503 C105.7177,23.6073 82.1737,0.0633 53.1307,0.0633 C24.0877,0.0633 0.5437,23.6073 0.5437,52.6503 C0.5437,81.6933 24.0877,105.2373 53.1307,105.2373" id="Fill-7" fill="#FEFEFE"></path>
                <path d="M53.1307,105.2373 C82.1737,105.2373 105.7177,81.6933 105.7177,52.6503 C105.7177,23.6073 82.1737,0.0633 53.1307,0.0633 C24.0877,0.0633 0.5437,23.6073 0.5437,52.6503 C0.5437,81.6933 24.0877,105.2373 53.1307,105.2373 Z" id="Stroke-9" stroke="#133339" stroke-width="1.238" stroke-linecap="round" stroke-linejoin="round"></path>
                <path d="M105.7178,52.6133 C105.7178,23.7503 82.4618,0.3283 53.6668,0.0393 L53.6668,105.1863 C82.4618,104.8983 105.7178,81.4763 105.7178,52.6133" id="Fill-11" fill="#F9F8F8"></path>
                <path d="M105.7178,52.6133 C105.7178,23.7503 82.4618,0.3283 53.6668,0.0393 L53.6668,105.1863 C82.4618,104.8983 105.7178,81.4763 105.7178,52.6133 Z" id="Stroke-13" stroke="#133339" stroke-width="1.238" stroke-linecap="round" stroke-linejoin="round"></path>
            </g>
            <text id="50%" font-family="MrEavesModOT-Bold, Mr Eaves Mod OT" font-size="12.3766" font-weight="bold" letter-spacing="0.12709324" fill="#133339">
                <tspan x="295.0875" y="54.6688462">5</tspan>
                <tspan x="301.279127" y="54.6688462" letter-spacing="-0.014">0%</tspan>
            </text>
            <g id="Group-28" transform="translate(10.000000, 229.173000)">
                <path d="M54.1683,107.5425 C83.7363,107.5425 107.7063,83.5725 107.7063,54.0035 C107.7063,24.4355 83.7363,0.4655 54.1683,0.4655 C24.6003,0.4655 0.6303,24.4355 0.6303,54.0035 C0.6303,83.5725 24.6003,107.5425 54.1683,107.5425" id="Fill-16" fill="#F9F8F8"></path>
                <path d="M54.1683,107.5425 C83.7363,107.5425 107.7063,83.5725 107.7063,54.0035 C107.7063,24.4355 83.7363,0.4655 54.1683,0.4655 C24.6003,0.4655 0.6303,24.4355 0.6303,54.0035 C0.6303,83.5725 24.6003,107.5425 54.1683,107.5425 Z" id="Stroke-18" stroke="#133339" stroke-width="1.26" stroke-linecap="round" stroke-linejoin="round"></path>
                <path d="M107.7065,53.9658 C107.7065,24.5808 84.0295,0.7358 54.7145,0.4418 L54.7145,54.5128 L81.6265,99.9128 C97.2445,90.5638 107.7065,73.4928 107.7065,53.9658" id="Fill-20" fill="#FEFEFE"></path>
                <path d="M107.7065,53.9658 C107.7065,24.5808 84.0295,0.7358 54.7145,0.4418 L54.7145,54.5128 L81.6265,99.9128 C97.2445,90.5638 107.7065,73.4928 107.7065,53.9658 Z" id="Stroke-22" stroke="#133339" stroke-width="1.26" stroke-linecap="round" stroke-linejoin="round"></path>
                <path d="M29.0354,101.2195 C3.0894,87.4245 -6.8486,55.3245 6.6544,29.3025 L54.3964,54.6865 L81.8474,99.7635 C66.2614,109.1635 46.2764,110.3865 29.0354,101.2195" id="Fill-24" fill="#FEFEFE"></path>
                <path d="M29.0354,101.2195 C3.0894,87.4245 -6.8486,55.3245 6.6544,29.3025 L54.3964,54.6865 L81.8474,99.7635 C66.2614,109.1635 46.2764,110.3865 29.0354,101.2195 Z" id="Stroke-26" stroke="#133339" stroke-width="1.26" stroke-linecap="round" stroke-linejoin="round"></path>
            </g>
            <text id="39%" font-family="MrEavesModOT-Bold, Mr Eaves Mod OT" font-size="12.6004" font-weight="bold" letter-spacing="0.04874196" fill="#133339">
                <tspan x="28.4027" y="293.613928">3</tspan>
                <tspan x="34.68864" y="293.613928" letter-spacing="-0.013">9%</tspan>
            </text>
            <text id="39%" font-family="MrEavesModOT-Bold, Mr Eaves Mod OT" font-size="12.6004" font-weight="bold" letter-spacing="0.04874196" fill="#133339">
                <tspan x="85.6337168" y="276.36398">3</tspan>
                <tspan x="91.9196568" y="276.36398" letter-spacing="-0.013">9%</tspan>
            </text>
            <path d="M64.0841,283.1769 L50.3491,232.3389" id="Stroke-29" stroke="#133339" stroke-width="1.26" stroke-linecap="round" stroke-linejoin="round"></path>
            <g id="Group-42" transform="translate(151.000000, 230.173000)">
                <path d="M53.672,106.5498 C82.883,106.5498 106.564,82.8688 106.564,53.6578 C106.564,24.4458 82.883,0.7658 53.672,0.7658 C24.461,0.7658 0.78,24.4458 0.78,53.6578 C0.78,82.8688 24.461,106.5498 53.672,106.5498" id="Fill-30" fill="#F7F7F7"></path>
                <path d="M53.672,106.5498 C82.883,106.5498 106.564,82.8688 106.564,53.6578 C106.564,24.4458 82.883,0.7658 53.672,0.7658 C24.461,0.7658 0.78,24.4458 0.78,53.6578 C0.78,82.8688 24.461,106.5498 53.672,106.5498 Z" id="Stroke-32" stroke="#133339" stroke-width="1.245" stroke-linecap="round" stroke-linejoin="round"></path>
                <path d="M106.5638,53.6206 C106.5638,24.5906 83.1728,1.0336 54.2108,0.7426 L54.2108,54.3096 L91.1808,90.9026 C100.6878,81.3426 106.5638,68.1696 106.5638,53.6206" id="Fill-34" fill="#FEFEFE"></path>
                <path d="M106.5638,53.6206 C106.5638,24.5906 83.1728,1.0336 54.2108,0.7426 L54.2108,54.3096 L91.1808,90.9026 C100.6878,81.3426 106.5638,68.1696 106.5638,53.6206 Z" id="Stroke-36" stroke="#133339" stroke-width="1.245" stroke-linecap="round" stroke-linejoin="round"></path>
                <path d="M53.6577,106.5497 C24.6277,106.5497 1.0707,83.1587 0.7797,54.1967 L54.3467,54.1967 L90.9397,91.1667 C81.3797,100.6737 68.2067,106.5497 53.6577,106.5497" id="Fill-38" fill="#FEFEFE"></path>
                <path d="M53.6577,106.5497 C24.6277,106.5497 1.0707,83.1587 0.7797,54.1967 L54.3467,54.1967 L90.9397,91.1667 C81.3797,100.6737 68.2067,106.5497 53.6577,106.5497 Z" id="Stroke-40" stroke="#133339" stroke-width="1.245" stroke-linecap="round" stroke-linejoin="round"></path>
            </g>
            <text id="33%" font-family="MrEavesModOT-Bold, Mr Eaves Mod OT" font-size="12.4483" font-weight="bold" letter-spacing="0.12068647" fill="#133339">
                <tspan x="182.0283" y="308.761359">3</tspan>
                <tspan x="188.310895" y="308.761359" letter-spacing="-0.015">3%</tspan>
            </text>
            <text id="33%" font-family="MrEavesModOT-Bold, Mr Eaves Mod OT" font-size="12.4483" font-weight="bold" letter-spacing="0.12068647" fill="#133339">
                <tspan x="220.10765" y="271.055458">3</tspan>
                <tspan x="226.390245" y="271.055458" letter-spacing="-0.015">3%</tspan>
            </text>
            <path d="M204.672,283.8312 L176.357,239.8822" id="Stroke-43" stroke="#133339" stroke-width="1.245" stroke-linecap="round" stroke-linejoin="round"></path>
            <g id="Group-52" transform="translate(10.000000, 1.173000)">
                <path d="M53.5144,106.2339 C82.7254,106.2339 106.4064,82.5529 106.4064,53.3419 C106.4064,24.1299 82.7254,0.4499 53.5144,0.4499 C24.3034,0.4499 0.6224,24.1299 0.6224,53.3419 C0.6224,82.5529 24.3034,106.2339 53.5144,106.2339" id="Fill-44" fill="#FEFEFE"></path>
                <path d="M53.5144,106.2339 C82.7254,106.2339 106.4064,82.5529 106.4064,53.3419 C106.4064,24.1299 82.7254,0.4499 53.5144,0.4499 C24.3034,0.4499 0.6224,24.1299 0.6224,53.3419 C0.6224,82.5529 24.3034,106.2339 53.5144,106.2339 Z" id="Stroke-46" stroke="#133339" stroke-width="1.245" stroke-linecap="round" stroke-linejoin="round"></path>
                <path d="M54.031,53.2891 L66.479,2.0361 C66.479,2.0361 87.641,4.7401 101.334,29.6371 C70.214,44.5751 54.031,53.2891 54.031,53.2891" id="Fill-48" fill="#F9F8F8"></path>
                <path d="M54.031,53.2891 L66.479,2.0361 C66.479,2.0361 87.641,4.7401 101.334,29.6371 C70.214,44.5751 54.031,53.2891 54.031,53.2891 Z" id="Stroke-50" stroke="#133339" stroke-width="1.245" stroke-linecap="round" stroke-linejoin="round"></path>
            </g>
            <path d="M64.9646,53.2169 L97.7036,14.0039" id="Stroke-53" stroke="#133339" stroke-width="1.245" stroke-linecap="round" stroke-linejoin="round"></path>
            <text id="89.2%" font-family="MrEavesModOT-Bold, Mr Eaves Mod OT" font-size="12.4483" font-weight="bold" letter-spacing="0.11046232" fill="#133339">
                <tspan x="43.1179" y="73.967259">8</tspan>
                <tspan x="50.1371688" y="73.967259" letter-spacing="-0.019">9</tspan>
                <tspan x="56.4045603" y="73.967259" letter-spacing="0.48017683">.</tspan>
                <tspan x="60.0466054" y="73.967259" letter-spacing="0.05817946">2</tspan>
                <tspan x="65.9554858" y="73.967259" letter-spacing="-0.019">%</tspan>
            </text>
            <g id="Group-96" transform="translate(0.000000, 0.173000)">
                <g id="Group-66" transform="translate(1.000000, 0.000000)">
                    <path d="M63.8223,564.5508 C93.0333,564.5508 116.7143,540.8698 116.7143,511.6588 C116.7143,482.4468 93.0333,458.7668 63.8223,458.7668 C34.6113,458.7668 10.9303,482.4468 10.9303,511.6588 C10.9303,540.8698 34.6113,564.5508 63.8223,564.5508" id="Fill-54" fill="#F7F7F7"></path>
                    <path d="M63.8223,564.5508 C93.0333,564.5508 116.7143,540.8698 116.7143,511.6588 C116.7143,482.4468 93.0333,458.7668 63.8223,458.7668 C34.6113,458.7668 10.9303,482.4468 10.9303,511.6588 C10.9303,540.8698 34.6113,564.5508 63.8223,564.5508 Z" id="Stroke-56" stroke="#133339" stroke-width="1.245" stroke-linecap="round" stroke-linejoin="round"></path>
                    <path d="M116.7141,511.6211 C116.7141,482.5911 93.3231,459.0341 64.3611,458.7431 L64.3611,512.1611 L90.9491,557.0131 C106.3781,547.7771 116.7141,530.9131 116.7141,511.6211" id="Fill-58" fill="#FEFEFE"></path>
                    <path d="M116.7141,511.6211 C116.7141,482.5911 93.3231,459.0341 64.3611,458.7431 L64.3611,512.1611 L90.9491,557.0131 C106.3781,547.7771 116.7141,530.9131 116.7141,511.6211 Z" id="Stroke-60" stroke="#133339" stroke-width="1.245" stroke-linecap="round" stroke-linejoin="round"></path>
                    <mask id="mask-2" fill="white">
                        <use xlink:href="#path-1"></use>
                    </mask>
                    <g id="Clip-62"></g>
                    <text id="0%" mask="url(#mask-2)" font-family="MrEavesModOT-Bold, Mr Eaves Mod OT" font-size="12.4483" font-weight="bold" letter-spacing="-0.014" fill="#133339">
                        <tspan x="77.9102307" y="504.060359">0%</tspan>
                    </text>
                    <path d="M64.1237,511.8223 L41.0167,465.2093" id="Stroke-63" stroke="#133339" stroke-width="1.245" stroke-linecap="round" stroke-linejoin="round" mask="url(#mask-2)"></path>
                    <path d="M63.8504,512.166 L22.1044,542.185" id="Stroke-64" stroke="#133339" stroke-width="1.245" stroke-linecap="round" stroke-linejoin="round" mask="url(#mask-2)"></path>
                    <path d="M64.3615,512.2812 L14.7465,493.4602" id="Stroke-65" stroke="#133339" stroke-width="1.245" stroke-linecap="round" stroke-linejoin="round" mask="url(#mask-2)"></path>
                </g>
                <g id="Group-79" transform="translate(1.000000, 0.000000)">
                    <path d="M202.9023,564.5591 C231.6933,564.5591 255.0333,541.2191 255.0333,512.4281 C255.0333,483.6371 231.6933,460.2971 202.9023,460.2971 C174.1113,460.2971 150.7713,483.6371 150.7713,512.4281 C150.7713,541.2191 174.1113,564.5591 202.9023,564.5591" id="Fill-67" fill="#F7F7F7"></path>
                    <path d="M202.9023,564.5591 C231.6933,564.5591 255.0333,541.2191 255.0333,512.4281 C255.0333,483.6371 231.6933,460.2971 202.9023,460.2971 C174.1113,460.2971 150.7713,483.6371 150.7713,512.4281 C150.7713,541.2191 174.1113,564.5591 202.9023,564.5591 Z" id="Stroke-69" stroke="#133339" stroke-width="1.227" stroke-linecap="round" stroke-linejoin="round"></path>
                    <path d="M255.0334,512.3916 C255.0334,483.7786 231.9784,460.5606 203.4334,460.2736 L203.4334,512.9236 L229.6394,557.1306 C244.8464,548.0276 255.0334,531.4056 255.0334,512.3916" id="Fill-71" fill="#FEFEFE"></path>
                    <path d="M255.0334,512.3916 C255.0334,483.7786 231.9784,460.5606 203.4334,460.2736 L203.4334,512.9236 L229.6394,557.1306 C244.8464,548.0276 255.0334,531.4056 255.0334,512.3916 Z" id="Stroke-73" stroke="#133339" stroke-width="1.227" stroke-linecap="round" stroke-linejoin="round"></path>
                    <mask id="mask-4" fill="white">
                        <use xlink:href="#path-3"></use>
                    </mask>
                    <g id="Clip-75"></g>
                    <text id="0%" mask="url(#mask-4)" font-family="MrEavesModOT-Bold, Mr Eaves Mod OT" font-size="12.2692" font-weight="bold" letter-spacing="-0.014" fill="#133339">
                        <tspan x="216.785162" y="505.08326">0%</tspan>
                    </text>
                    <path d="M203.1993,512.5889 L180.4243,466.6479" id="Stroke-76" stroke="#133339" stroke-width="1.227" stroke-linecap="round" stroke-linejoin="round" mask="url(#mask-4)"></path>
                    <path d="M202.93,512.9287 L161.785,542.5157" id="Stroke-77" stroke="#133339" stroke-width="1.227" stroke-linecap="round" stroke-linejoin="round" mask="url(#mask-4)"></path>
                    <path d="M203.4337,513.042 L154.5327,494.49" id="Stroke-78" stroke="#133339" stroke-width="1.227" stroke-linecap="round" stroke-linejoin="round" mask="url(#mask-4)"></path>
                </g>
                <g id="Group-92" transform="translate(1.000000, 0.000000)">
                    <path d="M332.5932,564.5474 C361.8892,564.5474 385.6372,540.7984 385.6372,511.5034 C385.6372,482.2074 361.8892,458.4584 332.5932,458.4584 C303.2972,458.4584 279.5492,482.2074 279.5492,511.5034 C279.5492,540.7984 303.2972,564.5474 332.5932,564.5474" id="Fill-80" fill="#F7F7F7"></path>
                    <path d="M332.5932,564.5474 C361.8892,564.5474 385.6372,540.7984 385.6372,511.5034 C385.6372,482.2074 361.8892,458.4584 332.5932,458.4584 C303.2972,458.4584 279.5492,482.2074 279.5492,511.5034 C279.5492,540.7984 303.2972,564.5474 332.5932,564.5474 Z" id="Stroke-82" stroke="#133339" stroke-width="1.248" stroke-linecap="round" stroke-linejoin="round"></path>
                    <path d="M385.6374,511.4653 C385.6374,482.3513 362.1794,458.7263 333.1344,458.4343 L333.1344,512.0073 L359.7984,556.9883 C375.2714,547.7253 385.6374,530.8123 385.6374,511.4653" id="Fill-84" fill="#FEFEFE"></path>
                    <path d="M385.6374,511.4653 C385.6374,482.3513 362.1794,458.7263 333.1344,458.4343 L333.1344,512.0073 L359.7984,556.9883 C375.2714,547.7253 385.6374,530.8123 385.6374,511.4653 Z" id="Stroke-86" stroke="#133339" stroke-width="1.248" stroke-linecap="round" stroke-linejoin="round"></path>
                    <mask id="mask-6" fill="white">
                        <use xlink:href="#path-5"></use>
                    </mask>
                    <g id="Clip-88"></g>
                    <text id="0%" mask="url(#mask-6)" font-family="MrEavesModOT-Bold, Mr Eaves Mod OT" font-size="12.4841" font-weight="bold" letter-spacing="-0.014" fill="#133339">
                        <tspan x="346.721794" y="503.854121">0%</tspan>
                    </text>
                    <path d="M332.8954,511.667 L309.7214,464.919" id="Stroke-89" stroke="#133339" stroke-width="1.248" stroke-linecap="round" stroke-linejoin="round" mask="url(#mask-6)"></path>
                    <path d="M332.6213,512.0127 L290.7553,542.1177" id="Stroke-90" stroke="#133339" stroke-width="1.248" stroke-linecap="round" stroke-linejoin="round" mask="url(#mask-6)"></path>
                    <path d="M333.134,512.1279 L283.376,493.2519" id="Stroke-91" stroke="#133339" stroke-width="1.248" stroke-linecap="round" stroke-linejoin="round" mask="url(#mask-6)"></path>
                </g>
            </g>
            <g id="Group-102" transform="translate(145.000000, 1.173000)">
                <path d="M53.4728,106.2339 C82.6618,106.2339 106.3238,82.5719 106.3238,53.3829 C106.3238,24.1939 82.6618,0.5319 53.4728,0.5319 C24.2838,0.5319 0.6218,24.1939 0.6218,53.3829 C0.6218,82.5719 24.2838,106.2339 53.4728,106.2339" id="Fill-98" fill="#FEFEFE"></path>
                <path d="M53.4728,106.2339 C82.6618,106.2339 106.3238,82.5719 106.3238,53.3829 C106.3238,24.1939 82.6618,0.5319 53.4728,0.5319 C24.2838,0.5319 0.6218,24.1939 0.6218,53.3829 C0.6218,82.5719 24.2838,106.2339 53.4728,106.2339 Z" id="Stroke-100" stroke="#133339" stroke-width="1.244" stroke-linecap="round" stroke-linejoin="round"></path>
            </g>
            <text id="62.9%" font-family="MrEavesModOT-Bold, Mr Eaves Mod OT" font-size="12.4386" font-weight="bold" letter-spacing="0.0367544" fill="#133339">
                <tspan x="165.7242" y="69.230126">6</tspan>
                <tspan x="172.415605" y="69.230126" letter-spacing="0.3352808">2</tspan>
                <tspan x="178.597028" y="69.230126" letter-spacing="0.09397196">.</tspan>
                <tspan x="181.477247" y="69.230126" letter-spacing="-0.013">9%</tspan>
            </text>
            <g id="Group-115" transform="translate(199.000000, 1.173000)">
                <path d="M44.8169,79.8281 L0.0949,53.3841 L52.3239,53.3841 C52.3239,53.3841 51.0749,68.6251 44.8169,79.8281" id="Fill-103" fill="#F9F8F8"></path>
                <path d="M44.8169,79.8281 L0.0949,53.3841 L52.3239,53.3841 C52.3239,53.3841 51.0749,68.6251 44.8169,79.8281 Z" id="Stroke-105" stroke="#133339" stroke-width="1.244" stroke-linecap="round" stroke-linejoin="round"></path>
                <path d="M0.0948,53.3696 L52.4068,53.3696 C52.4068,24.3616 29.0338,0.8226 0.0948,0.5326 L0.0948,53.3696 Z" id="Fill-107" fill="#F9F8F8"></path>
                <path d="M0.0948,53.3696 L52.4068,53.3696 C52.4068,24.3616 29.0338,0.8226 0.0948,0.5326 L0.0948,53.3696 Z" id="Stroke-109" stroke="#133339" stroke-width="1.244" stroke-linecap="round" stroke-linejoin="round"></path>
                <path d="M134.5932,335.5483 C163.8892,335.5483 187.6372,311.7993 187.6372,282.5043 C187.6372,253.2083 163.8892,229.4593 134.5932,229.4593 C105.2972,229.4593 81.5492,253.2083 81.5492,282.5043 C81.5492,311.7993 105.2972,335.5483 134.5932,335.5483" id="Fill-111" fill="#FEFEFE"></path>
                <path d="M134.5932,335.5483 C163.8892,335.5483 187.6372,311.7993 187.6372,282.5043 C187.6372,253.2083 163.8892,229.4593 134.5932,229.4593 C105.2972,229.4593 81.5492,253.2083 81.5492,282.5043 C81.5492,311.7993 105.2972,335.5483 134.5932,335.5483 Z" id="Stroke-113" stroke="#133339" stroke-width="1.248" stroke-linecap="round" stroke-linejoin="round"></path>
            </g>
            <text id="92.6%" font-family="MrEavesModOT-Bold, Mr Eaves Mod OT" font-size="12.3802" font-weight="bold" letter-spacing="0.1069921" fill="#133339">
                <tspan x="322.3415" y="291.87365">9</tspan>
                <tspan x="329.071899" y="291.87365" letter-spacing="0.4474476">2</tspan>
                <tspan x="335.338041" y="291.87365" letter-spacing="0.1565129">.</tspan>
                <tspan x="338.639124" y="291.87365" letter-spacing="-0.023">6%</tspan>
            </text>
            <g id="Group-120" transform="translate(333.000000, 232.173000)">
                <path d="M9.3196,0.2227 L0.4866,51.5017 L30.4616,8.2577 C30.4616,8.2577 24.8196,0.2227 9.3196,0.2227" id="Fill-116" fill="#F9F8F8"></path>
                <path d="M9.3196,0.2227 L0.4866,51.5017 L30.4616,8.2577 C30.4616,8.2577 24.8196,0.2227 9.3196,0.2227 Z" id="Stroke-118" stroke="#231F20" stroke-width="1.594"></path>
            </g>
        </g>
    </g>
</svg>