<?xml version="1.0" encoding="UTF-8"?>
<svg width="428px" height="419px" viewBox="0 0 428 419" version="1.1" xmlns="http://www.w3.org/2000/svg" xmlns:xlink="http://www.w3.org/1999/xlink">
    <!-- Generator: Sketch 54.1 (76490) - https://sketchapp.com -->
    <title>cr-survey-results-2</title>
    <desc>Created with Sketch.</desc>
    <g id="Page-1" stroke="none" stroke-width="1" fill="none" fill-rule="evenodd">
        <g id="cr-survey-results-2" transform="translate(0.000000, 1.000000)">
            <text id="do-watch-anime" font-family="MrEavesModOT-Bold, Mr Eaves Mod OT" font-size="19.44" font-weight="bold" letter-spacing="0.028768" fill="#133339">
                <tspan x="311" y="414">d</tspan>
                <tspan x="320.554368" y="414" letter-spacing="0.06376">o</tspan>
                <tspan x="329.793808" y="414" letter-spacing="-0.014"> </tspan>
                <tspan x="333.142928" y="414" letter-spacing="-0.212288">w</tspan>
                <tspan x="345.11952" y="414" letter-spacing="-0.085928">a</tspan>
                <tspan x="354.559192" y="414" letter-spacing="-0.192848">t</tspan>
                <tspan x="360.237224" y="414" letter-spacing="0.124024">c</tspan>
                <tspan x="367.923408" y="414" letter-spacing="0.06376">h</tspan>
                <tspan x="377.376688" y="414" letter-spacing="-0.014"> an</tspan>
                <tspan x="399.612928" y="414" letter-spacing="-0.041216">i</tspan>
                <tspan x="404.042912" y="414" letter-spacing="-0.014">me</tspan>
            </text>
            <text id="are-in-the-U.S." font-family="MrEavesModOT-Bold, Mr Eaves Mod OT" font-size="19.44" font-weight="bold" letter-spacing="-0.08776" fill="#133339">
                <tspan x="17" y="414">a</tspan>
                <tspan x="26.43784" y="414" letter-spacing="-0.03916">r</tspan>
                <tspan x="32.3862" y="414" letter-spacing="-0.01">e </tspan>
                <tspan x="43.99132" y="414" letter-spacing="-0.114976">i</tspan>
                <tspan x="48.347544" y="414" letter-spacing="-0.01">n </tspan>
                <tspan x="61.080184" y="414" letter-spacing="-0.169408">t</tspan>
                <tspan x="66.781656" y="414" letter-spacing="-0.103312">h</tspan>
                <tspan x="76.067864" y="414" letter-spacing="-0.01">e </tspan>
                <tspan x="87.672984" y="414" letter-spacing="-0.480448">U</tspan>
                <tspan x="99.906296" y="414" letter-spacing="0.269936">.</tspan>
                <tspan x="105.113992" y="414" letter-spacing="0.137744">S</tspan>
                <tspan x="114.913416" y="414" letter-spacing="-0.01">.</tspan>
            </text>
            <text id="hold-grad-degrees" font-family="MrEavesModOT-Bold, Mr Eaves Mod OT" font-size="19.44" font-weight="bold" letter-spacing="-0.056712" fill="#133339">
                <tspan x="158" y="414">h</tspan>
                <tspan x="167.332808" y="414" letter-spacing="-0.012">o</tspan>
                <tspan x="176.496488" y="414" letter-spacing="-0.027552">l</tspan>
                <tspan x="180.940136" y="414" letter-spacing="0.02688">d</tspan>
                <tspan x="190.492616" y="414" letter-spacing="-0.012"> </tspan>
                <tspan x="193.843736" y="414" letter-spacing="-0.062544">g</tspan>
                <tspan x="203.326232" y="414" letter-spacing="0.00744">r</tspan>
                <tspan x="209.321192" y="414" letter-spacing="-0.012">a</tspan>
                <tspan x="218.834792" y="414" letter-spacing="0.024936">d</tspan>
                <tspan x="228.385328" y="414" letter-spacing="-0.012"> d</tspan>
                <tspan x="241.250048" y="414" letter-spacing="-0.04116">e</tspan>
                <tspan x="249.470888" y="414" letter-spacing="-0.062544">g</tspan>
                <tspan x="258.953384" y="414" letter-spacing="-0.012">r</tspan>
                <tspan x="264.928904" y="414" letter-spacing="-0.078096">e</tspan>
                <tspan x="273.112808" y="414" letter-spacing="-0.012">es</tspan>
            </text>
            <text id="are-students" font-family="MrEavesModOT-Bold, Mr Eaves Mod OT" font-size="19.44" font-weight="bold" letter-spacing="-0.014" fill="#133339">
                <tspan x="320" y="167">a</tspan>
                <tspan x="329.5116" y="167" letter-spacing="0.0346">r</tspan>
                <tspan x="335.53372" y="167" letter-spacing="0.06376">e</tspan>
                <tspan x="343.85948" y="167"> </tspan>
                <tspan x="347.2086" y="167" letter-spacing="-0.093704">s</tspan>
                <tspan x="353.996656" y="167" letter-spacing="-0.163688">t</tspan>
                <tspan x="359.703848" y="167" letter-spacing="0.017104">ud</tspan>
                <tspan x="378.653176" y="167">e</tspan>
                <tspan x="386.901176" y="167" letter-spacing="-0.212288">n</tspan>
                <tspan x="396.078408" y="167" letter-spacing="-0.035384">t</tspan>
                <tspan x="401.913904" y="167">s</tspan>
            </text>
            <g id="Group-9" transform="translate(307.000000, 0.000000)">
                <path d="M57.5546,113.9639 C88.9216,113.9639 114.3486,88.5359 114.3486,57.1699 C114.3486,25.8029 88.9216,0.3759 57.5546,0.3759 C26.1876,0.3759 0.7606,25.8029 0.7606,57.1699 C0.7606,88.5359 26.1876,113.9639 57.5546,113.9639" id="Fill-1" fill="#FFF5E6"></path>
                <path d="M57.5546,113.9639 C88.9216,113.9639 114.3486,88.5359 114.3486,57.1699 C114.3486,25.8029 88.9216,0.3759 57.5546,0.3759 C26.1876,0.3759 0.7606,25.8029 0.7606,57.1699 C0.7606,88.5359 26.1876,113.9639 57.5546,113.9639 Z" id="Stroke-3" stroke="#FF9D00" stroke-width="2" stroke-linecap="round" stroke-linejoin="round"></path>
                <path d="M114.3487,57.1299 C114.3487,25.9579 89.2317,0.6629 58.1337,0.3509 L58.1337,113.9089 C89.2317,113.5969 114.3487,88.3019 114.3487,57.1299" id="Fill-5" fill="#FFCE80"></path>
                <path d="M114.3487,57.1299 C114.3487,25.9579 89.2317,0.6629 58.1337,0.3509 L58.1337,113.9089 C89.2317,113.5969 114.3487,88.3019 114.3487,57.1299 Z" id="Stroke-7" stroke="#FF9D00" stroke-width="2" stroke-linecap="round" stroke-linejoin="round"></path>
            </g>
            <text id="50%" font-family="MrEavesModOT-Heavy, Mr Eaves Mod OT" font-size="34.959" font-weight="600" letter-spacing="0.4224834" fill="#FF9D00">
                <tspan x="333" y="146">5</tspan>
                <tspan x="351.251573" y="146" letter-spacing="-0.018">0%</tspan>
            </text>
            <g id="Group-18" transform="translate(11.000000, 249.000000)">
                <path d="M19.0195,100.4531 C42.5635,122.0271 79.1385,120.4301 100.7135,96.8861 C122.2875,73.3421 120.6905,36.7661 97.1465,15.1921 C73.6025,-6.3819 37.0265,-4.7849 15.4525,18.7591 C-6.1215,42.3031 -4.5245,78.8791 19.0195,100.4531" id="Fill-10" fill="#FFF5E6"></path>
                <path d="M19.0195,100.4531 C42.5635,122.0271 79.1385,120.4301 100.7135,96.8861 C122.2875,73.3421 120.6905,36.7661 97.1465,15.1921 C73.6025,-6.3819 37.0265,-4.7849 15.4525,18.7591 C-6.1215,42.3031 -4.5245,78.8791 19.0195,100.4531 Z" id="Stroke-12" stroke="#FF9D00" stroke-width="2" stroke-linecap="round" stroke-linejoin="round"></path>
                <path d="M3.6205,77.0811 C-6.9735,47.1651 9.7675,0.0681 58.3165,0.168937822 L57.7665,58.5331 L46.7355,114.4551 C27.4655,110.5681 10.6605,96.9611 3.6205,77.0811" id="Fill-14" fill="#FFCE80"></path>
                <path d="M3.6205,77.0811 C-6.9735,47.1651 9.7675,0.0681 58.3165,0.168937822 L57.7665,58.5331 L46.7355,114.4551 C27.4655,110.5681 10.6605,96.9611 3.6205,77.0811 Z" id="Stroke-16" stroke="#FF9D00" stroke-width="2" stroke-linecap="round" stroke-linejoin="round"></path>
            </g>
            <text id="50.8%" font-family="MrEavesModOT-Heavy, Mr Eaves Mod OT" font-size="34.959" font-weight="600" letter-spacing="0.7620734" fill="#FF9D00">
                <tspan x="21" y="394">5</tspan>
                <tspan x="39.5911634" y="394" letter-spacing="0.4719137">0</tspan>
                <tspan x="60.7588051" y="394" letter-spacing="1.1641019">.</tspan>
                <tspan x="70.977288" y="394" letter-spacing="-0.028">8%</tspan>
            </text>
            <path d="M69.0156,306.7617 L69.3166,249.1687" id="Stroke-19" stroke="#FF9D00" stroke-width="2" stroke-linecap="round" stroke-linejoin="round"></path>
            <g id="Group-32" transform="translate(165.000000, 249.000000)">
                <path d="M58.8332,114.6216 C90.3812,114.6216 115.9562,89.0466 115.9562,57.4986 C115.9562,25.9506 90.3812,0.3746 58.8332,0.3746 C27.2852,0.3746 1.7102,25.9506 1.7102,57.4986 C1.7102,89.0466 27.2852,114.6216 58.8332,114.6216" id="Fill-20" fill="#FFCE80"></path>
                <path d="M58.8332,114.6216 C90.3812,114.6216 115.9562,89.0466 115.9562,57.4986 C115.9562,25.9506 90.3812,0.3746 58.8332,0.3746 C27.2852,0.3746 1.7102,25.9506 1.7102,57.4986 C1.7102,89.0466 27.2852,114.6216 58.8332,114.6216 Z" id="Stroke-22" stroke="#FF9D00" stroke-width="2" stroke-linecap="round" stroke-linejoin="round"></path>
                <path d="M115.9564,57.458 C115.9564,26.105 90.6944,0.664 59.4154,0.35 L59.4154,58.202 L99.3424,97.722 C109.6094,87.397 115.9564,73.171 115.9564,57.458" id="Fill-24" fill="#FEFEFE"></path>
                <path d="M115.9564,57.458 C115.9564,26.105 90.6944,0.664 59.4154,0.35 L59.4154,58.202 L99.3424,97.722 C109.6094,87.397 115.9564,73.171 115.9564,57.458 Z" id="Stroke-26" stroke="#133339" stroke-width="1.344" stroke-linecap="round" stroke-linejoin="round"></path>
                <path d="M58.8184,114.6214 C17.3034,113.1964 -16.6916,70.0414 10.3084,27.9654 L59.5624,58.0804 L58.8334,0.5454 C140.1064,0.5454 129.3084,117.0414 58.8184,114.6214" id="Fill-28" fill="#FFF5E6"></path>
                <path d="M58.8184,114.6214 C17.3034,113.1964 -16.6916,70.0414 10.3084,27.9654 L59.5624,58.0804 L58.8334,0.5454 C140.1064,0.5454 129.3084,117.0414 58.8184,114.6214 Z" id="Stroke-30" stroke="#FF9D00" stroke-width="2" stroke-linecap="round" stroke-linejoin="round"></path>
            </g>
            <text id="33%" font-family="MrEavesModOT-Heavy, Mr Eaves Mod OT" font-size="34.959" font-weight="600" letter-spacing="0.5643194" fill="#FF9D00">
                <tspan x="193" y="394">3</tspan>
                <tspan x="211.498286" y="394" letter-spacing="-0.0334795">3</tspan>
                <tspan x="229.398774" y="394" letter-spacing="-0.016">%</tspan>
            </text>
            <text id="are-18-29-years-old" font-family="MrEavesModOT-Bold, Mr Eaves Mod OT" font-size="19.44" font-weight="bold" letter-spacing="-0.08776" fill="#133339">
                <tspan x="0" y="167">a</tspan>
                <tspan x="9.43784" y="167" letter-spacing="-0.03916">r</tspan>
                <tspan x="15.3862" y="167" letter-spacing="-0.01">e </tspan>
                <tspan x="26.99132" y="167" letter-spacing="-0.28216">1</tspan>
                <tspan x="32.73556" y="167" letter-spacing="0.199952">8</tspan>
                <tspan x="43.724712" y="167" letter-spacing="-0.532936">-</tspan>
                <tspan x="48.965456" y="167" letter-spacing="-0.148024">2</tspan>
                <tspan x="57.954232" y="167" letter-spacing="-0.01">9 </tspan>
                <tspan x="71.697752" y="167" letter-spacing="-0.286048">y</tspan>
                <tspan x="79.168264" y="167" letter-spacing="-0.07804">e</tspan>
                <tspan x="87.352224" y="167">a</tspan>
                <tspan x="96.790064" y="167" letter-spacing="-0.01">rs </tspan>
                <tspan x="113.089664" y="167" letter-spacing="-0.056656">o</tspan>
                <tspan x="122.208688" y="167" letter-spacing="-0.062488">l</tspan>
                <tspan x="126.6174" y="167" letter-spacing="-0.01">d</tspan>
            </text>
            <text id="--" font-family="MrEavesModOT-Bold, Mr Eaves Mod OT" font-size="12.96" font-weight="bold"></text>
            <g id="Group-42" transform="translate(11.000000, 1.000000)">
                <path d="M57.3829,115.1626 C88.9309,115.1626 114.5059,89.5876 114.5059,58.0396 C114.5059,26.4916 88.9309,0.9156 57.3829,0.9156 C25.8349,0.9156 0.2599,26.4916 0.2599,58.0396 C0.2599,89.5876 25.8349,115.1626 57.3829,115.1626" id="Fill-34" fill="#FFF5E6"></path>
                <path d="M57.3829,115.1626 C88.9309,115.1626 114.5059,89.5876 114.5059,58.0396 C114.5059,26.4916 88.9309,0.9156 57.3829,0.9156 C25.8349,0.9156 0.2599,26.4916 0.2599,58.0396 C0.2599,89.5876 25.8349,115.1626 57.3829,115.1626 Z" id="Stroke-36" stroke="#FF9D00" stroke-width="2" stroke-linecap="round" stroke-linejoin="round"></path>
                <path d="M57.3088,60.2432 L71.3848,2.6292 C71.3848,2.6292 94.2398,5.5502 109.0288,32.4382 C75.4178,48.5712 57.3088,60.2432 57.3088,60.2432" id="Fill-38" fill="#FFCE80"></path>
                <path d="M57.3088,60.2432 L71.3848,2.6292 C71.3848,2.6292 94.2398,5.5502 109.0288,32.4382 C75.4178,48.5712 57.3088,60.2432 57.3088,60.2432 Z" id="Stroke-40" stroke="#FF9D00" stroke-width="2" stroke-linecap="round" stroke-linejoin="round"></path>
            </g>
            <text id="89.2%" font-family="MrEavesModOT-Heavy, Mr Eaves Mod OT" font-size="34.9595" font-weight="600" letter-spacing="0.31111525" fill="#FF9D00">
                <tspan x="23" y="143">8</tspan>
                <tspan x="43.4827468" y="143" letter-spacing="-0.021">9</tspan>
                <tspan x="61.9203627" y="143" letter-spacing="1.60461675">.</tspan>
                <tspan x="72.57949" y="143" letter-spacing="0.18526105">2</tspan>
                <tspan x="89.7900275" y="143" letter-spacing="-0.021">%</tspan>
            </text>
            <text id="are-female" font-family="MrEavesModOT-Bold, Mr Eaves Mod OT" font-size="19.44" font-weight="bold" letter-spacing="-0.014" fill="#133339">
                <tspan x="184.458272" y="166.716356">a</tspan>
                <tspan x="193.969872" y="166.716356" letter-spacing="0.0346">r</tspan>
                <tspan x="199.991992" y="166.716356" letter-spacing="0.06376">e</tspan>
                <tspan x="208.317752" y="166.716356"> </tspan>
                <tspan x="211.666872" y="166.716356" letter-spacing="-0.045104">f</tspan>
                <tspan x="217.239928" y="166.716356">e</tspan>
                <tspan x="225.487928" y="166.716356" letter-spacing="0.009328">m</tspan>
                <tspan x="239.299656" y="166.716356">a</tspan>
                <tspan x="248.811256" y="166.716356" letter-spacing="0.011272">l</tspan>
                <tspan x="253.293728" y="166.716356">e</tspan>
            </text>
            <g id="Group-51" transform="translate(165.000000, 1.000000)">
                <path d="M57.3543,115.0742 C88.8783,115.0742 114.4333,89.5192 114.4333,57.9952 C114.4333,26.4712 88.8783,0.9162 57.3543,0.9162 C25.8303,0.9162 0.2753,26.4712 0.2753,57.9952 C0.2753,89.5192 25.8303,115.0742 57.3543,115.0742" id="Fill-47" fill="#FFF5E6"></path>
                <path d="M57.3543,115.0742 C88.8783,115.0742 114.4333,89.5192 114.4333,57.9952 C114.4333,26.4712 88.8783,0.9162 57.3543,0.9162 C25.8303,0.9162 0.2753,26.4712 0.2753,57.9952 C0.2753,89.5192 25.8303,115.0742 57.3543,115.0742 Z" id="Stroke-49" stroke="#FF9D00" stroke-width="2" stroke-linecap="round" stroke-linejoin="round"></path>
            </g>
            <text id="62.9%" font-family="MrEavesModOT-Heavy, Mr Eaves Mod OT" font-size="34.959" font-weight="600" letter-spacing="0.2506884" fill="#FF9D00">
                <tspan x="177.400187" y="146.153731">6</tspan>
                <tspan x="197.157998" y="146.153731" letter-spacing="1.2155568">2</tspan>
                <tspan x="215.398587" y="146.153731" letter-spacing="0.404508">.</tspan>
                <tspan x="223.808706" y="146.153731" letter-spacing="-0.0324795">9</tspan>
                <tspan x="243.283349" y="146.153731" letter-spacing="-0.015">%</tspan>
            </text>
            <g id="Group-64" transform="translate(223.000000, 1.084000)">
                <path d="M48.3259,86.4717 L0.0259,57.9107 L56.4329,57.9107 C56.4329,57.9107 55.0849,74.3707 48.3259,86.4717" id="Fill-52" fill="#FFCE80"></path>
                <path d="M48.3259,86.4717 L0.0259,57.9107 L56.4329,57.9107 C56.4329,57.9107 55.0849,74.3707 48.3259,86.4717 Z" id="Stroke-54" stroke="#FF9D00" stroke-width="2" stroke-linecap="round" stroke-linejoin="round"></path>
                <path d="M0.026,57.896 L56.523,57.896 C56.523,26.567 31.28,1.146 0.026,0.832 L0.026,57.896 Z" id="Fill-56" fill="#FFCE80"></path>
                <path d="M0.026,57.896 L56.523,57.896 C56.523,26.567 31.28,1.146 0.026,0.832 L0.026,57.896 Z" id="Stroke-58" stroke="#FF9D00" stroke-width="2" stroke-linecap="round" stroke-linejoin="round"></path>
                <path d="M146.288,362.492 C177.927,362.492 203.576,336.843 203.576,305.204 C203.576,273.565 177.927,247.916 146.288,247.916 C114.649,247.916 89,273.565 89,305.204 C89,336.843 114.649,362.492 146.288,362.492" id="Fill-60" fill="#FFF5E6"></path>
                <path d="M146.288,362.492 C177.927,362.492 203.576,336.843 203.576,305.204 C203.576,273.565 177.927,247.916 146.288,247.916 C114.649,247.916 89,273.565 89,305.204 C89,336.843 114.649,362.492 146.288,362.492 Z" id="Stroke-62" stroke="#FF9D00" stroke-width="2" stroke-linecap="round" stroke-linejoin="round"></path>
            </g>
            <text id="92.6%" font-family="MrEavesModOT-Heavy, Mr Eaves Mod OT" font-size="34.959" font-weight="600" letter-spacing="0.6222374" fill="#FF9D00">
                <tspan x="323" y="394">9</tspan>
                <tspan x="343.129359" y="394" letter-spacing="1.6570238">2</tspan>
                <tspan x="361.811416" y="394" letter-spacing="0.6991472">.</tspan>
                <tspan x="371.564944" y="394" letter-spacing="-0.028">6%</tspan>
            </text>
            <g id="Group-71" transform="translate(368.219900, 249.956400)">
                <path d="M10.4926,0.9492 L0.9526,56.3302 L33.3266,9.6272 C33.3266,9.6272 26.3086,3.0422 10.4926,0.9492" id="Fill-65" fill="#FFCE80"></path>
                <path d="M10.4926,0.9492 L0.9526,56.3302 L33.3266,9.6272 C33.3266,9.6272 26.3086,3.0422 10.4926,0.9492 Z" id="Stroke-67" stroke="#FF9D00" stroke-width="1.722"></path>
                <path d="M10.3087,0.0415 C10.3087,0.0415 25.3087,2.0415 33.3087,9.0415" id="Stroke-69" stroke="#FF9D00"></path>
            </g>
        </g>
    </g>
</svg>