<?xml version="1.0" encoding="UTF-8"?>
<svg width="937px" height="471px" viewBox="0 0 937 471" version="1.1" xmlns="http://www.w3.org/2000/svg" xmlns:xlink="http://www.w3.org/1999/xlink">
    <!-- Generator: Sketch 54.1 (76490) - https://sketchapp.com -->
    <title>cr-style</title>
    <desc>Created with Sketch.</desc>
    <g id="Page-1" stroke="none" stroke-width="1" fill="none" fill-rule="evenodd">
        <g id="cr-style" transform="translate(0.000000, -5.000000)">
            <g id="Group-7" transform="translate(539.000000, 79.360000)">
                <path d="M219.3508,0.0605 C219.3508,0.0605 215.3508,0.0605 215.3508,4.0605 L215.3508,64.3675 C215.3508,64.3675 215.3508,68.3675 219.3508,68.3675 L293.1438,68.3675 C293.1438,68.3675 297.1438,68.3675 297.1438,64.3675 L297.1438,4.0605 C297.1438,4.0605 297.1438,0.0605 293.1438,0.0605 L219.3508,0.0605 Z" id="Fill-1" fill="#7E37BB"></path>
                <path d="M111.7614,0.5605 C111.7614,0.5605 107.7614,0.5605 107.7614,4.5605 L107.7614,64.8675 C107.7614,64.8675 107.7614,68.8675 111.7614,68.8675 L185.5544,68.8675 C185.5544,68.8675 189.5544,68.8675 189.5544,64.8675 L189.5544,4.5605 C189.5544,4.5605 189.5544,0.5605 185.5544,0.5605 L111.7614,0.5605 Z" id="Fill-3" fill="#56BBC5"></path>
                <path d="M4.3695,0.5605 C4.3695,0.5605 0.3695,0.5605 0.3695,4.5605 L0.3695,64.8675 C0.3695,64.8675 0.3695,68.8675 4.3695,68.8675 L78.1625,68.8675 C78.1625,68.8675 82.1625,68.8675 82.1625,64.8675 L82.1625,4.5605 C82.1625,4.5605 82.1625,0.5605 78.1625,0.5605 L4.3695,0.5605 Z" id="Fill-5" fill="#00648E"></path>
            </g>
            <text id="Noto-Sans" font-family="NotoSans-Bold, Noto Sans" font-size="23" font-weight="bold" fill="#133339">
                <tspan x="0.9439" y="27.2607112">Noto Sans</tspan>
            </text>
            <text id="-is-a-font-family-developed-by-" font-family="MrEavesModOT-Reg, Mr Eaves Mod OT" font-size="23" font-weight="normal" fill="#133339">
                <tspan x="116.5419" y="27.0566483"> is a font family developed by </tspan>
            </text>
            <text id="Google-that-aims-to" font-family="MrEavesModOT-Reg, Mr Eaves Mod OT" font-size="23" font-weight="normal" fill="#133339">
                <tspan x="0.9439" y="53.8516483">Google that aims to support all languages </tspan>
            </text>
            <text id="with-a-harmonious-lo" font-family="MrEavesModOT-Reg, Mr Eaves Mod OT" font-size="23" font-weight="normal" fill="#133339">
                <tspan x="0.9439" y="80.6466483">with a harmonious look and feel. </tspan>
            </text>
            <text id="Headline-1" font-family="NotoSans-Black, Noto Sans" font-size="48" font-weight="700" fill="#133339">
                <tspan x="0.9439" y="188.855423">Headline 1</tspan>
            </text>
            <text id="Headline-2" font-family="NotoSans-ExtraBold, Noto Sans" font-size="40" font-weight="600" fill="#133339">
                <tspan x="0.9439" y="250.51082">Headline 2</tspan>
            </text>
            <text id="Headline-3" font-family="NotoSans-ExtraBold, Noto Sans" font-size="32" font-weight="600" fill="#133339">
                <tspan x="0.9439" y="302.614316">Headline 3</tspan>
            </text>
            <text id="Subheader" font-family="NotoSans-Bold, Noto Sans" font-size="28" font-weight="bold" fill="#133339">
                <tspan x="0.9439" y="359.497614">Subheader</tspan>
            </text>
            <text id="Body" font-family="NotoSans-Regular, Noto Sans" font-size="20" font-weight="normal" fill="#133339">
                <tspan x="0.9439" y="407.31991">Body</tspan>
            </text>
            <text id="Buttons" font-family="MuseoSans-700, Museo Sans" font-size="17.9" font-weight="500" fill="#133339">
                <tspan x="431.2463" y="309.847956">Buttons</tspan>
            </text>
            <text id="Links" font-family="MuseoSans-700, Museo Sans" font-size="17.9" font-weight="500" fill="#133339">
                <tspan x="784.109" y="309.847956">Links</tspan>
            </text>
            <text id="Color-Palette" font-family="MuseoSans-700, Museo Sans" font-size="17.9" font-weight="500" fill="#133339">
                <tspan x="431.2463" y="17.9526565">Color Palette</tspan>
            </text>
            <text id="Derived-from-current-brand-and-moodboard" font-family="MrEavesModOT-Reg, Mr Eaves Mod OT" font-size="13.1" font-weight="normal" fill="#133339">
                <tspan x="431.2463" y="42.9448705">Derived from current brand and moodboard</tspan>
            </text>
            <text id="Colors-are-interchangeable,-blue-is-primary" font-family="MrEavesModOT-Reg, Mr Eaves Mod OT" font-size="13.1" font-weight="normal" fill="#133339">
                <tspan x="431.2463" y="333.280171">Colors are interchangeable, blue is primary</tspan>
            </text>
            <text id="Paired-w/-text-of-opposite-weight" font-family="MrEavesModOT-Reg, Mr Eaves Mod OT" font-size="13.1" font-weight="normal" fill="#133339">
                <tspan x="784.1079" y="333.280171">Paired w/ text of opposite weight</tspan>
            </text>
            <g id="Group-14" transform="translate(431.000000, 368.000000)">
                <path d="M20,0 C20,0 0,0 0,20 L0,23.348 C0,23.348 0,43.348 20,43.348 L111.467,43.348 C111.467,43.348 131.467,43.348 131.467,23.348 L131.467,20 C131.467,20 131.467,0 111.467,0 L20,0 Z" id="Fill-8" fill="#000000"></path>
                <path d="M20,64 C20,64 0,64 0,84 L0,87.348 C0,87.348 0,107.348 20,107.348 L111.467,107.348 C111.467,107.348 131.467,107.348 131.467,87.348 L131.467,84 C131.467,84 131.467,64 111.467,64 L20,64 Z" id="Fill-10" fill="#FEFEFE"></path>
                <path d="M20.4438,64.1523 C20.4438,64.1523 0.4438,64.1523 0.4438,84.1523 L0.4438,87.5003 C0.4438,87.5003 0.4438,107.5003 20.4438,107.5003 L111.9108,107.5003 C111.9108,107.5003 131.9108,107.5003 131.9108,87.5003 L131.9108,84.1523 C131.9108,84.1523 131.9108,64.1523 111.9108,64.1523 L20.4438,64.1523 Z" id="Stroke-12" stroke="#231F20" stroke-linecap="round" stroke-linejoin="round"></path>
            </g>
            <text id="Read-more" font-family="NotoSans-SemiBoldItalic, Noto Sans" font-size="15.3" font-style="italic" font-weight="500" fill="#231F20">
                <tspan x="784.1075" y="369.153907">Read more</tspan>
            </text>
            <text id="Read-more" font-family="NotoSans-Bold, Noto Sans" font-size="15.3" font-weight="bold" fill="#231F20">
                <tspan x="784.1075" y="396.433807">Read more</tspan>
            </text>
            <text id="button" font-family="NotoSans-Bold, Noto Sans" font-size="14" font-weight="bold" letter-spacing="0.009" fill="#FEFEFE">
                <tspan x="467" y="396">B</tspan>
                <tspan x="476.417" y="396" letter-spacing="0.08244">U</tspan>
                <tspan x="487.08344" y="396" letter-spacing="0.468">T</tspan>
                <tspan x="495.93744" y="396">TON</tspan>
            </text>
            <text id="button" font-family="NotoSans-Bold, Noto Sans" font-size="14" font-weight="bold" letter-spacing="0.00823529344" fill="#231F20">
                <tspan x="469" y="460">BUTTON</tspan>
            </text>
            <g id="Group-33" transform="translate(431.000000, 63.360000)">
                <path d="M4.2463,0.6914 C4.2463,0.6914 0.2463,0.6914 0.2463,4.6914 L0.2463,64.9984 C0.2463,64.9984 0.2463,68.9984 4.2463,68.9984 L78.0393,68.9984 C78.0393,68.9984 82.0393,68.9984 82.0393,64.9984 L82.0393,4.6914 C82.0393,4.6914 82.0393,0.6914 78.0393,0.6914 L4.2463,0.6914 Z" id="Fill-15" fill="#FF9D00"></path>
                <path d="M219.7614,0.6914 C219.7614,0.6914 215.7614,0.6914 215.7614,4.6914 L215.7614,64.9984 C215.7614,64.9984 215.7614,68.9984 219.7614,68.9984 L293.5544,68.9984 C293.5544,68.9984 297.5544,68.9984 297.5544,64.9984 L297.5544,4.6914 C297.5544,4.6914 297.5544,0.6914 293.5544,0.6914 L219.7614,0.6914 Z" id="Fill-17" fill="#62D3DE"></path>
                <path d="M112.3695,0.6914 C112.3695,0.6914 108.3695,0.6914 108.3695,4.6914 L108.3695,64.9984 C108.3695,64.9984 108.3695,68.9984 112.3695,68.9984 L186.1625,68.9984 C186.1625,68.9984 190.1625,68.9984 190.1625,64.9984 L190.1625,4.6914 C190.1625,4.6914 190.1625,0.6914 186.1625,0.6914 L112.3695,0.6914 Z" id="Fill-19" fill="#00B1FA"></path>
                <path d="M327.3508,0.6914 C327.3508,0.6914 323.3508,0.6914 323.3508,4.6914 L323.3508,64.9984 C323.3508,64.9984 323.3508,68.9984 327.3508,68.9984 L401.1438,68.9984 C401.1438,68.9984 405.1438,68.9984 405.1438,64.9984 L405.1438,4.6914 C405.1438,4.6914 405.1438,0.6914 401.1438,0.6914 L327.3508,0.6914 Z" id="Fill-21" fill="#AC4EFE"></path>
                <path d="M4.4439,127.0518 C4.4439,127.0518 0.4439,127.0518 0.4439,131.0518 L0.4439,191.3588 C0.4439,191.3588 0.4439,195.3588 4.4439,195.3588 L78.2369,195.3588 C78.2369,195.3588 82.2369,195.3588 82.2369,191.3588 L82.2369,131.0518 C82.2369,131.0518 82.2369,127.0518 78.2369,127.0518 L4.4439,127.0518 Z" id="Fill-23" fill="#231F20"></path>
                <path d="M112.8695,127.0518 C112.8695,127.0518 108.8695,127.0518 108.8695,131.0518 L108.8695,191.3588 C108.8695,191.3588 108.8695,195.3588 112.8695,195.3588 L186.6625,195.3588 C186.6625,195.3588 190.6625,195.3588 190.6625,191.3588 L190.6625,131.0518 C190.6625,131.0518 190.6625,127.0518 186.6625,127.0518 L112.8695,127.0518 Z" id="Fill-25" fill="#F9F8F8"></path>
                <path d="M112.8695,127.0518 C112.8695,127.0518 108.8695,127.0518 108.8695,131.0518 L108.8695,191.3588 C108.8695,191.3588 108.8695,195.3588 112.8695,195.3588 L186.6625,195.3588 C186.6625,195.3588 190.6625,195.3588 190.6625,191.3588 L190.6625,131.0518 C190.6625,131.0518 190.6625,127.0518 186.6625,127.0518 L112.8695,127.0518 Z" id="Stroke-27" stroke="#231F20" stroke-linecap="round" stroke-linejoin="round"></path>
                <path d="M221.7952,126.8955 C221.7952,126.8955 217.7952,126.8955 217.7952,130.8955 L217.7952,191.5155 C217.7952,191.5155 217.7952,195.5155 221.7952,195.5155 L296.1612,195.5155 C296.1612,195.5155 300.1612,195.5155 300.1612,191.5155 L300.1612,130.8955 C300.1612,130.8955 300.1612,126.8955 296.1612,126.8955 L221.7952,126.8955 Z" id="Fill-29" fill="#FEFEFE"></path>
                <path d="M221.7952,126.8955 C221.7952,126.8955 217.7952,126.8955 217.7952,130.8955 L217.7952,191.5155 C217.7952,191.5155 217.7952,195.5155 221.7952,195.5155 L296.1612,195.5155 C296.1612,195.5155 300.1612,195.5155 300.1612,191.5155 L300.1612,130.8955 C300.1612,130.8955 300.1612,126.8955 296.1612,126.8955 L221.7952,126.8955 Z" id="Stroke-31" stroke="#231F20" stroke-linecap="round" stroke-linejoin="round"></path>
            </g>
        </g>
    </g>
</svg>