<svg width="378" height="619" xmlns="http://www.w3.org/2000/svg" xmlns:xlink="http://www.w3.org/1999/xlink"><defs><path id="a" d="M0 629h401.691V.827H0z"/><path id="c" d="M0 629h401.691V.827H0z"/><path id="e" d="M0 629h401.691V.827H0z"/></defs><g fill="none" fill-rule="evenodd"><text font-family="MrEavesModOT-Bold, Mr Eaves Mod OT" font-size="18" font-weight="bold" letter-spacing="-.015" fill="#133339" transform="translate(-10 -1)"><tspan x="49.924" y="143.295">A</tspan> <tspan x="61.105" y="143.295" letter-spacing=".026">g</tspan> <tspan x="69.969" y="143.295">e</tspan></text><text font-family="MrEavesModOT-Reg, Mr Eaves Mod OT" font-size="18" letter-spacing="-.32" fill="#133339" transform="translate(-10 -1)"><tspan x="16.59" y="161.295">1</tspan> <tspan x="21.167" y="161.295" letter-spacing="-.01">8</tspan> <tspan x="30.751" y="161.295" letter-spacing="-.561">-</tspan> <tspan x="35.41" y="161.295" letter-spacing="-.287">2</tspan> <tspan x="43.277" y="161.295" letter-spacing="-.01">9 </tspan> <tspan x="55.569" y="161.295" letter-spacing="-.242">y</tspan> <tspan x="62.041" y="161.295" letter-spacing="-.134">e</tspan> <tspan x="69.376" y="161.295" letter-spacing="-.087">a</tspan> <tspan x="77.821" y="161.295" letter-spacing="-.033">r</tspan> <tspan x="83.026" y="161.295" letter-spacing="-.01">s </tspan> <tspan x="92.15" y="161.295" letter-spacing="-.046">o</tspan> <tspan x="100.6" y="161.295" letter-spacing="-.073">l</tspan> <tspan x="104.109" y="161.295" letter-spacing="-.01">d</tspan></text><text font-family="MrEavesModOT-Bold, Mr Eaves Mod OT" font-size="18" font-weight="bold" letter-spacing="-.725" fill="#133339" transform="translate(-10 -1)"><tspan x="285.385" y="372.597">W</tspan> <tspan x="299.041" y="372.597" letter-spacing="-.075">a</tspan> <tspan x="307.786" y="372.597" letter-spacing="-.174">t</tspan> <tspan x="313.048" y="372.597" letter-spacing=".119">c</tspan> <tspan x="320.169" y="372.597" letter-spacing=".058">h</tspan> <tspan x="328.921" y="372.597" letter-spacing="1.012"> </tspan> <tspan x="333.047" y="372.597" letter-spacing="-.014">an</tspan> <tspan x="350.533" y="372.597" letter-spacing="-.032">i</tspan> <tspan x="354.641" y="372.597" letter-spacing="-.014">m</tspan> <tspan x="367.407" y="372.597" letter-spacing="-.495">e</tspan> <tspan x="374.563" y="372.597" letter-spacing=".238">?</tspan> <tspan x="382.793" y="372.597" letter-spacing="-.014"> </tspan></text><text font-family="MrEavesModOT-Reg, Mr Eaves Mod OT" font-size="18" letter-spacing="-.094" fill="#133339" transform="translate(-10 -1)"><tspan x="322.033" y="390.597">Y</tspan> <tspan x="329.822" y="390.597" letter-spacing="1.323">e</tspan> <tspan x="338.615" y="390.597">s</tspan></text><g fill="#133339" font-size="18"><text font-family="MrEavesModOT-Bold, Mr Eaves Mod OT" font-weight="bold" letter-spacing="-.274" transform="translate(25 584.173)"><tspan x=".371" y="15.16">e</tspan> <tspan x="7.747" y="15.16" letter-spacing="-.034">c</tspan> <tspan x="14.714" y="15.16" letter-spacing="-.564">e</tspan> <tspan x="21.801" y="15.16" letter-spacing="-.011">?</tspan></text><text font-family="MrEavesModOT-Bold, Mr Eaves Mod OT" font-weight="bold" letter-spacing="-.017" transform="translate(157 584.173)"><tspan x=".138" y="15.16">a</tspan> <tspan x="8.941" y="15.16" letter-spacing=".332">t</tspan> <tspan x="14.709" y="15.16" letter-spacing=".055">o</tspan> <tspan x="23.26" y="15.16">r</tspan> <tspan x="28.877" y="15.16" letter-spacing="-.345">m</tspan> <tspan x="41.313" y="15.16">?</tspan></text><text font-family="MrEavesModOT-Reg, Mr Eaves Mod OT" letter-spacing="-.033" transform="translate(157 584.173)"><tspan x="15.058" y="33.16">e</tspan> <tspan x="22.495" y="33.16" letter-spacing=".804">t</tspan></text><g><text font-family="MrEavesModOT-Bold, Mr Eaves Mod OT" font-weight="bold" letter-spacing="-.051" transform="translate(292 584.173)"><tspan x=".37" y="15.16">e</tspan> <tspan x="7.969" y="15.16" letter-spacing="-.126">a</tspan> <tspan x="16.663" y="15.16" letter-spacing="-.198">t</tspan> <tspan x="21.901" y="15.16" letter-spacing="-.061">u</tspan> <tspan x="30.533" y="15.16" letter-spacing="-.011">r</tspan> <tspan x="36.066" y="15.16" letter-spacing="-.564">e</tspan> <tspan x="43.153" y="15.16" letter-spacing="-.011">?</tspan></text><text font-family="MrEavesModOT-Reg, Mr Eaves Mod OT" letter-spacing="-.018" transform="translate(292 584.173)"><tspan x="26.695" y="33.16">--</tspan></text></g></g><text font-family="MrEavesModOT-Bold, Mr Eaves Mod OT" font-size="18" font-weight="bold" letter-spacing=".089" fill="#133339" transform="translate(-10 -1)"><tspan x="173.829" y="143.295">G</tspan> <tspan x="185.941" y="143.295" letter-spacing="-.014">e</tspan> <tspan x="193.577" y="143.295" letter-spacing=".004">n</tspan> <tspan x="202.275" y="143.295" letter-spacing=".018">d</tspan> <tspan x="211.114" y="143.295" letter-spacing="-.014">er</tspan></text><text font-family="MrEavesModOT-Reg, Mr Eaves Mod OT" font-size="18" letter-spacing="-.434" fill="#133339" transform="translate(-10 -1)"><tspan x="175.611" y="161.295">F</tspan> <tspan x="182.358" y="161.295" letter-spacing="-.024">e</tspan> <tspan x="189.804" y="161.295" letter-spacing=".01">m</tspan> <tspan x="202.271" y="161.295" letter-spacing="-.015">a</tspan> <tspan x="210.788" y="161.295" letter-spacing=".03">l</tspan> <tspan x="214.4" y="161.295" letter-spacing="-.015">e</tspan></text><text font-family="MrEavesModOT-Bold, Mr Eaves Mod OT" font-size="18" font-weight="bold" letter-spacing="-.014" fill="#133339" transform="translate(-10 -1)"><tspan x="294.447" y="143.295">O</tspan> <tspan x="307.501" y="143.295" letter-spacing=".008">c</tspan> <tspan x="314.51" y="143.295" letter-spacing=".063">c</tspan> <tspan x="321.576" y="143.295">u</tspan> <tspan x="330.256" y="143.295" letter-spacing=".026">p</tspan> <tspan x="339.101" y="143.295" letter-spacing="-.075">a</tspan> <tspan x="347.846" y="143.295" letter-spacing="-.093">t</tspan> <tspan x="353.189" y="143.295" letter-spacing=".027">i</tspan> <tspan x="357.356" y="143.295" letter-spacing=".004">o</tspan> <tspan x="365.856" y="143.295">n</tspan></text><text font-family="MrEavesModOT-Reg, Mr Eaves Mod OT" font-size="18" letter-spacing=".039" fill="#133339" transform="translate(-10 -1)"><tspan x="308.829" y="161.295">S</tspan> <tspan x="317.453" y="161.295" letter-spacing=".064">t</tspan> <tspan x="322.557" y="161.295" letter-spacing=".237">u</tspan> <tspan x="331.11" y="161.295" letter-spacing=".255">d</tspan> <tspan x="339.896" y="161.295" letter-spacing=".197">e</tspan> <tspan x="347.563" y="161.295" letter-spacing="-.028">nt</tspan></text><text font-family="MrEavesModOT-Bold, Mr Eaves Mod OT" font-size="18" font-weight="bold" letter-spacing=".118" fill="#133339" transform="translate(-10 -1)"><tspan x="35.841" y="372.615">L</tspan> <tspan x="44.4" y="372.615" letter-spacing="-.012">o</tspan> <tspan x="52.884" y="372.615" letter-spacing=".015">c</tspan> <tspan x="59.901" y="372.615" letter-spacing="-.109">a</tspan> <tspan x="68.612" y="372.615" letter-spacing="-.127">t</tspan> <tspan x="73.921" y="372.615" letter-spacing="-.012">i</tspan> <tspan x="78.049" y="372.615" letter-spacing="-.03">o</tspan> <tspan x="86.515" y="372.615" letter-spacing="-.012">n</tspan></text><text font-family="MrEavesModOT-Reg, Mr Eaves Mod OT" font-size="18" letter-spacing=".228" fill="#133339" transform="translate(-10 -1)"><tspan x="40.989" y="390.615">C</tspan> <tspan x="52.197" y="390.615" letter-spacing=".729">A</tspan> <tspan x="63.51" y="390.615" letter-spacing=".192">/</tspan> <tspan x="69.642" y="390.615" letter-spacing="-.02">US</tspan></text><text font-family="MrEavesModOT-Bold, Mr Eaves Mod OT" font-size="18" font-weight="bold" letter-spacing="-.183" fill="#133339" transform="translate(-10 -1)"><tspan x="171.183" y="372.615">E</tspan> <tspan x="179.73" y="372.615" letter-spacing="-.014">du</tspan> <tspan x="197.216" y="372.615" letter-spacing=".051">c</tspan> <tspan x="204.268" y="372.615" letter-spacing="-.075">a</tspan> <tspan x="213.013" y="372.615" letter-spacing="-.093">t</tspan> <tspan x="218.356" y="372.615" letter-spacing=".027">i</tspan> <tspan x="222.523" y="372.615" letter-spacing=".004">o</tspan> <tspan x="231.023" y="372.615" letter-spacing="-.014">n</tspan></text><text font-family="MrEavesModOT-Reg, Mr Eaves Mod OT" font-size="18" letter-spacing=".295" fill="#133339" transform="translate(-10 -1)"><tspan x="179.607" y="390.615">M</tspan> <tspan x="193.438" y="390.615" letter-spacing=".212">a</tspan> <tspan x="202.182" y="390.615" letter-spacing=".119">s</tspan> <tspan x="208.331" y="390.615" letter-spacing="-.027">t</tspan> <tspan x="213.344" y="390.615" letter-spacing=".178">e</tspan> <tspan x="220.992" y="390.615" letter-spacing=".256">r</tspan> <tspan x="226.486" y="390.615" letter-spacing="-.027">s</tspan></text><path d="M323.13 106.41c29.044 0 52.588-23.544 52.588-52.587 0-29.043-23.544-52.587-52.587-52.587-29.043 0-52.587 23.544-52.587 52.587 0 29.043 23.544 52.587 52.587 52.587" fill="#FEFEFE"/><path d="M323.13 106.41c29.044 0 52.588-23.544 52.588-52.587 0-29.043-23.544-52.587-52.587-52.587-29.043 0-52.587 23.544-52.587 52.587 0 29.043 23.544 52.587 52.587 52.587z" stroke="#133339" stroke-width="1.238" stroke-linecap="round" stroke-linejoin="round"/><path d="M375.718 53.786c0-28.863-23.256-52.285-52.051-52.574V106.36c28.795-.288 52.05-23.71 52.05-52.573" fill="#F9F8F8"/><path d="M375.718 53.786c0-28.863-23.256-52.285-52.051-52.574V106.36c28.795-.288 52.05-23.71 52.05-52.573z" stroke="#133339" stroke-width="1.238" stroke-linecap="round" stroke-linejoin="round"/><text font-family="MrEavesModOT-Bold, Mr Eaves Mod OT" font-size="12.377" font-weight="bold" letter-spacing=".127" fill="#133339" transform="translate(-10 -1)"><tspan x="295.087" y="54.669">5</tspan> <tspan x="301.279" y="54.669" letter-spacing="-.014">0%</tspan></text><path d="M54.168 335.716c29.568 0 53.538-23.97 53.538-53.54 0-29.567-23.97-53.537-53.538-53.537C24.6 228.639.63 252.609.63 282.177c0 29.569 23.97 53.539 53.538 53.539" fill="#F9F8F8"/><path d="M54.168 335.716c29.568 0 53.538-23.97 53.538-53.54 0-29.567-23.97-53.537-53.538-53.537C24.6 228.639.63 252.609.63 282.177c0 29.569 23.97 53.539 53.538 53.539z" stroke="#133339" stroke-width="1.26" stroke-linecap="round" stroke-linejoin="round"/><path d="M107.707 282.139c0-29.385-23.677-53.23-52.992-53.524v54.07l26.911 45.4c15.618-9.348 26.08-26.42 26.08-45.946" fill="#FEFEFE"/><path d="M107.707 282.139c0-29.385-23.677-53.23-52.992-53.524v54.07l26.911 45.4c15.618-9.348 26.08-26.42 26.08-45.946z" stroke="#133339" stroke-width="1.26" stroke-linecap="round" stroke-linejoin="round"/><path d="M29.035 329.392C3.09 315.597-6.849 283.498 6.655 257.476l47.741 25.384 27.451 45.078c-15.586 9.4-35.57 10.623-52.812 1.456" fill="#FEFEFE"/><path d="M29.035 329.392C3.09 315.597-6.849 283.498 6.655 257.476l47.741 25.384 27.451 45.078c-15.586 9.4-35.57 10.623-52.812 1.456z" stroke="#133339" stroke-width="1.26" stroke-linecap="round" stroke-linejoin="round"/><text font-family="MrEavesModOT-Bold, Mr Eaves Mod OT" font-size="12.6" font-weight="bold" letter-spacing=".049" fill="#133339" transform="translate(-10 -1)"><tspan x="28.403" y="293.614">3</tspan> <tspan x="34.689" y="293.614" letter-spacing="-.013">9%</tspan></text><text font-family="MrEavesModOT-Bold, Mr Eaves Mod OT" font-size="12.6" font-weight="bold" letter-spacing=".049" fill="#133339" transform="translate(-10 -1)"><tspan x="85.634" y="276.364">3</tspan> <tspan x="91.92" y="276.364" letter-spacing="-.013">9%</tspan></text><path d="M54.084 282.177L40.35 231.339" stroke="#133339" stroke-width="1.26" stroke-linecap="round" stroke-linejoin="round"/><path d="M194.672 335.723c29.211 0 52.892-23.681 52.892-52.892 0-29.212-23.681-52.892-52.892-52.892-29.211 0-52.892 23.68-52.892 52.892 0 29.21 23.681 52.892 52.892 52.892" fill="#F7F7F7"/><path d="M194.672 335.723c29.211 0 52.892-23.681 52.892-52.892 0-29.212-23.681-52.892-52.892-52.892-29.211 0-52.892 23.68-52.892 52.892 0 29.21 23.681 52.892 52.892 52.892z" stroke="#133339" stroke-width="1.245" stroke-linecap="round" stroke-linejoin="round"/><path d="M247.564 282.794c0-29.03-23.391-52.587-52.353-52.878v53.567l36.97 36.593c9.507-9.56 15.383-22.733 15.383-37.282" fill="#FEFEFE"/><path d="M247.564 282.794c0-29.03-23.391-52.587-52.353-52.878v53.567l36.97 36.593c9.507-9.56 15.383-22.733 15.383-37.282z" stroke="#133339" stroke-width="1.245" stroke-linecap="round" stroke-linejoin="round"/><path d="M194.658 335.723c-29.03 0-52.587-23.391-52.878-52.353h53.567l36.593 36.97c-9.56 9.507-22.733 15.383-37.282 15.383" fill="#FEFEFE"/><path d="M194.658 335.723c-29.03 0-52.587-23.391-52.878-52.353h53.567l36.593 36.97c-9.56 9.507-22.733 15.383-37.282 15.383z" stroke="#133339" stroke-width="1.245" stroke-linecap="round" stroke-linejoin="round"/><text font-family="MrEavesModOT-Bold, Mr Eaves Mod OT" font-size="12.448" font-weight="bold" letter-spacing=".121" fill="#133339" transform="translate(-10 -1)"><tspan x="182.028" y="308.761">3</tspan> <tspan x="188.311" y="308.761" letter-spacing="-.015">3%</tspan></text><text font-family="MrEavesModOT-Bold, Mr Eaves Mod OT" font-size="12.448" font-weight="bold" letter-spacing=".121" fill="#133339" transform="translate(-10 -1)"><tspan x="220.108" y="271.055">3</tspan> <tspan x="226.39" y="271.055" letter-spacing="-.015">3%</tspan></text><path d="M194.672 282.831l-28.315-43.949" stroke="#133339" stroke-width="1.245" stroke-linecap="round" stroke-linejoin="round"/><g><path d="M53.514 106.407c29.211 0 52.892-23.681 52.892-52.892 0-29.212-23.68-52.892-52.892-52.892C24.304.623.622 24.303.622 53.515c0 29.21 23.681 52.892 52.892 52.892" fill="#FEFEFE"/><path d="M53.514 106.407c29.211 0 52.892-23.681 52.892-52.892 0-29.212-23.68-52.892-52.892-52.892C24.304.623.622 24.303.622 53.515c0 29.21 23.681 52.892 52.892 52.892z" stroke="#133339" stroke-width="1.245" stroke-linecap="round" stroke-linejoin="round"/><path d="M54.031 53.462L66.479 2.21s21.162 2.704 34.855 27.601c-31.12 14.938-47.303 23.652-47.303 23.652" fill="#F9F8F8"/><path d="M54.031 53.462L66.479 2.21s21.162 2.704 34.855 27.601c-31.12 14.938-47.303 23.652-47.303 23.652z" stroke="#133339" stroke-width="1.245" stroke-linecap="round" stroke-linejoin="round"/></g><path d="M54.965 52.217l32.739-39.213" stroke="#133339" stroke-width="1.245" stroke-linecap="round" stroke-linejoin="round"/><text font-family="MrEavesModOT-Bold, Mr Eaves Mod OT" font-size="12.448" font-weight="bold" letter-spacing=".11" fill="#133339" transform="translate(-10 -1)"><tspan x="43.118" y="73.967">8</tspan> <tspan x="50.137" y="73.967" letter-spacing="-.019">9</tspan> <tspan x="56.405" y="73.967" letter-spacing=".48">.</tspan> <tspan x="60.047" y="73.967" letter-spacing=".058">2</tspan> <tspan x="65.955" y="73.967" letter-spacing="-.019">%</tspan></text><g><g transform="translate(-9 -.827)"><path d="M63.822 564.55c29.211 0 52.892-23.68 52.892-52.891 0-29.212-23.68-52.892-52.892-52.892-29.21 0-52.892 23.68-52.892 52.892 0 29.21 23.681 52.892 52.892 52.892" fill="#F7F7F7"/><path d="M63.822 564.55c29.211 0 52.892-23.68 52.892-52.891 0-29.212-23.68-52.892-52.892-52.892-29.21 0-52.892 23.68-52.892 52.892 0 29.21 23.681 52.892 52.892 52.892z" stroke="#133339" stroke-width="1.245" stroke-linecap="round" stroke-linejoin="round"/><path d="M116.714 511.621c0-29.03-23.39-52.587-52.353-52.878v53.418l26.588 44.852c15.43-9.236 25.765-26.1 25.765-45.392" fill="#FEFEFE"/><path d="M116.714 511.621c0-29.03-23.39-52.587-52.353-52.878v53.418l26.588 44.852c15.43-9.236 25.765-26.1 25.765-45.392z" stroke="#133339" stroke-width="1.245" stroke-linecap="round" stroke-linejoin="round"/><mask id="b" fill="#fff"><use xlink:href="#a"/></mask><text mask="url(#b)" font-family="MrEavesModOT-Bold, Mr Eaves Mod OT" font-size="12.448" font-weight="bold" letter-spacing="-.014" fill="#133339"><tspan x="77.91" y="504.06">0%</tspan></text><path d="M64.124 511.822L41.017 465.21M63.85 512.166l-41.746 30.019M64.362 512.281l-49.615-18.82" stroke="#133339" stroke-width="1.245" stroke-linecap="round" stroke-linejoin="round" mask="url(#b)"/></g><g transform="translate(-9 -.827)"><path d="M202.902 564.56c28.791 0 52.131-23.34 52.131-52.132 0-28.79-23.34-52.13-52.13-52.13-28.792 0-52.132 23.34-52.132 52.13 0 28.791 23.34 52.131 52.131 52.131" fill="#F7F7F7"/><path d="M202.902 564.56c28.791 0 52.131-23.34 52.131-52.132 0-28.79-23.34-52.13-52.13-52.13-28.792 0-52.132 23.34-52.132 52.13 0 28.791 23.34 52.131 52.131 52.131z" stroke="#133339" stroke-width="1.227" stroke-linecap="round" stroke-linejoin="round"/><path d="M255.033 512.392c0-28.613-23.055-51.831-51.6-52.118v52.65l26.206 44.207c15.207-9.103 25.394-25.725 25.394-44.74" fill="#FEFEFE"/><path d="M255.033 512.392c0-28.613-23.055-51.831-51.6-52.118v52.65l26.206 44.207c15.207-9.103 25.394-25.725 25.394-44.74z" stroke="#133339" stroke-width="1.227" stroke-linecap="round" stroke-linejoin="round"/><mask id="d" fill="#fff"><use xlink:href="#c"/></mask><text mask="url(#d)" font-family="MrEavesModOT-Bold, Mr Eaves Mod OT" font-size="12.269" font-weight="bold" letter-spacing="-.014" fill="#133339"><tspan x="216.785" y="505.083">0%</tspan></text><path d="M203.2 512.589l-22.776-45.941M202.93 512.929l-41.145 29.587M203.434 513.042l-48.901-18.552" stroke="#133339" stroke-width="1.227" stroke-linecap="round" stroke-linejoin="round" mask="url(#d)"/></g><g transform="translate(-9 -.827)"><path d="M332.593 564.547c29.296 0 53.044-23.749 53.044-53.044 0-29.296-23.748-53.045-53.044-53.045-29.296 0-53.044 23.75-53.044 53.045s23.748 53.044 53.044 53.044" fill="#F7F7F7"/><path d="M332.593 564.547c29.296 0 53.044-23.749 53.044-53.044 0-29.296-23.748-53.045-53.044-53.045-29.296 0-53.044 23.75-53.044 53.045s23.748 53.044 53.044 53.044z" stroke="#133339" stroke-width="1.248" stroke-linecap="round" stroke-linejoin="round"/><path d="M385.637 511.465c0-29.114-23.458-52.739-52.503-53.03v53.572l26.664 44.981c15.473-9.263 25.84-26.176 25.84-45.523" fill="#FEFEFE"/><path d="M385.637 511.465c0-29.114-23.458-52.739-52.503-53.03v53.572l26.664 44.981c15.473-9.263 25.84-26.176 25.84-45.523z" stroke="#133339" stroke-width="1.248" stroke-linecap="round" stroke-linejoin="round"/><mask id="f" fill="#fff"><use xlink:href="#e"/></mask><text mask="url(#f)" font-family="MrEavesModOT-Bold, Mr Eaves Mod OT" font-size="12.484" font-weight="bold" letter-spacing="-.014" fill="#133339"><tspan x="346.722" y="503.854">0%</tspan></text><path d="M332.895 511.667l-23.174-46.748M332.621 512.013l-41.866 30.105M333.134 512.128l-49.758-18.876" stroke="#133339" stroke-width="1.248" stroke-linecap="round" stroke-linejoin="round" mask="url(#f)"/></g></g><g><path d="M188.473 106.407c29.189 0 52.85-23.662 52.85-52.851 0-29.19-23.661-52.851-52.85-52.851-29.19 0-52.851 23.662-52.851 52.85 0 29.19 23.662 52.852 52.85 52.852" fill="#FEFEFE"/><path d="M188.473 106.407c29.189 0 52.85-23.662 52.85-52.851 0-29.19-23.661-52.851-52.85-52.851-29.19 0-52.851 23.662-52.851 52.85 0 29.19 23.662 52.852 52.85 52.852z" stroke="#133339" stroke-width="1.244" stroke-linecap="round" stroke-linejoin="round"/></g><text font-family="MrEavesModOT-Bold, Mr Eaves Mod OT" font-size="12.439" font-weight="bold" letter-spacing=".037" fill="#133339" transform="translate(-10 -1)"><tspan x="165.724" y="69.23">6</tspan> <tspan x="172.416" y="69.23" letter-spacing=".335">2</tspan> <tspan x="178.597" y="69.23" letter-spacing=".094">.</tspan> <tspan x="181.477" y="69.23" letter-spacing="-.013">9%</tspan></text><g><path d="M233.817 80.001l-44.722-26.444h52.229s-1.25 15.241-7.507 26.444" fill="#F9F8F8"/><path d="M233.817 80.001l-44.722-26.444h52.229s-1.25 15.241-7.507 26.444z" stroke="#133339" stroke-width="1.244" stroke-linecap="round" stroke-linejoin="round"/><path d="M189.095 53.543h52.312c0-29.008-23.373-52.547-52.312-52.837v52.837z" fill="#F9F8F8"/><path d="M189.095 53.543h52.312c0-29.008-23.373-52.547-52.312-52.837v52.837z" stroke="#133339" stroke-width="1.244" stroke-linecap="round" stroke-linejoin="round"/><path d="M323.593 335.721c29.296 0 53.044-23.749 53.044-53.044 0-29.296-23.748-53.045-53.044-53.045-29.296 0-53.044 23.75-53.044 53.045s23.748 53.044 53.044 53.044" fill="#FEFEFE"/><path d="M323.593 335.721c29.296 0 53.044-23.749 53.044-53.044 0-29.296-23.748-53.045-53.044-53.045-29.296 0-53.044 23.75-53.044 53.045s23.748 53.044 53.044 53.044z" stroke="#133339" stroke-width="1.248" stroke-linecap="round" stroke-linejoin="round"/></g><text font-family="MrEavesModOT-Bold, Mr Eaves Mod OT" font-size="12.38" font-weight="bold" letter-spacing=".107" fill="#133339" transform="translate(-10 -1)"><tspan x="322.341" y="291.874">9</tspan> <tspan x="329.072" y="291.874" letter-spacing=".447">2</tspan> <tspan x="335.338" y="291.874" letter-spacing=".157">.</tspan> <tspan x="338.639" y="291.874" letter-spacing="-.023">6%</tspan></text><g><path d="M332.32 231.396l-8.833 51.279 29.975-43.244s-5.642-8.035-21.142-8.035" fill="#F9F8F8"/><path d="M332.32 231.396l-8.833 51.279 29.975-43.244s-5.642-8.035-21.142-8.035z" stroke="#231F20" stroke-width="1.594"/></g></g></svg>