<svg width="191" height="517" xmlns="http://www.w3.org/2000/svg" xmlns:xlink="http://www.w3.org/1999/xlink"><defs><path id="a" d="M.313.709H188.33V72H.313z"/></defs><g fill="none" fill-rule="evenodd"><path d="M9.476 1.884S1 1.884 1 10.36v57.726s0 8.476 8.476 8.476h171.692s8.476 0 8.476-8.476V10.36s0-8.476-8.476-8.476H9.476z" fill="#FEFEFE"/><path d="M9.476 1.884S1 1.884 1 10.36v57.726s0 8.476 8.476 8.476h171.692s8.476 0 8.476-8.476V10.36s0-8.476-8.476-8.476H9.476z" stroke="#000" stroke-width="2" stroke-linecap="round" stroke-linejoin="round"/><text font-family="MrEavesModOT-Bold, Mr Eaves Mod OT" font-size="17.9" font-weight="bold" fill="#000" transform="translate(1 1)"><tspan x="19" y="43">Add all new simulcasts</tspan></text><path d="M9.476 151.254S1 151.254 1 159.73v54.966s0 8.476 8.476 8.476h171.692s8.476 0 8.476-8.476V159.73s0-8.476-8.476-8.476H9.476z" fill="#FEFEFE"/><path d="M9.476 151.254S1 151.254 1 159.73v54.966s0 8.476 8.476 8.476h171.692s8.476 0 8.476-8.476V159.73s0-8.476-8.476-8.476H9.476z" stroke="#000" stroke-width="2" stroke-linecap="round" stroke-linejoin="round"/><text font-family="MrEavesModOT-Bold, Mr Eaves Mod OT" font-size="17.9" font-weight="bold" fill="#000" transform="translate(1 1)"><tspan x="54" y="192">Go to queue</tspan></text><g transform="translate(1 445)"><mask id="b" fill="#fff"><use xlink:href="#a"/></mask><path d="M8.79.709S.312.709.312 9.185v54.339s0 8.477 8.476 8.477h171.065s8.475 0 8.475-8.477V9.185s0-8.476-8.475-8.476H8.79z" fill="#000" mask="url(#b)"/></g><text font-family="MrEavesModOT-Bold, Mr Eaves Mod OT" font-size="17.9" font-weight="bold" fill="#FEFEFE" transform="translate(1 1)"><tspan x="67" y="485">Save list</tspan></text><path d="M9.476 298S1 298 1 306.476v54.966s0 8.476 8.476 8.476h171.692s8.476 0 8.476-8.476v-54.966s0-8.476-8.476-8.476H9.476z" fill="#FEFEFE"/><path d="M9.476 298S1 298 1 306.476v54.966s0 8.476 8.476 8.476h171.692s8.476 0 8.476-8.476v-54.966s0-8.476-8.476-8.476H9.476z" stroke="#000" stroke-width="2" stroke-linecap="round" stroke-linejoin="round"/><text font-family="MrEavesModOT-Bold, Mr Eaves Mod OT" font-size="17.9" font-weight="bold" fill="#000" transform="translate(1 1)"><tspan x="23" y="338">Adjust order by genre</tspan></text><g stroke="#000" stroke-linecap="round" stroke-linejoin="round" stroke-width="2"><path d="M94.723 85v57.336M99.447 137.255l-4.724 5.081-4.723-5.08"/></g><g stroke="#000" stroke-linecap="round" stroke-linejoin="round" stroke-width="2"><path d="M94.723 232v57.472M99.447 284.392l-4.724 5.08-4.723-5.08"/></g><g stroke="#000" stroke-linecap="round" stroke-linejoin="round" stroke-width="2"><path d="M94.723 379v57.472M99.447 431.392l-4.724 5.08-4.723-5.08"/></g></g></svg>