<svg width="462" height="518" xmlns="http://www.w3.org/2000/svg"><g fill="none" fill-rule="evenodd"><path d="M283.41 442.56s-10.792 0-10.792 10.793v52.502s0 10.793 10.793 10.793h166.468s10.793 0 10.793-10.793v-52.502s0-10.793-10.793-10.793H283.41z" fill="#FEFEFE"/><path d="M283.41 442.56s-10.792 0-10.792 10.793v52.502s0 10.793 10.793 10.793h166.468s10.793 0 10.793-10.793v-52.502s0-10.793-10.793-10.793H283.41z" stroke="#000" stroke-width="2" stroke-linecap="round" stroke-linejoin="round"/><text font-family="MrEavesModOT-Bold, Mr Eaves Mod OT" font-size="17.9" font-weight="bold" fill="#000" transform="translate(272 442)"><tspan x="14" y="43">I</tspan> <tspan x="18.547" y="43" letter-spacing="-.269">n</tspan> <tspan x="26.655" y="43">vite video commenters</tspan></text><path d="M12.377 442.328s-10.793 0-10.793 10.793v52.502s0 10.793 10.793 10.793h166.468s10.793 0 10.793-10.793v-52.502s0-10.793-10.793-10.793H12.377z" fill="#000"/><path d="M12.377 442.328s-10.793 0-10.793 10.793v52.502s0 10.793 10.793 10.793h166.468s10.793 0 10.793-10.793v-52.502s0-10.793-10.793-10.793H12.377z" stroke="#133339" stroke-width="1.168" stroke-linecap="round" stroke-linejoin="round"/><text font-family="MrEavesModOT-Bold, Mr Eaves Mod OT" font-size="17.9" font-weight="bold" fill="#FEFEFE" transform="translate(1 442)"><tspan x="50" y="43">Post to forum</tspan></text><path d="M11.808 150.602s-10.793 0-10.793 10.793v52.502s0 10.793 10.793 10.793h166.468s10.793 0 10.793-10.793v-52.502s0-10.793-10.793-10.793H11.808z" fill="#FEFEFE"/><path d="M11.808 150.602s-10.793 0-10.793 10.793v52.502s0 10.793 10.793 10.793h166.468s10.793 0 10.793-10.793v-52.502s0-10.793-10.793-10.793H11.808z" stroke="#000" stroke-width="2" stroke-linecap="round" stroke-linejoin="round"/><text font-family="MrEavesModOT-Bold, Mr Eaves Mod OT" font-size="17.9" font-weight="bold" fill="#000" transform="translate(1 150)"><tspan x="21" y="43">Engage w/ other users</tspan></text><path d="M12.342 296.328s-10.793 0-10.793 10.793v52.502s0 10.793 10.793 10.793H178.81s10.793 0 10.793-10.793v-52.502s0-10.793-10.793-10.793H12.342z" fill="#FEFEFE"/><path d="M12.342 296.328s-10.793 0-10.793 10.793v52.502s0 10.793 10.793 10.793H178.81s10.793 0 10.793-10.793v-52.502s0-10.793-10.793-10.793H12.342z" stroke="#000" stroke-width="2" stroke-linecap="round" stroke-linejoin="round"/><text font-family="MrEavesModOT-Bold, Mr Eaves Mod OT" font-size="17.9" font-weight="bold" fill="#000" transform="translate(1 296)"><tspan x="44" y="43">Share to forum</tspan></text><path d="M282.842 296.328s-10.793 0-10.793 10.793v52.502s0 10.793 10.793 10.793H449.31s10.793 0 10.793-10.793v-52.502s0-10.793-10.793-10.793H282.842z" fill="#FEFEFE"/><path d="M282.842 296.328s-10.793 0-10.793 10.793v52.502s0 10.793 10.793 10.793H449.31s10.793 0 10.793-10.793v-52.502s0-10.793-10.793-10.793H282.842z" stroke="#000" stroke-width="2" stroke-linecap="round" stroke-linejoin="round"/><text font-family="MrEavesModOT-Bold, Mr Eaves Mod OT" font-size="17.9" font-weight="bold" fill="#000" transform="translate(272 296)"><tspan x="32" y="43">Format forum post</tspan></text><path d="M282.487 1.603s-10.793 0-10.793 10.792v52.502s0 10.794 10.793 10.794h166.468s10.793 0 10.793-10.793V12.396s0-10.793-10.793-10.793H282.487z" fill="#FEFEFE"/><path d="M282.487 1.603s-10.793 0-10.793 10.792v52.502s0 10.794 10.793 10.794h166.468s10.793 0 10.793-10.793V12.396s0-10.793-10.793-10.793H282.487z" stroke="#000" stroke-width="2" stroke-linecap="round" stroke-linejoin="round"/><text font-family="MrEavesModOT-Bold, Mr Eaves Mod OT" font-size="17.9" font-weight="bold" fill="#000" transform="translate(271.61 1)"><tspan x="45" y="43">Watch episode</tspan></text><g><path d="M282.842 150.602s-10.793 0-10.793 10.793v52.502s0 10.794 10.793 10.794H449.31s10.793 0 10.793-10.793v-52.502s0-10.793-10.793-10.793H282.842z" fill="#FEFEFE"/><path d="M282.842 150.602s-10.793 0-10.793 10.793v52.502s0 10.794 10.793 10.794H449.31s10.793 0 10.793-10.793v-52.502s0-10.793-10.793-10.793H282.842z" stroke="#000" stroke-width="2" stroke-linecap="round" stroke-linejoin="round"/><text font-family="MrEavesModOT-Bold, Mr Eaves Mod OT" font-size="17.9" font-weight="bold" fill="#000" transform="translate(272 150)"><tspan x="36" y="43">Leave a comment</tspan></text></g><g><path d="M12.144 1.603S1.35 1.603 1.35 12.395v52.502s0 10.794 10.793 10.794h166.468s10.793 0 10.793-10.793V12.396s0-10.793-10.793-10.793H12.144z" fill="#FEFEFE"/><path d="M12.144 1.603S1.35 1.603 1.35 12.395v52.502s0 10.794 10.793 10.794h166.468s10.793 0 10.793-10.793V12.396s0-10.793-10.793-10.793H12.144z" stroke="#000" stroke-width="2" stroke-linecap="round" stroke-linejoin="round"/><text font-family="MrEavesModOT-Bold, Mr Eaves Mod OT" font-size="17.9" font-weight="bold" fill="#000" transform="translate(1 1)"><tspan x="52" y="43">Select anime</tspan></text></g><path d="M206 36.773h47.395M247.953 31.713l5.442 5.06-5.442 5.06" stroke="#000" stroke-width="2.336" stroke-linecap="round" stroke-linejoin="round"/><g stroke="#000" stroke-linecap="round" stroke-linejoin="round" stroke-width="2.336"><path d="M205 339.06h47.395M246.953 334l5.442 5.06-5.442 5.06"/></g><g stroke="#000" stroke-linecap="round" stroke-linejoin="round" stroke-width="2.336"><path d="M362.5 93.453V131M367 128l-5 4-5-4"/></g><g stroke="#000" stroke-linecap="round" stroke-linejoin="round" stroke-width="2.336"><path d="M362.5 385.453V423M367 420l-5 4-5-4"/></g><g stroke="#000" stroke-linecap="round" stroke-linejoin="round" stroke-width="2.336"><path d="M96.5 241.453V279M101 276l-5 4-5-4"/></g><g stroke="#000" stroke-linecap="round" stroke-linejoin="round" stroke-width="2.336"><path d="M252.395 193.06H205M210.442 188L205 193.06l5.442 5.06"/></g><g stroke="#000" stroke-linecap="round" stroke-linejoin="round" stroke-width="2.336"><path d="M252.395 479.06H205M210.442 474L205 479.06l5.442 5.06"/></g></g></svg>