<?xml version="1.0" encoding="UTF-8"?>
<svg width="462px" height="518px" viewBox="0 0 462 518" version="1.1" xmlns="http://www.w3.org/2000/svg" xmlns:xlink="http://www.w3.org/1999/xlink">
    <!-- Generator: Sketch 54.1 (76490) - https://sketchapp.com -->
    <title>cr-user-task-2</title>
    <desc>Created with Sketch.</desc>
    <g id="Desktop" stroke="none" stroke-width="1" fill="none" fill-rule="evenodd">
        <g id="cr-user-task-2" transform="translate(1.000000, 1.000000)">
            <g id="Group-86" transform="translate(271.000000, 441.000000)">
                <g id="Group-5">
                    <path d="M11.4109,0.5605 C11.4109,0.5605 0.6179,0.5605 0.6179,11.3535 L0.6179,63.8555 C0.6179,63.8555 0.6179,74.6485 11.4109,74.6485 L177.8789,74.6485 C177.8789,74.6485 188.6719,74.6485 188.6719,63.8555 L188.6719,11.3535 C188.6719,11.3535 188.6719,0.5605 177.8789,0.5605 L11.4109,0.5605 Z" id="Fill-1" fill="#FEFEFE"></path>
                    <path d="M11.4109,0.5605 C11.4109,0.5605 0.6179,0.5605 0.6179,11.3535 L0.6179,63.8555 C0.6179,63.8555 0.6179,74.6485 11.4109,74.6485 L177.8789,74.6485 C177.8789,74.6485 188.6719,74.6485 188.6719,63.8555 L188.6719,11.3535 C188.6719,11.3535 188.6719,0.5605 177.8789,0.5605 L11.4109,0.5605 Z" id="Stroke-3" stroke="#000000" stroke-width="2" stroke-linecap="round" stroke-linejoin="round"></path>
                </g>
                <text id="Invite-video-comment" font-family="MrEavesModOT-Bold, Mr Eaves Mod OT" font-size="17.9" font-weight="bold" fill="#000000">
                    <tspan x="14" y="43">I</tspan>
                    <tspan x="18.5466" y="43" letter-spacing="-0.2685">n</tspan>
                    <tspan x="26.6553" y="43">vite video commenters</tspan>
                </text>
            </g>
            <g id="Group-85" transform="translate(0.000000, 441.000000)">
                <g id="Group-10">
                    <path d="M11.3768,0.3281 C11.3768,0.3281 0.5838,0.3281 0.5838,11.1211 L0.5838,63.6231 C0.5838,63.6231 0.5838,74.4161 11.3768,74.4161 L177.8448,74.4161 C177.8448,74.4161 188.6378,74.4161 188.6378,63.6231 L188.6378,11.1211 C188.6378,11.1211 188.6378,0.3281 177.8448,0.3281 L11.3768,0.3281 Z" id="Fill-6" fill="#000000"></path>
                    <path d="M11.3768,0.3281 C11.3768,0.3281 0.5838,0.3281 0.5838,11.1211 L0.5838,63.6231 C0.5838,63.6231 0.5838,74.4161 11.3768,74.4161 L177.8448,74.4161 C177.8448,74.4161 188.6378,74.4161 188.6378,63.6231 L188.6378,11.1211 C188.6378,11.1211 188.6378,0.3281 177.8448,0.3281 L11.3768,0.3281 Z" id="Stroke-8" stroke="#133339" stroke-width="1.168" stroke-linecap="round" stroke-linejoin="round"></path>
                </g>
                <text id="Post-to-forum" font-family="MrEavesModOT-Bold, Mr Eaves Mod OT" font-size="17.9" font-weight="bold" fill="#FEFEFE">
                    <tspan x="50" y="43">Post to forum</tspan>
                </text>
            </g>
            <g id="Group-97" transform="translate(0.000000, 149.000000)">
                <g id="Group-15">
                    <path d="M10.8077,0.6021 C10.8077,0.6021 0.0147,0.6021 0.0147,11.3951 L0.0147,63.8971 C0.0147,63.8971 0.0147,74.6901 10.8077,74.6901 L177.2757,74.6901 C177.2757,74.6901 188.0687,74.6901 188.0687,63.8971 L188.0687,11.3951 C188.0687,11.3951 188.0687,0.6021 177.2757,0.6021 L10.8077,0.6021 Z" id="Fill-11" fill="#FEFEFE"></path>
                    <path d="M10.8077,0.6021 C10.8077,0.6021 0.0147,0.6021 0.0147,11.3951 L0.0147,63.8971 C0.0147,63.8971 0.0147,74.6901 10.8077,74.6901 L177.2757,74.6901 C177.2757,74.6901 188.0687,74.6901 188.0687,63.8971 L188.0687,11.3951 C188.0687,11.3951 188.0687,0.6021 177.2757,0.6021 L10.8077,0.6021 Z" id="Stroke-13" stroke="#000000" stroke-width="2" stroke-linecap="round" stroke-linejoin="round"></path>
                </g>
                <text id="Engage-w/-other-users" font-family="MrEavesModOT-Bold, Mr Eaves Mod OT" font-size="17.9" font-weight="bold" fill="#000000">
                    <tspan x="21" y="43">Engage w/ other users</tspan>
                </text>
            </g>
            <g id="Group-94" transform="translate(0.000000, 295.000000)">
                <g id="Group-20">
                    <path d="M11.342,0.3281 C11.342,0.3281 0.549,0.3281 0.549,11.1211 L0.549,63.6231 C0.549,63.6231 0.549,74.4161 11.342,74.4161 L177.81,74.4161 C177.81,74.4161 188.603,74.4161 188.603,63.6231 L188.603,11.1211 C188.603,11.1211 188.603,0.3281 177.81,0.3281 L11.342,0.3281 Z" id="Fill-16" fill="#FEFEFE"></path>
                    <path d="M11.342,0.3281 C11.342,0.3281 0.549,0.3281 0.549,11.1211 L0.549,63.6231 C0.549,63.6231 0.549,74.4161 11.342,74.4161 L177.81,74.4161 C177.81,74.4161 188.603,74.4161 188.603,63.6231 L188.603,11.1211 C188.603,11.1211 188.603,0.3281 177.81,0.3281 L11.342,0.3281 Z" id="Stroke-18" stroke="#000000" stroke-width="2" stroke-linecap="round" stroke-linejoin="round"></path>
                </g>
                <text id="Share-to-forum" font-family="MrEavesModOT-Bold, Mr Eaves Mod OT" font-size="17.9" font-weight="bold" fill="#000000">
                    <tspan x="44" y="43">Share to forum</tspan>
                </text>
            </g>
            <g id="Group-88" transform="translate(271.000000, 295.000000)">
                <g id="Group-25">
                    <path d="M10.8422,0.3281 C10.8422,0.3281 0.0492,0.3281 0.0492,11.1211 L0.0492,63.6231 C0.0492,63.6231 0.0492,74.4161 10.8422,74.4161 L177.3102,74.4161 C177.3102,74.4161 188.1032,74.4161 188.1032,63.6231 L188.1032,11.1211 C188.1032,11.1211 188.1032,0.3281 177.3102,0.3281 L10.8422,0.3281 Z" id="Fill-21" fill="#FEFEFE"></path>
                    <path d="M10.8422,0.3281 C10.8422,0.3281 0.0492,0.3281 0.0492,11.1211 L0.0492,63.6231 C0.0492,63.6231 0.0492,74.4161 10.8422,74.4161 L177.3102,74.4161 C177.3102,74.4161 188.1032,74.4161 188.1032,63.6231 L188.1032,11.1211 C188.1032,11.1211 188.1032,0.3281 177.3102,0.3281 L10.8422,0.3281 Z" id="Stroke-23" stroke="#000000" stroke-width="2" stroke-linecap="round" stroke-linejoin="round"></path>
                </g>
                <text id="Format-forum-post" font-family="MrEavesModOT-Bold, Mr Eaves Mod OT" font-size="17.9" font-weight="bold" fill="#000000">
                    <tspan x="32" y="43">Format forum post</tspan>
                </text>
            </g>
            <g id="Group-100" transform="translate(270.610300, 0.000000)">
                <g id="Group-30">
                    <path d="M10.8766,0.6025 C10.8766,0.6025 0.0836,0.6025 0.0836,11.3955 L0.0836,63.8975 C0.0836,63.8975 0.0836,74.6905 10.8766,74.6905 L177.3446,74.6905 C177.3446,74.6905 188.1376,74.6905 188.1376,63.8975 L188.1376,11.3955 C188.1376,11.3955 188.1376,0.6025 177.3446,0.6025 L10.8766,0.6025 Z" id="Fill-26" fill="#FEFEFE"></path>
                    <path d="M10.8766,0.6025 C10.8766,0.6025 0.0836,0.6025 0.0836,11.3955 L0.0836,63.8975 C0.0836,63.8975 0.0836,74.6905 10.8766,74.6905 L177.3446,74.6905 C177.3446,74.6905 188.1376,74.6905 188.1376,63.8975 L188.1376,11.3955 C188.1376,11.3955 188.1376,0.6025 177.3446,0.6025 L10.8766,0.6025 Z" id="Stroke-28" stroke="#000000" stroke-width="2" stroke-linecap="round" stroke-linejoin="round"></path>
                </g>
                <text id="Watch-episode" font-family="MrEavesModOT-Bold, Mr Eaves Mod OT" font-size="17.9" font-weight="bold" fill="#000000">
                    <tspan x="45" y="43">Watch episode</tspan>
                </text>
            </g>
            <g id="Group-98" transform="translate(271.000000, 149.000000)">
                <g id="Group-35">
                    <path d="M10.8422,0.6025 C10.8422,0.6025 0.0492,0.6025 0.0492,11.3955 L0.0492,63.8975 C0.0492,63.8975 0.0492,74.6905 10.8422,74.6905 L177.3102,74.6905 C177.3102,74.6905 188.1032,74.6905 188.1032,63.8975 L188.1032,11.3955 C188.1032,11.3955 188.1032,0.6025 177.3102,0.6025 L10.8422,0.6025 Z" id="Fill-31" fill="#FEFEFE"></path>
                    <path d="M10.8422,0.6025 C10.8422,0.6025 0.0492,0.6025 0.0492,11.3955 L0.0492,63.8975 C0.0492,63.8975 0.0492,74.6905 10.8422,74.6905 L177.3102,74.6905 C177.3102,74.6905 188.1032,74.6905 188.1032,63.8975 L188.1032,11.3955 C188.1032,11.3955 188.1032,0.6025 177.3102,0.6025 L10.8422,0.6025 Z" id="Stroke-33" stroke="#000000" stroke-width="2" stroke-linecap="round" stroke-linejoin="round"></path>
                </g>
                <text id="Leave-a-comment" font-family="MrEavesModOT-Bold, Mr Eaves Mod OT" font-size="17.9" font-weight="bold" fill="#000000">
                    <tspan x="36" y="43">Leave a comment</tspan>
                </text>
            </g>
            <g id="Group-103">
                <g id="Group-40">
                    <path d="M11.1439,0.6025 C11.1439,0.6025 0.3509,0.6025 0.3509,11.3955 L0.3509,63.8975 C0.3509,63.8975 0.3509,74.6905 11.1439,74.6905 L177.6119,74.6905 C177.6119,74.6905 188.4049,74.6905 188.4049,63.8975 L188.4049,11.3955 C188.4049,11.3955 188.4049,0.6025 177.6119,0.6025 L11.1439,0.6025 Z" id="Fill-36" fill="#FEFEFE"></path>
                    <path d="M11.1439,0.6025 C11.1439,0.6025 0.3509,0.6025 0.3509,11.3955 L0.3509,63.8975 C0.3509,63.8975 0.3509,74.6905 11.1439,74.6905 L177.6119,74.6905 C177.6119,74.6905 188.4049,74.6905 188.4049,63.8975 L188.4049,11.3955 C188.4049,11.3955 188.4049,0.6025 177.6119,0.6025 L11.1439,0.6025 Z" id="Stroke-38" stroke="#000000" stroke-width="2" stroke-linecap="round" stroke-linejoin="round"></path>
                </g>
                <text id="Select-anime" font-family="MrEavesModOT-Bold, Mr Eaves Mod OT" font-size="17.9" font-weight="bold" fill="#000000">
                    <tspan x="52" y="43">Select anime</tspan>
                </text>
            </g>
            <path d="M205,35.773 L252.395,35.773" id="Stroke-41" stroke="#000000" stroke-width="2.336" stroke-linecap="round" stroke-linejoin="round"></path>
            <polyline id="Stroke-42" stroke="#000000" stroke-width="2.336" stroke-linecap="round" stroke-linejoin="round" points="246.9527 30.7134 252.3947 35.7734 246.9527 40.8334"></polyline>
            <g id="Group-105" transform="translate(204.000000, 333.000000)" stroke="#000000" stroke-linecap="round" stroke-linejoin="round" stroke-width="2.336">
                <path d="M-2.84217094e-14,5.0596 L47.395,5.0596" id="Stroke-43"></path>
                <polyline id="Stroke-44" points="41.9527 3.97903932e-13 47.3947 5.06 41.9527 10.12"></polyline>
            </g>
            <g id="Group-107-Copy-2" transform="translate(356.000000, 92.000000)" stroke="#000000" stroke-linecap="round" stroke-linejoin="round" stroke-width="2.336">
                <path d="M5.5,0.453420376 L5.5,38" id="Stroke-47"></path>
                <polyline id="Stroke-48" points="10 35 5 39 0 35"></polyline>
            </g>
            <g id="Group-107-Copy-3" transform="translate(356.000000, 384.000000)" stroke="#000000" stroke-linecap="round" stroke-linejoin="round" stroke-width="2.336">
                <path d="M5.5,0.453420376 L5.5,38" id="Stroke-47"></path>
                <polyline id="Stroke-48" points="10 35 5 39 0 35"></polyline>
            </g>
            <g id="Group-107-Copy-4" transform="translate(90.000000, 240.000000)" stroke="#000000" stroke-linecap="round" stroke-linejoin="round" stroke-width="2.336">
                <path d="M5.5,0.453420376 L5.5,38" id="Stroke-47"></path>
                <polyline id="Stroke-48" points="10 35 5 39 0 35"></polyline>
            </g>
            <g id="Group-104" transform="translate(204.000000, 187.000000)" stroke="#000000" stroke-linecap="round" stroke-linejoin="round" stroke-width="2.336">
                <path d="M47.395,5.0596 L0,5.0596" id="Stroke-49"></path>
                <polyline id="Stroke-50" points="5.4423 4.01456646e-13 0.0003 5.06 5.4423 10.12"></polyline>
            </g>
            <g id="Group-106" transform="translate(204.000000, 473.000000)" stroke="#000000" stroke-linecap="round" stroke-linejoin="round" stroke-width="2.336">
                <path d="M47.395,5.0596 L0,5.0596" id="Stroke-51"></path>
                <polyline id="Stroke-52" points="5.4422 4.01456646e-13 0.0002 5.06 5.4422 10.12"></polyline>
            </g>
        </g>
    </g>
</svg>