<svg width="1089" height="200" xmlns="http://www.w3.org/2000/svg"><g fill="none" fill-rule="evenodd"><path d="M9.476 1S1 1 1 9.478v57.726s0 8.476 8.476 8.476h209.333s8.475 0 8.475-8.476V9.477s0-8.476-8.475-8.476H9.476z" stroke="#231F20" stroke-width="2" stroke-linecap="round" stroke-linejoin="round"/><text font-family="MrEavesModOT-Reg, Mr Eaves Mod OT" font-size="18.3" letter-spacing="-.016" fill="#231F20" transform="translate(1 1)"><tspan x="53.13" y="39.665">G</tspan> <tspan x="65.174" y="39.665">o </tspan> <tspan x="76.977" y="39.665" letter-spacing="-.348">t</tspan> <tspan x="81.754" y="39.665">o </tspan> <tspan x="93.557" y="39.665" letter-spacing="-.128">P</tspan> <tspan x="101.81" y="39.665" letter-spacing="-.145">r</tspan> <tspan x="106.991" y="39.665" letter-spacing="-.102">i</tspan> <tspan x="110.53" y="39.665" letter-spacing="-.048">m</tspan> <tspan x="123.146" y="39.665">e </tspan> <tspan x="133.907" y="39.665" letter-spacing="-.203">V</tspan> <tspan x="144.464" y="39.665" letter-spacing="-.064">i</tspan> <tspan x="148.042" y="39.665" letter-spacing="-.042">d</tspan> <tspan x="156.674" y="39.665" letter-spacing="-.115">e</tspan> <tspan x="164.153" y="39.665">o</tspan></text><path d="M295.731 2.38s-8.476 0-8.476 8.476v54.966s0 8.476 8.476 8.476h209.333s8.475 0 8.475-8.476V10.856s0-8.476-8.475-8.476H295.731z" stroke="#231F20" stroke-width="2" stroke-linecap="round" stroke-linejoin="round"/><text font-family="MrEavesModOT-Reg, Mr Eaves Mod OT" font-size="18.3" letter-spacing=".082" fill="#231F20" transform="translate(1 1)"><tspan x="341.412" y="39.949">S</tspan> <tspan x="350.223" y="39.949" letter-spacing="-.126">e</tspan> <tspan x="357.692" y="39.949" letter-spacing="-.079">a</tspan> <tspan x="366.287" y="39.949" letter-spacing="-.209">r</tspan> <tspan x="371.221" y="39.949" letter-spacing="-.108">c</tspan> <tspan x="378.14" y="39.949">h </tspan> <tspan x="389.761" y="39.949" letter-spacing="-.172">f</tspan> <tspan x="394.31" y="39.949" letter-spacing="-.057">o</tspan> <tspan x="402.891" y="39.949">r a </tspan> <tspan x="423.222" y="39.949" letter-spacing="-.093">s</tspan> <tspan x="429.259" y="39.949" letter-spacing="-.095">h</tspan> <tspan x="437.619" y="39.949" letter-spacing="-.22">o</tspan> <tspan x="445.854" y="39.949">w</tspan></text><path d="M582.517 2.38s-8.476 0-8.476 8.476v54.966s0 8.476 8.476 8.476H791.85s8.475 0 8.475-8.476V10.856s0-8.476-8.475-8.476H582.517z" stroke="#231F20" stroke-width="2" stroke-linecap="round" stroke-linejoin="round"/><text font-family="MrEavesModOT-Reg, Mr Eaves Mod OT" font-size="18.3" letter-spacing="-.012" fill="#231F20" transform="translate(1 1)"><tspan x="619.139" y="39.949">R</tspan> <tspan x="628.679" y="39.949" letter-spacing=".004">e</tspan> <tspan x="636.278" y="39.949">-</tspan> <tspan x="641.573" y="39.949" letter-spacing="-.028">w</tspan> <tspan x="652.708" y="39.949">a</tspan> <tspan x="661.37" y="39.949" letter-spacing="-.158">t</tspan> <tspan x="666.336" y="39.949" letter-spacing=".101">c</tspan> <tspan x="673.464" y="39.949" letter-spacing=".208">h</tspan> <tspan x="682.126" y="39.949"> </tspan> <tspan x="685.28" y="39.949" letter-spacing=".33">B</tspan> <tspan x="694.852" y="39.949" letter-spacing=".142">l</tspan> <tspan x="698.635" y="39.949" letter-spacing=".123">a</tspan> <tspan x="707.433" y="39.949" letter-spacing=".101">c</tspan> <tspan x="714.562" y="39.949" letter-spacing=".208">k</tspan> <tspan x="722.126" y="39.949"> </tspan> <tspan x="725.28" y="39.949" letter-spacing=".27">S</tspan> <tspan x="734.279" y="39.949" letter-spacing=".123">a</tspan> <tspan x="743.076" y="39.949" letter-spacing=".098">i</tspan> <tspan x="746.816" y="39.949" letter-spacing=".142">l</tspan> <tspan x="750.599" y="39.949">s</tspan></text><path d="M237.065 36.629h40.9M272.884 31.905l5.08 4.724-5.08 4.723M870.155 2.38s-8.476 0-8.476 8.476v54.966s0 8.476 8.476 8.476h209.333s8.475 0 8.475-8.476V10.856s0-8.476-8.475-8.476H870.155z" stroke="#231F20" stroke-width="2" stroke-linecap="round" stroke-linejoin="round"/><text font-family="MrEavesModOT-Reg, Mr Eaves Mod OT" font-size="18.3" letter-spacing="-.441" fill="#231F20" transform="translate(1 1)"><tspan x="901.816" y="39.949">P</tspan> <tspan x="909.574" y="39.949" letter-spacing="-.005">a</tspan> <tspan x="918.243" y="39.949" letter-spacing=".019">u</tspan> <tspan x="926.717" y="39.949" letter-spacing="-.049">s</tspan> <tspan x="932.798" y="39.949" letter-spacing=".086">e</tspan> <tspan x="940.479" y="39.949" letter-spacing="-.005"> </tspan> <tspan x="943.64" y="39.949" letter-spacing="-.086">f</tspan> <tspan x="948.276" y="39.949" letter-spacing=".03">o</tspan> <tspan x="956.943" y="39.949" letter-spacing=".086">r</tspan> <tspan x="962.355" y="39.949" letter-spacing="-.005"> </tspan> <tspan x="965.516" y="39.949" letter-spacing=".052">I</tspan> <tspan x="969.521" y="39.949" letter-spacing="-.014">n</tspan> <tspan x="977.961" y="39.949" letter-spacing=".011">s</tspan> <tspan x="984.103" y="39.949" letter-spacing=".022">i</tspan> <tspan x="987.767" y="39.949" letter-spacing=".044">d</tspan> <tspan x="996.486" y="39.949" letter-spacing=".086">e</tspan> <tspan x="1004.167" y="39.949" letter-spacing="-.005"> </tspan> <tspan x="1007.328" y="39.949" letter-spacing=".149">S</tspan> <tspan x="1016.206" y="39.949" letter-spacing="-.058">c</tspan> <tspan x="1023.175" y="39.949" letter-spacing="-.014">e</tspan> <tspan x="1030.755" y="39.949" letter-spacing=".021">n</tspan> <tspan x="1039.23" y="39.949" letter-spacing="-.005">e</tspan></text><path d="M870.155 126.356s-8.476 0-8.476 8.476v54.966s0 8.476 8.476 8.476h209.333s8.475 0 8.475-8.476v-54.966s0-8.476-8.475-8.476H870.155z" stroke="#231F20" stroke-width="2" stroke-linecap="round" stroke-linejoin="round"/><text font-family="MrEavesModOT-Reg, Mr Eaves Mod OT" font-size="18.3" letter-spacing="-.113" fill="#231F20" transform="translate(1 1)"><tspan x="908.188" y="150.483">S</tspan> <tspan x="916.804" y="150.483">w</tspan> <tspan x="927.967" y="150.483" letter-spacing="-.247">i</tspan> <tspan x="931.362" y="150.483" letter-spacing="-.366">t</tspan> <tspan x="936.12" y="150.483" letter-spacing="-.108">c</tspan> <tspan x="943.039" y="150.483">h </tspan> <tspan x="954.659" y="150.483" letter-spacing="-.06">f</tspan> <tspan x="959.32" y="150.483" letter-spacing="-.192">r</tspan> <tspan x="964.27" y="150.483" letter-spacing="-.057">o</tspan> <tspan x="972.851" y="150.483">m </tspan> <tspan x="988.681" y="150.483" letter-spacing="-.236">t</tspan> <tspan x="993.569" y="150.483" letter-spacing="-.066">h</tspan> <tspan x="1001.957" y="150.483">e </tspan> <tspan x="1012.718" y="150.483" letter-spacing="-.174">c</tspan> <tspan x="1019.571" y="150.483" letter-spacing="-.068">a</tspan> <tspan x="1028.178" y="150.483" letter-spacing="-.163">s</tspan> <tspan x="1034.145" y="150.483">t </tspan></text><text font-family="MrEavesModOT-Reg, Mr Eaves Mod OT" font-size="18.3" letter-spacing="-.279" fill="#231F20" transform="translate(1 1)"><tspan x="934.891" y="172.443">t</tspan> <tspan x="939.737" y="172.443" letter-spacing=".069">o</tspan> <tspan x="948.443" y="172.443" letter-spacing="-.004"> </tspan> <tspan x="951.605" y="172.443" letter-spacing="-.167">t</tspan> <tspan x="956.562" y="172.443" letter-spacing="-.004">h</tspan> <tspan x="965.013" y="172.443" letter-spacing=".071">e</tspan> <tspan x="972.679" y="172.443" letter-spacing="-.004"> </tspan> <tspan x="975.84" y="172.443" letter-spacing=".064">v</tspan> <tspan x="982.913" y="172.443" letter-spacing="-.004">isi</tspan> <tspan x="996.315" y="172.443" letter-spacing=".012">o</tspan> <tspan x="1004.965" y="172.443" letter-spacing="-.004">n</tspan></text><path d="M582.517 126.356s-8.476 0-8.476 8.476v54.966s0 8.476 8.476 8.476H791.85s8.475 0 8.475-8.476v-54.966s0-8.476-8.475-8.476H582.517z" stroke="#231F20" stroke-width="2" stroke-linecap="round" stroke-linejoin="round"/><text font-family="MrEavesModOT-Reg, Mr Eaves Mod OT" font-size="18.3" letter-spacing=".134" fill="#231F20" transform="translate(1 1)"><tspan x="597.349" y="147.538">S</tspan> <tspan x="606.213" y="147.538" letter-spacing="-.036">e</tspan> <tspan x="613.771" y="147.538" letter-spacing="-.003">l</tspan> <tspan x="617.41" y="147.538" letter-spacing="-.109">e</tspan> <tspan x="624.895" y="147.538" letter-spacing=".065">c</tspan> <tspan x="631.987" y="147.538" letter-spacing=".052">t</tspan> <tspan x="637.163" y="147.538" letter-spacing="-.003"> </tspan> <tspan x="640.326" y="147.538" letter-spacing="-.093">c</tspan> <tspan x="647.261" y="147.538" letter-spacing="-.096">o</tspan> <tspan x="655.802" y="147.538" letter-spacing="-.111">s</tspan> <tspan x="661.821" y="147.538" letter-spacing="-.184">t</tspan> <tspan x="666.761" y="147.538" letter-spacing="-.027">u</tspan> <tspan x="675.189" y="147.538" letter-spacing="-.003">m</tspan> <tspan x="687.85" y="147.538" letter-spacing=".052">e</tspan> <tspan x="695.496" y="147.538" letter-spacing="-.003"> </tspan> <tspan x="698.659" y="147.538" letter-spacing=".01">d</tspan> <tspan x="707.343" y="147.538" letter-spacing="-.047">e</tspan> <tspan x="714.891" y="147.538" letter-spacing="-.023">s</tspan> <tspan x="720.998" y="147.538" letter-spacing="-.012">i</tspan> <tspan x="724.627" y="147.538" letter-spacing="-.027">g</tspan> <tspan x="733.275" y="147.538" letter-spacing=".052">n</tspan> <tspan x="741.781" y="147.538" letter-spacing="-.003"> f</tspan> <tspan x="749.663" y="147.538" letter-spacing="-.14">r</tspan> <tspan x="754.665" y="147.538" letter-spacing="-.003">o</tspan> <tspan x="763.299" y="147.538" letter-spacing=".052">m</tspan> <tspan x="776.015" y="147.538" letter-spacing="-.003"> </tspan></text><text font-family="MrEavesModOT-Reg, Mr Eaves Mod OT" font-size="18.3" letter-spacing="-.013" fill="#231F20" transform="translate(1 1)"><tspan x="649.944" y="169.498">t</tspan> <tspan x="655.055" y="169.498" letter-spacing=".159">h</tspan> <tspan x="663.668" y="169.498" letter-spacing=".225">e</tspan> <tspan x="671.488" y="169.498"> </tspan> <tspan x="674.641" y="169.498" letter-spacing=".168">o</tspan> <tspan x="683.446" y="169.498" letter-spacing="-.097">p</tspan> <tspan x="692.023" y="169.498">t</tspan> <tspan x="697.134" y="169.498" letter-spacing=".157">i</tspan> <tspan x="700.933" y="169.498" letter-spacing=".168">o</tspan> <tspan x="709.739" y="169.498" letter-spacing=".124">n</tspan> <tspan x="718.318" y="169.498">s</tspan></text><path d="M294.88 126.356s-8.476 0-8.476 8.476v54.966s0 8.476 8.476 8.476h209.333s8.475 0 8.475-8.476v-54.966s0-8.476-8.475-8.476H294.88z" stroke="#231F20" stroke-width="2" stroke-linecap="round" stroke-linejoin="round"/><text font-family="MrEavesModOT-Reg, Mr Eaves Mod OT" font-size="18.3" letter-spacing="-.216" fill="#231F20" transform="translate(1 1)"><tspan x="307.096" y="149.032">R</tspan> <tspan x="316.433" y="149.032" letter-spacing="-.126">e</tspan> <tspan x="323.901" y="149.032" letter-spacing="-.06">a</tspan> <tspan x="332.515" y="149.032">d </tspan> <tspan x="344.355" y="149.032" letter-spacing="-.079">a</tspan> <tspan x="352.951" y="149.032" letter-spacing="-.042">b</tspan> <tspan x="361.583" y="149.032" letter-spacing="-.086">o</tspan> <tspan x="370.134" y="149.032" letter-spacing="-.229">u</tspan> <tspan x="378.36" y="149.032">t </tspan> <tspan x="386.65" y="149.032" letter-spacing="-.236">t</tspan> <tspan x="391.538" y="149.032" letter-spacing="-.066">h</tspan> <tspan x="399.927" y="149.032">e </tspan> <tspan x="410.687" y="149.032" letter-spacing="-.145">c</tspan> <tspan x="417.57" y="149.032" letter-spacing="-.148">o</tspan> <tspan x="426.059" y="149.032" letter-spacing="-.163">s</tspan> <tspan x="432.027" y="149.032" letter-spacing="-.236">t</tspan> <tspan x="436.915" y="149.032" letter-spacing="-.081">u</tspan> <tspan x="445.289" y="149.032" letter-spacing="-.048">m</tspan> <tspan x="457.905" y="149.032">e </tspan> <tspan x="468.665" y="149.032" letter-spacing="-.042">d</tspan> <tspan x="477.297" y="149.032">e</tspan></text><text font-family="MrEavesModOT-Reg, Mr Eaves Mod OT" font-size="18.3" fill="#231F20" transform="translate(1 1)"><tspan x="484.689" y="149.032">-</tspan></text><text font-family="MrEavesModOT-Reg, Mr Eaves Mod OT" font-size="18.3" letter-spacing="-.004" fill="#231F20" transform="translate(1 1)"><tspan x="348.437" y="170.992">sign</tspan> <tspan x="375.322" y="170.992" letter-spacing="-.031">e</tspan> <tspan x="382.885" y="170.992" letter-spacing="-.405">r</tspan> <tspan x="388.355" y="170.992" letter-spacing="-1.095">’</tspan> <tspan x="389.969" y="170.992" letter-spacing=".069">s</tspan> <tspan x="396.168" y="170.992"> p</tspan> <tspan x="408" y="170.992" letter-spacing="-.123">r</tspan> <tspan x="413.02" y="170.992" letter-spacing=".027">o</tspan> <tspan x="421.685" y="170.992" letter-spacing="-.077">c</tspan> <tspan x="428.635" y="170.992" letter-spacing="-.03">e</tspan> <tspan x="436.199" y="170.992" letter-spacing="-.039">s</tspan> <tspan x="442.291" y="170.992">s</tspan></text><path d="M9.476 126.356S1 126.356 1 134.832v54.966s0 8.476 8.476 8.476h209.333s8.475 0 8.475-8.476v-54.966s0-8.476-8.475-8.476H9.476z" stroke="#231F20" stroke-width="2" stroke-linecap="round" stroke-linejoin="round"/><text font-family="MrEavesModOT-Reg, Mr Eaves Mod OT" font-size="18.3" letter-spacing=".097" fill="#231F20" transform="translate(1 1)"><tspan x="64.217" y="152.616">W</tspan> <tspan x="79.649" y="152.616" letter-spacing="-.004">h</tspan> <tspan x="88.1" y="152.616" letter-spacing="-.031">e</tspan> <tspan x="95.663" y="152.616" letter-spacing=".069">n</tspan> <tspan x="104.187" y="152.616" letter-spacing="-.004"> </tspan> <tspan x="107.349" y="152.616" letter-spacing="-.015">i</tspan> <tspan x="110.975" y="152.616" letter-spacing="-.022">n</tspan> <tspan x="119.408" y="152.616" letter-spacing="-.004">i</tspan> <tspan x="123.045" y="152.616" letter-spacing="-.024">s</tspan> <tspan x="129.152" y="152.616" letter-spacing="-.004">h</tspan> <tspan x="137.602" y="152.616" letter-spacing="-.057">e</tspan> <tspan x="145.14" y="152.616" letter-spacing="-.125">d</tspan> <tspan x="153.689" y="152.616" letter-spacing=".069">,</tspan> <tspan x="158.15" y="152.616" letter-spacing="-.004"> </tspan></text><text font-family="MrEavesModOT-Reg, Mr Eaves Mod OT" font-size="18.3" letter-spacing="-.172" fill="#231F20" transform="translate(1 1)"><tspan x="54.572" y="174.576">r</tspan> <tspan x="59.542" y="174.576" letter-spacing="-.265">e</tspan> <tspan x="66.871" y="174.576" letter-spacing="-.236">t</tspan> <tspan x="71.759" y="174.576" letter-spacing="-.079">u</tspan> <tspan x="80.135" y="174.576" letter-spacing="-.145">r</tspan> <tspan x="85.316" y="174.576">n </tspan> <tspan x="96.936" y="174.576" letter-spacing="-.348">t</tspan> <tspan x="101.713" y="174.576">o </tspan> <tspan x="113.516" y="174.576" letter-spacing="-.236">t</tspan> <tspan x="118.404" y="174.576" letter-spacing="-.066">h</tspan> <tspan x="126.793" y="174.576">e </tspan> <tspan x="137.553" y="174.576" letter-spacing="-.093">s</tspan> <tspan x="143.59" y="174.576" letter-spacing="-.095">h</tspan> <tspan x="151.95" y="174.576" letter-spacing="-.22">o</tspan> <tspan x="160.185" y="174.576">w</tspan></text><path d="M971.696 83.219v33.748M976.42 111.886l-4.724 5.081-4.723-5.08M520.533 36.629h40.899M556.351 31.905l5.081 4.724-5.081 4.723M810.319 36.629h40.899M846.137 31.905l5.081 4.724-5.081 4.723M851.686 159.42h-40.899M815.868 154.696l-5.081 4.724 5.081 4.723M561.9 159.42h-40.899M526.082 154.696l-5.081 4.724 5.081 4.723M276.411 159.42h-40.899M240.593 154.696l-5.081 4.724 5.08 4.723" stroke="#231F20" stroke-width="2" stroke-linecap="round" stroke-linejoin="round"/></g></svg>