<?xml version="1.0" encoding="UTF-8"?>
<svg width="1089px" height="200px" viewBox="0 0 1089 200" version="1.1" xmlns="http://www.w3.org/2000/svg" xmlns:xlink="http://www.w3.org/1999/xlink">
    <!-- Generator: Sketch 54.1 (76490) - https://sketchapp.com -->
    <title>ut3-overview</title>
    <desc>Created with Sketch.</desc>
    <g id="Desktop" stroke="none" stroke-width="1" fill="none" fill-rule="evenodd">
        <g id="ut3-overview" transform="translate(1.000000, 1.000000)">
            <path d="M8.4758,0.0006 C8.4758,0.0006 -0.0002,0.0006 -0.0002,8.4766 L-0.0002,66.2026 C-0.0002,66.2026 -0.0002,74.6786 8.4758,74.6786 L217.8088,74.6786 C217.8088,74.6786 226.2838,74.6786 226.2838,66.2026 L226.2838,8.4766 C226.2838,8.4766 226.2838,0.0006 217.8088,0.0006 L8.4758,0.0006 Z" id="Stroke-1" stroke="#231F20" stroke-width="2" stroke-linecap="round" stroke-linejoin="round"></path>
            <text id="Go-to-Prime-Video" font-family="MrEavesModOT-Reg, Mr Eaves Mod OT" font-size="18.3" font-weight="normal" letter-spacing="-0.01647" fill="#231F20">
                <tspan x="53.1305" y="39.6653588">G</tspan>
                <tspan x="65.17373" y="39.6653588">o </tspan>
                <tspan x="76.97723" y="39.6653588" letter-spacing="-0.3477">t</tspan>
                <tspan x="81.75353" y="39.6653588">o </tspan>
                <tspan x="93.55703" y="39.6653588" letter-spacing="-0.1281">P</tspan>
                <tspan x="101.81033" y="39.6653588" letter-spacing="-0.14457">r</tspan>
                <tspan x="106.99106" y="39.6653588" letter-spacing="-0.10248">i</tspan>
                <tspan x="110.53028" y="39.6653588" letter-spacing="-0.04758">m</tspan>
                <tspan x="123.1463" y="39.6653588">e </tspan>
                <tspan x="133.9067" y="39.6653588" letter-spacing="-0.20313">V</tspan>
                <tspan x="144.46397" y="39.6653588" letter-spacing="-0.06405">i</tspan>
                <tspan x="148.04162" y="39.6653588" letter-spacing="-0.04209">d</tspan>
                <tspan x="156.67373" y="39.6653588" letter-spacing="-0.11529">e</tspan>
                <tspan x="164.15294" y="39.6653588">o</tspan>
            </text>
            <path d="M294.7312,1.3804 C294.7312,1.3804 286.2552,1.3804 286.2552,9.8564 L286.2552,64.8224 C286.2552,64.8224 286.2552,73.2984 294.7312,73.2984 L504.0642,73.2984 C504.0642,73.2984 512.5392,73.2984 512.5392,64.8224 L512.5392,9.8564 C512.5392,9.8564 512.5392,1.3804 504.0642,1.3804 L294.7312,1.3804 Z" id="Stroke-3" stroke="#231F20" stroke-width="2" stroke-linecap="round" stroke-linejoin="round"></path>
            <text id="Search-for-a-show" font-family="MrEavesModOT-Reg, Mr Eaves Mod OT" font-size="18.3" font-weight="normal" letter-spacing="0.08235" fill="#231F20">
                <tspan x="341.412" y="39.9489588">S</tspan>
                <tspan x="350.22345" y="39.9489588" letter-spacing="-0.12627">e</tspan>
                <tspan x="357.69168" y="39.9489588" letter-spacing="-0.07869">a</tspan>
                <tspan x="366.28719" y="39.9489588" letter-spacing="-0.20862">r</tspan>
                <tspan x="371.22087" y="39.9489588" letter-spacing="-0.10797">c</tspan>
                <tspan x="378.1401" y="39.9489588">h </tspan>
                <tspan x="389.7606" y="39.9489588" letter-spacing="-0.17202">f</tspan>
                <tspan x="394.30998" y="39.9489588" letter-spacing="-0.05673">o</tspan>
                <tspan x="402.89085" y="39.9489588">r a </tspan>
                <tspan x="423.22215" y="39.9489588" letter-spacing="-0.09333">s</tspan>
                <tspan x="429.25932" y="39.9489588" letter-spacing="-0.09516">h</tspan>
                <tspan x="437.61876" y="39.9489588" letter-spacing="-0.2196">o</tspan>
                <tspan x="445.85376" y="39.9489588">w</tspan>
            </text>
            <path d="M581.5173,1.3804 C581.5173,1.3804 573.0413,1.3804 573.0413,9.8564 L573.0413,64.8224 C573.0413,64.8224 573.0413,73.2984 581.5173,73.2984 L790.8503,73.2984 C790.8503,73.2984 799.3253,73.2984 799.3253,64.8224 L799.3253,9.8564 C799.3253,9.8564 799.3253,1.3804 790.8503,1.3804 L581.5173,1.3804 Z" id="Stroke-5" stroke="#231F20" stroke-width="2" stroke-linecap="round" stroke-linejoin="round"></path>
            <text id="Re-watch-Black-Sails" font-family="MrEavesModOT-Reg, Mr Eaves Mod OT" font-size="18.3" font-weight="normal" letter-spacing="-0.012" fill="#231F20">
                <tspan x="619.1387" y="39.9489588">R</tspan>
                <tspan x="628.6793" y="39.9489588" letter-spacing="0.00447">e</tspan>
                <tspan x="636.27827" y="39.9489588">-</tspan>
                <tspan x="641.57327" y="39.9489588" letter-spacing="-0.02847">w</tspan>
                <tspan x="652.7078" y="39.9489588">a</tspan>
                <tspan x="661.37" y="39.9489588" letter-spacing="-0.1584">t</tspan>
                <tspan x="666.3356" y="39.9489588" letter-spacing="0.10146">c</tspan>
                <tspan x="673.46426" y="39.9489588" letter-spacing="0.2076">h</tspan>
                <tspan x="682.12646" y="39.9489588"> </tspan>
                <tspan x="685.28036" y="39.9489588" letter-spacing="0.33021">B</tspan>
                <tspan x="694.85207" y="39.9489588" letter-spacing="0.14172">l</tspan>
                <tspan x="698.63549" y="39.9489588" letter-spacing="0.12342">a</tspan>
                <tspan x="707.43311" y="39.9489588" letter-spacing="0.10146">c</tspan>
                <tspan x="714.56177" y="39.9489588" letter-spacing="0.2076">k</tspan>
                <tspan x="722.12597" y="39.9489588"> </tspan>
                <tspan x="725.27987" y="39.9489588" letter-spacing="0.26982">S</tspan>
                <tspan x="734.27879" y="39.9489588" letter-spacing="0.12342">a</tspan>
                <tspan x="743.07641" y="39.9489588" letter-spacing="0.0978">i</tspan>
                <tspan x="746.81591" y="39.9489588" letter-spacing="0.14172">l</tspan>
                <tspan x="750.59933" y="39.9489588">s</tspan>
            </text>
            <path d="M236.0653,35.6285 L276.9643,35.6285" id="Stroke-7" stroke="#231F20" stroke-width="2" stroke-linecap="round" stroke-linejoin="round"></path>
            <polyline id="Stroke-8" stroke="#231F20" stroke-width="2" stroke-linecap="round" stroke-linejoin="round" points="271.8836 30.9049 276.9646 35.6289 271.8836 40.3519"></polyline>
            <path d="M869.155,1.3804 C869.155,1.3804 860.679,1.3804 860.679,9.8564 L860.679,64.8224 C860.679,64.8224 860.679,73.2984 869.155,73.2984 L1078.488,73.2984 C1078.488,73.2984 1086.963,73.2984 1086.963,64.8224 L1086.963,9.8564 C1086.963,9.8564 1086.963,1.3804 1078.488,1.3804 L869.155,1.3804 Z" id="Stroke-9" stroke="#231F20" stroke-width="2" stroke-linecap="round" stroke-linejoin="round"></path>
            <text id="Pause-for-Inside-Scene" font-family="MrEavesModOT-Reg, Mr Eaves Mod OT" font-size="18.3" font-weight="normal" letter-spacing="-0.44054" fill="#231F20">
                <tspan x="901.8163" y="39.9489588">P</tspan>
                <tspan x="909.57416" y="39.9489588" letter-spacing="-0.005">a</tspan>
                <tspan x="918.24336" y="39.9489588" letter-spacing="0.01879">u</tspan>
                <tspan x="926.71675" y="39.9489588" letter-spacing="-0.04892">s</tspan>
                <tspan x="932.79833" y="39.9489588" letter-spacing="0.0865">e</tspan>
                <tspan x="940.47933" y="39.9489588" letter-spacing="-0.005"> </tspan>
                <tspan x="943.64023" y="39.9489588" letter-spacing="-0.08552">f</tspan>
                <tspan x="948.27611" y="39.9489588" letter-spacing="0.02977">o</tspan>
                <tspan x="956.94348" y="39.9489588" letter-spacing="0.0865">r</tspan>
                <tspan x="962.35528" y="39.9489588" letter-spacing="-0.005"> </tspan>
                <tspan x="965.51618" y="39.9489588" letter-spacing="0.05173">I</tspan>
                <tspan x="969.52071" y="39.9489588" letter-spacing="-0.01415">n</tspan>
                <tspan x="977.96116" y="39.9489588" letter-spacing="0.01147">s</tspan>
                <tspan x="984.10313" y="39.9489588" letter-spacing="0.02245">i</tspan>
                <tspan x="987.76728" y="39.9489588" letter-spacing="0.04441">d</tspan>
                <tspan x="996.48589" y="39.9489588" letter-spacing="0.0865">e</tspan>
                <tspan x="1004.16689" y="39.9489588" letter-spacing="-0.005"> </tspan>
                <tspan x="1007.32779" y="39.9489588" letter-spacing="0.14872">S</tspan>
                <tspan x="1016.20561" y="39.9489588" letter-spacing="-0.05807">c</tspan>
                <tspan x="1023.17474" y="39.9489588" letter-spacing="-0.01415">e</tspan>
                <tspan x="1030.75509" y="39.9489588" letter-spacing="0.02062">n</tspan>
                <tspan x="1039.23031" y="39.9489588" letter-spacing="-0.005">e</tspan>
            </text>
            <path d="M869.155,125.356 C869.155,125.356 860.679,125.356 860.679,133.832 L860.679,188.798 C860.679,188.798 860.679,197.274 869.155,197.274 L1078.488,197.274 C1078.488,197.274 1086.963,197.274 1086.963,188.798 L1086.963,133.832 C1086.963,133.832 1086.963,125.356 1078.488,125.356 L869.155,125.356 Z" id="Stroke-11" stroke="#231F20" stroke-width="2" stroke-linecap="round" stroke-linejoin="round"></path>
            <text id="Switch-from-the-cast-" font-family="MrEavesModOT-Reg, Mr Eaves Mod OT" font-size="18.3" font-weight="normal" letter-spacing="-0.11346" fill="#231F20">
                <tspan x="908.1883" y="150.483259">S</tspan>
                <tspan x="916.80394" y="150.483259">w</tspan>
                <tspan x="927.96694" y="150.483259" letter-spacing="-0.24705">i</tspan>
                <tspan x="931.36159" y="150.483259" letter-spacing="-0.366">t</tspan>
                <tspan x="936.11959" y="150.483259" letter-spacing="-0.10797">c</tspan>
                <tspan x="943.03882" y="150.483259">h </tspan>
                <tspan x="954.65932" y="150.483259" letter-spacing="-0.06039">f</tspan>
                <tspan x="959.32033" y="150.483259" letter-spacing="-0.19215">r</tspan>
                <tspan x="964.27048" y="150.483259" letter-spacing="-0.05673">o</tspan>
                <tspan x="972.85135" y="150.483259">m </tspan>
                <tspan x="988.68085" y="150.483259" letter-spacing="-0.23607">t</tspan>
                <tspan x="993.56878" y="150.483259" letter-spacing="-0.06588">h</tspan>
                <tspan x="1001.9575" y="150.483259">e </tspan>
                <tspan x="1012.7179" y="150.483259" letter-spacing="-0.17385">c</tspan>
                <tspan x="1019.57125" y="150.483259" letter-spacing="-0.06771">a</tspan>
                <tspan x="1028.17774" y="150.483259" letter-spacing="-0.16287">s</tspan>
                <tspan x="1034.14537" y="150.483259">t </tspan>
            </text>
            <text id="-" font-family="MrEavesModOT-Reg, Mr Eaves Mod OT" font-size="18.3" font-weight="normal"></text>
            <text id="to-the-vision" font-family="MrEavesModOT-Reg, Mr Eaves Mod OT" font-size="18.3" font-weight="normal" letter-spacing="-0.2785" fill="#231F20">
                <tspan x="934.8911" y="172.443259">t</tspan>
                <tspan x="939.7366" y="172.443259" letter-spacing="0.0692">o</tspan>
                <tspan x="948.4434" y="172.443259" letter-spacing="-0.004"> </tspan>
                <tspan x="951.6053" y="172.443259" letter-spacing="-0.16687">t</tspan>
                <tspan x="956.56243" y="172.443259" letter-spacing="-0.004">h</tspan>
                <tspan x="965.01303" y="172.443259" letter-spacing="0.07103">e</tspan>
                <tspan x="972.67856" y="172.443259" letter-spacing="-0.004"> </tspan>
                <tspan x="975.84046" y="172.443259" letter-spacing="0.06371">v</tspan>
                <tspan x="982.91307" y="172.443259" letter-spacing="-0.004">isi</tspan>
                <tspan x="996.31497" y="172.443259" letter-spacing="0.01247">o</tspan>
                <tspan x="1004.96504" y="172.443259" letter-spacing="-0.004">n</tspan>
            </text>
            <path d="M581.5173,125.356 C581.5173,125.356 573.0413,125.356 573.0413,133.832 L573.0413,188.798 C573.0413,188.798 573.0413,197.274 581.5173,197.274 L790.8503,197.274 C790.8503,197.274 799.3253,197.274 799.3253,188.798 L799.3253,133.832 C799.3253,133.832 799.3253,125.356 790.8503,125.356 L581.5173,125.356 Z" id="Stroke-13" stroke="#231F20" stroke-width="2" stroke-linecap="round" stroke-linejoin="round"></path>
            <text id="Select-costume-design-from-" font-family="MrEavesModOT-Reg, Mr Eaves Mod OT" font-size="18.3" font-weight="normal" letter-spacing="0.13425" fill="#231F20">
                <tspan x="597.3494" y="147.537759">S</tspan>
                <tspan x="606.21275" y="147.537759" letter-spacing="-0.03594">e</tspan>
                <tspan x="613.77131" y="147.537759" letter-spacing="-0.003">l</tspan>
                <tspan x="617.41001" y="147.537759" letter-spacing="-0.10914">e</tspan>
                <tspan x="624.89537" y="147.537759" letter-spacing="0.06471">c</tspan>
                <tspan x="631.98728" y="147.537759" letter-spacing="0.0519">t</tspan>
                <tspan x="637.16318" y="147.537759" letter-spacing="-0.003"> </tspan>
                <tspan x="640.32608" y="147.537759" letter-spacing="-0.09267">c</tspan>
                <tspan x="647.26061" y="147.537759" letter-spacing="-0.09633">o</tspan>
                <tspan x="655.80188" y="147.537759" letter-spacing="-0.11097">s</tspan>
                <tspan x="661.82141" y="147.537759" letter-spacing="-0.18417">t</tspan>
                <tspan x="666.76124" y="147.537759" letter-spacing="-0.02679">u</tspan>
                <tspan x="675.18905" y="147.537759" letter-spacing="-0.003">m</tspan>
                <tspan x="687.84965" y="147.537759" letter-spacing="0.0519">e</tspan>
                <tspan x="695.49605" y="147.537759" letter-spacing="-0.003"> </tspan>
                <tspan x="698.65895" y="147.537759" letter-spacing="0.00981">d</tspan>
                <tspan x="707.34296" y="147.537759" letter-spacing="-0.04692">e</tspan>
                <tspan x="714.89054" y="147.537759" letter-spacing="-0.02313">s</tspan>
                <tspan x="720.99791" y="147.537759" letter-spacing="-0.01215">i</tspan>
                <tspan x="724.62746" y="147.537759" letter-spacing="-0.02679">g</tspan>
                <tspan x="733.27487" y="147.537759" letter-spacing="0.0519">n</tspan>
                <tspan x="741.78137" y="147.537759" letter-spacing="-0.003"> f</tspan>
                <tspan x="749.66267" y="147.537759" letter-spacing="-0.14025">r</tspan>
                <tspan x="754.66472" y="147.537759" letter-spacing="-0.003">o</tspan>
                <tspan x="763.29932" y="147.537759" letter-spacing="0.0519">m</tspan>
                <tspan x="776.01482" y="147.537759" letter-spacing="-0.003"> </tspan>
            </text>
            <text id="the-options" font-family="MrEavesModOT-Reg, Mr Eaves Mod OT" font-size="18.3" font-weight="normal" letter-spacing="-0.013" fill="#231F20">
                <tspan x="649.9436" y="169.497759">t</tspan>
                <tspan x="655.0546" y="169.497759" letter-spacing="0.15902">h</tspan>
                <tspan x="663.66822" y="169.497759" letter-spacing="0.2249">e</tspan>
                <tspan x="671.48762" y="169.497759"> </tspan>
                <tspan x="674.64052" y="169.497759" letter-spacing="0.16817">o</tspan>
                <tspan x="683.44629" y="169.497759" letter-spacing="-0.09718">p</tspan>
                <tspan x="692.02331" y="169.497759">t</tspan>
                <tspan x="697.13431" y="169.497759" letter-spacing="0.15719">i</tspan>
                <tspan x="700.9332" y="169.497759" letter-spacing="0.16817">o</tspan>
                <tspan x="709.73897" y="169.497759" letter-spacing="0.12425">n</tspan>
                <tspan x="718.31782" y="169.497759">s</tspan>
            </text>
            <path d="M293.8797,125.356 C293.8797,125.356 285.4037,125.356 285.4037,133.832 L285.4037,188.798 C285.4037,188.798 285.4037,197.274 293.8797,197.274 L503.2127,197.274 C503.2127,197.274 511.6877,197.274 511.6877,188.798 L511.6877,133.832 C511.6877,133.832 511.6877,125.356 503.2127,125.356 L293.8797,125.356 Z" id="Stroke-15" stroke="#231F20" stroke-width="2" stroke-linecap="round" stroke-linejoin="round"></path>
            <text id="Read-about-the-costume-de" font-family="MrEavesModOT-Reg, Mr Eaves Mod OT" font-size="18.3" font-weight="normal" letter-spacing="-0.21594" fill="#231F20">
                <tspan x="307.0963" y="149.032259">R</tspan>
                <tspan x="316.43296" y="149.032259" letter-spacing="-0.12627">e</tspan>
                <tspan x="323.90119" y="149.032259" letter-spacing="-0.06039">a</tspan>
                <tspan x="332.515" y="149.032259">d </tspan>
                <tspan x="344.3551" y="149.032259" letter-spacing="-0.07869">a</tspan>
                <tspan x="352.95061" y="149.032259" letter-spacing="-0.04209">b</tspan>
                <tspan x="361.58272" y="149.032259" letter-spacing="-0.08601">o</tspan>
                <tspan x="370.13431" y="149.032259" letter-spacing="-0.22875">u</tspan>
                <tspan x="378.36016" y="149.032259">t </tspan>
                <tspan x="386.65006" y="149.032259" letter-spacing="-0.23607">t</tspan>
                <tspan x="391.53799" y="149.032259" letter-spacing="-0.06588">h</tspan>
                <tspan x="399.92671" y="149.032259">e </tspan>
                <tspan x="410.68711" y="149.032259" letter-spacing="-0.14457">c</tspan>
                <tspan x="417.56974" y="149.032259" letter-spacing="-0.14823">o</tspan>
                <tspan x="426.05911" y="149.032259" letter-spacing="-0.16287">s</tspan>
                <tspan x="432.02674" y="149.032259" letter-spacing="-0.23607">t</tspan>
                <tspan x="436.91467" y="149.032259" letter-spacing="-0.08052">u</tspan>
                <tspan x="445.28875" y="149.032259" letter-spacing="-0.04758">m</tspan>
                <tspan x="457.90477" y="149.032259">e </tspan>
                <tspan x="468.66517" y="149.032259" letter-spacing="-0.04209">d</tspan>
                <tspan x="477.29728" y="149.032259">e</tspan>
            </text>
            <text id="-" font-family="MrEavesModOT-Reg, Mr Eaves Mod OT" font-size="18.3" font-weight="normal" fill="#231F20">
                <tspan x="484.6888" y="149.032259">-</tspan>
            </text>
            <text id="signer’s-process" font-family="MrEavesModOT-Reg, Mr Eaves Mod OT" font-size="18.3" font-weight="normal" letter-spacing="-0.004" fill="#231F20">
                <tspan x="348.4374" y="170.992259">sign</tspan>
                <tspan x="375.3224" y="170.992259" letter-spacing="-0.03145">e</tspan>
                <tspan x="382.88545" y="170.992259" letter-spacing="-0.40477">r</tspan>
                <tspan x="388.35498" y="170.992259" letter-spacing="-1.09468">’</tspan>
                <tspan x="389.9687" y="170.992259" letter-spacing="0.0692">s</tspan>
                <tspan x="396.1684" y="170.992259"> p</tspan>
                <tspan x="408.0005" y="170.992259" letter-spacing="-0.12295">r</tspan>
                <tspan x="413.01985" y="170.992259" letter-spacing="0.02711">o</tspan>
                <tspan x="421.68456" y="170.992259" letter-spacing="-0.0772">c</tspan>
                <tspan x="428.63456" y="170.992259" letter-spacing="-0.02962">e</tspan>
                <tspan x="436.19944" y="170.992259" letter-spacing="-0.03877">s</tspan>
                <tspan x="442.29117" y="170.992259">s</tspan>
            </text>
            <path d="M8.4758,125.356 C8.4758,125.356 -0.0002,125.356 -0.0002,133.832 L-0.0002,188.798 C-0.0002,188.798 -0.0002,197.274 8.4758,197.274 L217.8088,197.274 C217.8088,197.274 226.2838,197.274 226.2838,188.798 L226.2838,133.832 C226.2838,133.832 226.2838,125.356 217.8088,125.356 L8.4758,125.356 Z" id="Stroke-17" stroke="#231F20" stroke-width="2" stroke-linecap="round" stroke-linejoin="round"></path>
            <text id="When-inished,-" font-family="MrEavesModOT-Reg, Mr Eaves Mod OT" font-size="18.3" font-weight="normal" letter-spacing="0.09665" fill="#231F20">
                <tspan x="64.2171" y="152.615759">W</tspan>
                <tspan x="79.64915" y="152.615759" letter-spacing="-0.004">h</tspan>
                <tspan x="88.09975" y="152.615759" letter-spacing="-0.03145">e</tspan>
                <tspan x="95.6628" y="152.615759" letter-spacing="0.0692">n</tspan>
                <tspan x="104.1866" y="152.615759" letter-spacing="-0.004"> </tspan>
                <tspan x="107.3485" y="152.615759" letter-spacing="-0.01498">i</tspan>
                <tspan x="110.97522" y="152.615759" letter-spacing="-0.0223">n</tspan>
                <tspan x="119.40752" y="152.615759" letter-spacing="-0.004">i</tspan>
                <tspan x="123.04522" y="152.615759" letter-spacing="-0.02413">s</tspan>
                <tspan x="129.15159" y="152.615759" letter-spacing="-0.004">h</tspan>
                <tspan x="137.60219" y="152.615759" letter-spacing="-0.05707">e</tspan>
                <tspan x="145.13962" y="152.615759" letter-spacing="-0.12478">d</tspan>
                <tspan x="153.68904" y="152.615759" letter-spacing="0.0692">,</tspan>
                <tspan x="158.15024" y="152.615759" letter-spacing="-0.004"> </tspan>
            </text>
            <text id="-" font-family="MrEavesModOT-Reg, Mr Eaves Mod OT" font-size="18.3" font-weight="normal"></text>
            <text id="return-to-the-show" font-family="MrEavesModOT-Reg, Mr Eaves Mod OT" font-size="18.3" font-weight="normal" letter-spacing="-0.17202" fill="#231F20">
                <tspan x="54.5718" y="174.575759">r</tspan>
                <tspan x="59.54208" y="174.575759" letter-spacing="-0.26535">e</tspan>
                <tspan x="66.87123" y="174.575759" letter-spacing="-0.23607">t</tspan>
                <tspan x="71.75916" y="174.575759" letter-spacing="-0.07869">u</tspan>
                <tspan x="80.13507" y="174.575759" letter-spacing="-0.14457">r</tspan>
                <tspan x="85.3158" y="174.575759">n </tspan>
                <tspan x="96.9363" y="174.575759" letter-spacing="-0.3477">t</tspan>
                <tspan x="101.7126" y="174.575759">o </tspan>
                <tspan x="113.5161" y="174.575759" letter-spacing="-0.23607">t</tspan>
                <tspan x="118.40403" y="174.575759" letter-spacing="-0.06588">h</tspan>
                <tspan x="126.79275" y="174.575759">e </tspan>
                <tspan x="137.55315" y="174.575759" letter-spacing="-0.09333">s</tspan>
                <tspan x="143.59032" y="174.575759" letter-spacing="-0.09516">h</tspan>
                <tspan x="151.94976" y="174.575759" letter-spacing="-0.2196">o</tspan>
                <tspan x="160.18476" y="174.575759">w</tspan>
            </text>
            <path d="M970.6963,82.2185 L970.6963,115.9665" id="Stroke-19" stroke="#231F20" stroke-width="2" stroke-linecap="round" stroke-linejoin="round"></path>
            <polyline id="Stroke-20" stroke="#231F20" stroke-width="2" stroke-linecap="round" stroke-linejoin="round" points="975.4199 110.8862 970.6959 115.9672 965.9729 110.8862"></polyline>
            <path d="M519.5327,35.6285 L560.4317,35.6285" id="Stroke-21" stroke="#231F20" stroke-width="2" stroke-linecap="round" stroke-linejoin="round"></path>
            <polyline id="Stroke-22" stroke="#231F20" stroke-width="2" stroke-linecap="round" stroke-linejoin="round" points="555.351 30.9049 560.432 35.6289 555.351 40.3519"></polyline>
            <path d="M809.3187,35.6285 L850.2177,35.6285" id="Stroke-23" stroke="#231F20" stroke-width="2" stroke-linecap="round" stroke-linejoin="round"></path>
            <polyline id="Stroke-24" stroke="#231F20" stroke-width="2" stroke-linecap="round" stroke-linejoin="round" points="845.137 30.9049 850.218 35.6289 845.137 40.3519"></polyline>
            <path d="M850.6863,158.42 L809.7873,158.42" id="Stroke-25" stroke="#231F20" stroke-width="2" stroke-linecap="round" stroke-linejoin="round"></path>
            <polyline id="Stroke-26" stroke="#231F20" stroke-width="2" stroke-linecap="round" stroke-linejoin="round" points="814.868 153.6964 809.787 158.4204 814.868 163.1434"></polyline>
            <path d="M560.9003,158.42 L520.0013,158.42" id="Stroke-27" stroke="#231F20" stroke-width="2" stroke-linecap="round" stroke-linejoin="round"></path>
            <polyline id="Stroke-28" stroke="#231F20" stroke-width="2" stroke-linecap="round" stroke-linejoin="round" points="525.082 153.6964 520.001 158.4204 525.082 163.1434"></polyline>
            <path d="M275.411,158.42 L234.512,158.42" id="Stroke-29" stroke="#231F20" stroke-width="2" stroke-linecap="round" stroke-linejoin="round"></path>
            <polyline id="Stroke-30" stroke="#231F20" stroke-width="2" stroke-linecap="round" stroke-linejoin="round" points="239.5926 153.6964 234.5116 158.4204 239.5926 163.1434"></polyline>
        </g>
    </g>
</svg>