<?xml version="1.0" encoding="UTF-8"?>
<svg width="910px" height="200px" viewBox="0 0 910 200" version="1.1" xmlns="http://www.w3.org/2000/svg" xmlns:xlink="http://www.w3.org/1999/xlink">
    <!-- Generator: Sketch 54.1 (76490) - https://sketchapp.com -->
    <title>ut2-overview</title>
    <desc>Created with Sketch.</desc>
    <g id="Desktop" stroke="none" stroke-width="1" fill="none" fill-rule="evenodd">
        <g id="ut2-overview" transform="translate(1.000000, 1.000000)">
            <path d="M8.4757,0.0006 C8.4757,0.0006 -0.0003,0.0006 -0.0003,8.4766 L-0.0003,66.2026 C-0.0003,66.2026 -0.0003,74.6786 8.4757,74.6786 L180.1677,74.6786 C180.1677,74.6786 188.6437,74.6786 188.6437,66.2026 L188.6437,8.4766 C188.6437,8.4766 188.6437,0.0006 180.1677,0.0006 L8.4757,0.0006 Z" id="Stroke-1" stroke="#231F20" stroke-width="2" stroke-linecap="round" stroke-linejoin="round"></path>
            <text id="Go-to-Prime-Video" font-family="MrEavesModOT-Reg, Mr Eaves Mod OT" font-size="18.3" font-weight="normal" letter-spacing="-0.01647" fill="#231F20">
                <tspan x="34.3101" y="39.6653588">G</tspan>
                <tspan x="46.35333" y="39.6653588">o </tspan>
                <tspan x="58.15683" y="39.6653588" letter-spacing="-0.3477">t</tspan>
                <tspan x="62.93313" y="39.6653588">o </tspan>
                <tspan x="74.73663" y="39.6653588" letter-spacing="-0.1281">P</tspan>
                <tspan x="82.98993" y="39.6653588" letter-spacing="-0.14457">r</tspan>
                <tspan x="88.17066" y="39.6653588" letter-spacing="-0.10248">i</tspan>
                <tspan x="91.70988" y="39.6653588" letter-spacing="-0.04758">m</tspan>
                <tspan x="104.3259" y="39.6653588">e </tspan>
                <tspan x="115.0863" y="39.6653588" letter-spacing="-0.20313">V</tspan>
                <tspan x="125.64357" y="39.6653588" letter-spacing="-0.06405">i</tspan>
                <tspan x="129.22122" y="39.6653588" letter-spacing="-0.04209">d</tspan>
                <tspan x="137.85333" y="39.6653588" letter-spacing="-0.11529">e</tspan>
                <tspan x="145.33254" y="39.6653588">o</tspan>
            </text>
            <path d="M247.5319,1.3804 C247.5319,1.3804 239.0559,1.3804 239.0559,9.8564 L239.0559,64.8224 C239.0559,64.8224 239.0559,73.2984 247.5319,73.2984 L419.2239,73.2984 C419.2239,73.2984 427.6999,73.2984 427.6999,64.8224 L427.6999,9.8564 C427.6999,9.8564 427.6999,1.3804 419.2239,1.3804 L247.5319,1.3804 Z" id="Stroke-3" stroke="#231F20" stroke-width="2" stroke-linecap="round" stroke-linejoin="round"></path>
            <text id="Search-for-a-show" font-family="MrEavesModOT-Reg, Mr Eaves Mod OT" font-size="18.3" font-weight="normal" letter-spacing="0.08235" fill="#231F20">
                <tspan x="275.3922" y="39.9489588">S</tspan>
                <tspan x="284.20365" y="39.9489588" letter-spacing="-0.12627">e</tspan>
                <tspan x="291.67188" y="39.9489588" letter-spacing="-0.07869">a</tspan>
                <tspan x="300.26739" y="39.9489588" letter-spacing="-0.20862">r</tspan>
                <tspan x="305.20107" y="39.9489588" letter-spacing="-0.10797">c</tspan>
                <tspan x="312.1203" y="39.9489588">h </tspan>
                <tspan x="323.7408" y="39.9489588" letter-spacing="-0.17202">f</tspan>
                <tspan x="328.29018" y="39.9489588" letter-spacing="-0.05673">o</tspan>
                <tspan x="336.87105" y="39.9489588">r a </tspan>
                <tspan x="357.20235" y="39.9489588" letter-spacing="-0.09333">s</tspan>
                <tspan x="363.23952" y="39.9489588" letter-spacing="-0.09516">h</tspan>
                <tspan x="371.59896" y="39.9489588" letter-spacing="-0.2196">o</tspan>
                <tspan x="379.83396" y="39.9489588">w</tspan>
            </text>
            <path d="M487.0312,1.3804 C487.0312,1.3804 478.5552,1.3804 478.5552,9.8564 L478.5552,64.8224 C478.5552,64.8224 478.5552,73.2984 487.0312,73.2984 L658.7232,73.2984 C658.7232,73.2984 667.1992,73.2984 667.1992,64.8224 L667.1992,9.8564 C667.1992,9.8564 667.1992,1.3804 658.7232,1.3804 L487.0312,1.3804 Z" id="Stroke-5" stroke="#231F20" stroke-width="2" stroke-linecap="round" stroke-linejoin="round"></path>
            <text id="Watch-Sririacha" font-family="MrEavesModOT-Reg, Mr Eaves Mod OT" font-size="18.3" font-weight="normal" letter-spacing="-0.73251" fill="#231F20">
                <tspan x="520.35" y="39.9489588">W</tspan>
                <tspan x="533.67189" y="39.9489588" letter-spacing="-0.12312">a</tspan>
                <tspan x="542.22297" y="39.9489588" letter-spacing="-0.2622">t</tspan>
                <tspan x="547.08477" y="39.9489588" letter-spacing="-0.006">c</tspan>
                <tspan x="554.10597" y="39.9489588" letter-spacing="0.10197">h</tspan>
                <tspan x="562.66254" y="39.9489588" letter-spacing="-0.006"> </tspan>
                <tspan x="565.82244" y="39.9489588" letter-spacing="0.15138">S</tspan>
                <tspan x="574.70292" y="39.9489588" letter-spacing="-0.04077">r</tspan>
                <tspan x="579.98745" y="39.9489588" letter-spacing="-0.006">i</tspan>
                <tspan x="583.62315" y="39.9489588" letter-spacing="-0.04077">r</tspan>
                <tspan x="588.90768" y="39.9489588" letter-spacing="0.03975">i</tspan>
                <tspan x="592.58913" y="39.9489588" letter-spacing="0.01962">a</tspan>
                <tspan x="601.28295" y="39.9489588" letter-spacing="-0.006">c</tspan>
                <tspan x="608.30415" y="39.9489588" letter-spacing="0.01962">h</tspan>
                <tspan x="616.77837" y="39.9489588" letter-spacing="-0.006">a</tspan>
            </text>
            <path d="M197.1416,35.6285 L230.8896,35.6285" id="Stroke-7" stroke="#231F20" stroke-width="2" stroke-linecap="round" stroke-linejoin="round"></path>
            <polyline id="Stroke-8" stroke="#231F20" stroke-width="2" stroke-linecap="round" stroke-linejoin="round" points="225.8092 30.9049 230.8902 35.6289 225.8092 40.3519"></polyline>
            <path d="M727.2416,1.3804 C727.2416,1.3804 718.7656,1.3804 718.7656,9.8564 L718.7656,64.8224 C718.7656,64.8224 718.7656,73.2984 727.2416,73.2984 L898.9336,73.2984 C898.9336,73.2984 907.4096,73.2984 907.4096,64.8224 L907.4096,9.8564 C907.4096,9.8564 907.4096,1.3804 898.9336,1.3804 L727.2416,1.3804 Z" id="Stroke-9" stroke="#231F20" stroke-width="2" stroke-linecap="round" stroke-linejoin="round"></path>
            <text id="Pause-for-Inside-Scene" font-family="MrEavesModOT-Reg, Mr Eaves Mod OT" font-size="18.3" font-weight="normal" letter-spacing="-0.44054" fill="#231F20">
                <tspan x="741.0825" y="39.9489588">P</tspan>
                <tspan x="748.84036" y="39.9489588" letter-spacing="-0.005">a</tspan>
                <tspan x="757.50956" y="39.9489588" letter-spacing="0.01879">u</tspan>
                <tspan x="765.98295" y="39.9489588" letter-spacing="-0.04892">s</tspan>
                <tspan x="772.06453" y="39.9489588" letter-spacing="0.0865">e</tspan>
                <tspan x="779.74553" y="39.9489588" letter-spacing="-0.005"> </tspan>
                <tspan x="782.90643" y="39.9489588" letter-spacing="-0.08552">f</tspan>
                <tspan x="787.54231" y="39.9489588" letter-spacing="0.02977">o</tspan>
                <tspan x="796.20968" y="39.9489588" letter-spacing="0.0865">r</tspan>
                <tspan x="801.62148" y="39.9489588" letter-spacing="-0.005"> </tspan>
                <tspan x="804.78238" y="39.9489588" letter-spacing="0.05173">I</tspan>
                <tspan x="808.78691" y="39.9489588" letter-spacing="-0.01415">n</tspan>
                <tspan x="817.22736" y="39.9489588" letter-spacing="0.01147">s</tspan>
                <tspan x="823.36933" y="39.9489588" letter-spacing="0.02245">i</tspan>
                <tspan x="827.03348" y="39.9489588" letter-spacing="0.04441">d</tspan>
                <tspan x="835.75209" y="39.9489588" letter-spacing="0.0865">e</tspan>
                <tspan x="843.43309" y="39.9489588" letter-spacing="-0.005"> </tspan>
                <tspan x="846.59399" y="39.9489588" letter-spacing="0.14872">S</tspan>
                <tspan x="855.47181" y="39.9489588" letter-spacing="-0.05807">c</tspan>
                <tspan x="862.44094" y="39.9489588" letter-spacing="-0.01415">e</tspan>
                <tspan x="870.02129" y="39.9489588" letter-spacing="0.02062">n</tspan>
                <tspan x="878.49651" y="39.9489588" letter-spacing="-0.005">e</tspan>
            </text>
            <path d="M727.2416,125.356 C727.2416,125.356 718.7656,125.356 718.7656,133.832 L718.7656,188.798 C718.7656,188.798 718.7656,197.274 727.2416,197.274 L898.9336,197.274 C898.9336,197.274 907.4096,197.274 907.4096,188.798 L907.4096,133.832 C907.4096,133.832 907.4096,125.356 898.9336,125.356 L727.2416,125.356 Z" id="Stroke-11" stroke="#231F20" stroke-width="2" stroke-linecap="round" stroke-linejoin="round"></path>
            <text id="Switch-from-the-vision-to-" font-family="MrEavesModOT-Reg, Mr Eaves Mod OT" font-size="18.3" font-weight="normal" letter-spacing="-0.11346" fill="#231F20">
                <tspan x="733.8179" y="150.483259">S</tspan>
                <tspan x="742.43354" y="150.483259">w</tspan>
                <tspan x="753.59654" y="150.483259" letter-spacing="-0.24705">i</tspan>
                <tspan x="756.99119" y="150.483259" letter-spacing="-0.366">t</tspan>
                <tspan x="761.74919" y="150.483259" letter-spacing="-0.10797">c</tspan>
                <tspan x="768.66842" y="150.483259">h </tspan>
                <tspan x="780.28892" y="150.483259" letter-spacing="-0.06039">f</tspan>
                <tspan x="784.94993" y="150.483259" letter-spacing="-0.19215">r</tspan>
                <tspan x="789.90008" y="150.483259" letter-spacing="-0.05673">o</tspan>
                <tspan x="798.48095" y="150.483259">m </tspan>
                <tspan x="814.31045" y="150.483259" letter-spacing="-0.23607">t</tspan>
                <tspan x="819.19838" y="150.483259" letter-spacing="-0.06588">h</tspan>
                <tspan x="827.5871" y="150.483259">e v</tspan>
                <tspan x="845.3564" y="150.483259" letter-spacing="-0.06588">i</tspan>
                <tspan x="848.93222" y="150.483259" letter-spacing="-0.07503">s</tspan>
                <tspan x="854.98769" y="150.483259" letter-spacing="-0.06588">i</tspan>
                <tspan x="858.56351" y="150.483259" letter-spacing="-0.05673">o</tspan>
                <tspan x="867.14438" y="150.483259">n </tspan>
                <tspan x="878.76488" y="150.483259" letter-spacing="-0.3477">t</tspan>
                <tspan x="883.54118" y="150.483259">o </tspan>
            </text>
            <text id="the-merchandise" font-family="MrEavesModOT-Reg, Mr Eaves Mod OT" font-size="18.3" font-weight="normal" letter-spacing="-0.14957" fill="#231F20">
                <tspan x="759.4562" y="172.443259">t</tspan>
                <tspan x="764.43063" y="172.443259" letter-spacing="0.02062">h</tspan>
                <tspan x="772.90585" y="172.443259" letter-spacing="0.0865">e</tspan>
                <tspan x="780.58685" y="172.443259" letter-spacing="-0.005"> </tspan>
                <tspan x="783.74775" y="172.443259" letter-spacing="0.03892">m</tspan>
                <tspan x="796.45027" y="172.443259" letter-spacing="-0.01415">e</tspan>
                <tspan x="804.03062" y="172.443259" letter-spacing="-0.12212">r</tspan>
                <tspan x="809.0508" y="172.443259" letter-spacing="-0.01964">c</tspan>
                <tspan x="816.05836" y="172.443259" letter-spacing="-0.005">h</tspan>
                <tspan x="824.50796" y="172.443259" letter-spacing="0.00598">a</tspan>
                <tspan x="833.18814" y="172.443259" letter-spacing="-0.005">nd</tspan>
                <tspan x="850.30694" y="172.443259" letter-spacing="0.02062">i</tspan>
                <tspan x="853.96926" y="172.443259" letter-spacing="-0.05075">s</tspan>
                <tspan x="860.04901" y="172.443259" letter-spacing="-0.005">e</tspan>
            </text>
            <path d="M487.0312,125.356 C487.0312,125.356 478.5552,125.356 478.5552,133.832 L478.5552,188.798 C478.5552,188.798 478.5552,197.274 487.0312,197.274 L658.7232,197.274 C658.7232,197.274 667.1992,197.274 667.1992,188.798 L667.1992,133.832 C667.1992,133.832 667.1992,125.356 658.7232,125.356 L487.0312,125.356 Z" id="Stroke-13" stroke="#231F20" stroke-width="2" stroke-linecap="round" stroke-linejoin="round"></path>
            <text id="Select-product-of-" font-family="MrEavesModOT-Reg, Mr Eaves Mod OT" font-size="18.3" font-weight="normal" letter-spacing="0.16885" fill="#231F20">
                <tspan x="517.6189" y="147.537759">S</tspan>
                <tspan x="526.51685" y="147.537759" letter-spacing="-0.005">e</tspan>
                <tspan x="534.10635" y="147.537759" letter-spacing="0.04075">l</tspan>
                <tspan x="537.7888" y="147.537759" letter-spacing="-0.07454">e</tspan>
                <tspan x="545.30876" y="147.537759" letter-spacing="0.09931">c</tspan>
                <tspan x="552.43527" y="147.537759" letter-spacing="0.0865">t</tspan>
                <tspan x="557.64577" y="147.537759" letter-spacing="-0.005"> </tspan>
                <tspan x="560.80667" y="147.537759" letter-spacing="0.01147">p</tspan>
                <tspan x="569.49234" y="147.537759" letter-spacing="-0.10565">r</tspan>
                <tspan x="574.52899" y="147.537759" letter-spacing="0.04441">o</tspan>
                <tspan x="583.211" y="147.537759" letter-spacing="-0.005">du</tspan>
                <tspan x="600.3298" y="147.537759" letter-spacing="0.09748">c</tspan>
                <tspan x="607.45448" y="147.537759" letter-spacing="0.0865">t</tspan>
                <tspan x="612.66498" y="147.537759" letter-spacing="-0.005"> </tspan>
                <tspan x="615.82588" y="147.537759" letter-spacing="-0.03977">o</tspan>
                <tspan x="624.42371" y="147.537759" letter-spacing="0.0865">f</tspan>
                <tspan x="629.23161" y="147.537759" letter-spacing="-0.005"> </tspan>
            </text>
            <text id="-" font-family="MrEavesModOT-Reg, Mr Eaves Mod OT" font-size="18.3" font-weight="normal"></text>
            <text id="interest-from-options" font-family="MrEavesModOT-Reg, Mr Eaves Mod OT" font-size="18.3" font-weight="normal" letter-spacing="-0.05058" fill="#231F20">
                <tspan x="506.1068" y="169.497759">i</tspan>
                <tspan x="509.69792" y="169.497759" letter-spacing="-0.2775">n</tspan>
                <tspan x="517.87502" y="169.497759" letter-spacing="-0.2592">t</tspan>
                <tspan x="522.73982" y="169.497759" letter-spacing="-0.04875">e</tspan>
                <tspan x="530.28557" y="169.497759" letter-spacing="-0.12012">r</tspan>
                <tspan x="535.30775" y="169.497759" letter-spacing="-0.04692">e</tspan>
                <tspan x="542.85533" y="169.497759" letter-spacing="-0.11097">s</tspan>
                <tspan x="548.87486" y="169.497759" letter-spacing="0.0519">t</tspan>
                <tspan x="554.05076" y="169.497759" letter-spacing="-0.003"> f</tspan>
                <tspan x="561.93206" y="169.497759" letter-spacing="-0.14025">r</tspan>
                <tspan x="566.93411" y="169.497759" letter-spacing="-0.003">o</tspan>
                <tspan x="575.56871" y="169.497759" letter-spacing="0.0519">m</tspan>
                <tspan x="588.28421" y="169.497759" letter-spacing="-0.003"> o</tspan>
                <tspan x="600.08171" y="169.497759" letter-spacing="-0.26835">p</tspan>
                <tspan x="608.48756" y="169.497759" letter-spacing="-0.186">t</tspan>
                <tspan x="613.42556" y="169.497759" letter-spacing="-0.01398">i</tspan>
                <tspan x="617.05328" y="169.497759" letter-spacing="-0.003">o</tspan>
                <tspan x="625.68788" y="169.497759" letter-spacing="-0.04875">n</tspan>
                <tspan x="634.09373" y="169.497759" letter-spacing="-0.003">s</tspan>
            </text>
            <path d="M246.8208,125.356 C246.8208,125.356 238.3448,125.356 238.3448,133.832 L238.3448,188.798 C238.3448,188.798 238.3448,197.274 246.8208,197.274 L418.5128,197.274 C418.5128,197.274 426.9888,197.274 426.9888,188.798 L426.9888,133.832 C426.9888,133.832 426.9888,125.356 418.5128,125.356 L246.8208,125.356 Z" id="Stroke-15" stroke="#231F20" stroke-width="2" stroke-linecap="round" stroke-linejoin="round"></path>
            <text id="Complete-purchase" font-family="MrEavesModOT-Reg, Mr Eaves Mod OT" font-size="18.3" font-weight="normal" letter-spacing="-0.01498" fill="#231F20">
                <tspan x="269.2119" y="163.649859">C</tspan>
                <tspan x="280.35992" y="163.649859" letter-spacing="0.01247">o</tspan>
                <tspan x="289.00999" y="163.649859" letter-spacing="-0.004">m</tspan>
                <tspan x="301.66959" y="163.649859" letter-spacing="0.00881">p</tspan>
                <tspan x="310.3526" y="163.649859" letter-spacing="0.02345">l</tspan>
                <tspan x="314.01775" y="163.649859" letter-spacing="-0.19615">e</tspan>
                <tspan x="321.4161" y="163.649859" letter-spacing="-0.2419">t</tspan>
                <tspan x="326.2982" y="163.649859" letter-spacing="0.0692">e</tspan>
                <tspan x="333.9619" y="163.649859" letter-spacing="-0.004"> </tspan>
                <tspan x="337.1238" y="163.649859" letter-spacing="-0.03328">p</tspan>
                <tspan x="345.76472" y="163.649859" letter-spacing="-0.004">u</tspan>
                <tspan x="354.21532" y="163.649859" letter-spacing="-0.13942">r</tspan>
                <tspan x="359.2182" y="163.649859" letter-spacing="-0.03877">c</tspan>
                <tspan x="366.20663" y="163.649859">h</tspan>
                <tspan x="374.64625" y="163.649859" letter-spacing="-0.004">a</tspan>
                <tspan x="383.31645" y="163.649859" letter-spacing="-0.06622">s</tspan>
                <tspan x="389.38073" y="163.649859" letter-spacing="-0.004">e</tspan>
            </text>
            <path d="M8.4757,125.356 C8.4757,125.356 -0.0003,125.356 -0.0003,133.832 L-0.0003,188.798 C-0.0003,188.798 -0.0003,197.274 8.4757,197.274 L180.1677,197.274 C180.1677,197.274 188.6437,197.274 188.6437,188.798 L188.6437,133.832 C188.6437,133.832 188.6437,125.356 180.1677,125.356 L8.4757,125.356 Z" id="Stroke-17" stroke="#231F20" stroke-width="2" stroke-linecap="round" stroke-linejoin="round"></path>
            <text id="When-inished," font-family="MrEavesModOT-Reg, Mr Eaves Mod OT" font-size="18.3" font-weight="normal" letter-spacing="0.09665" fill="#231F20">
                <tspan x="45.3968" y="152.615759">W</tspan>
                <tspan x="60.82885" y="152.615759" letter-spacing="-0.004">h</tspan>
                <tspan x="69.27945" y="152.615759" letter-spacing="-0.03145">e</tspan>
                <tspan x="76.8425" y="152.615759" letter-spacing="0.0692">n</tspan>
                <tspan x="85.3663" y="152.615759" letter-spacing="-0.004"> </tspan>
                <tspan x="88.5282" y="152.615759" letter-spacing="-0.01498">i</tspan>
                <tspan x="92.15492" y="152.615759" letter-spacing="-0.0223">n</tspan>
                <tspan x="100.58722" y="152.615759" letter-spacing="-0.004">i</tspan>
                <tspan x="104.22492" y="152.615759" letter-spacing="-0.02413">s</tspan>
                <tspan x="110.33129" y="152.615759" letter-spacing="-0.004">h</tspan>
                <tspan x="118.78189" y="152.615759" letter-spacing="-0.05707">e</tspan>
                <tspan x="126.31932" y="152.615759" letter-spacing="-0.12478">d</tspan>
                <tspan x="134.86874" y="152.615759" letter-spacing="-0.004">,</tspan>
            </text>
            <text id="return-to-show" font-family="MrEavesModOT-Reg, Mr Eaves Mod OT" font-size="18.3" font-weight="normal" letter-spacing="-0.08552" fill="#231F20">
                <tspan x="47.7758" y="174.575759">r</tspan>
                <tspan x="52.83258" y="174.575759" letter-spacing="-0.17885">e</tspan>
                <tspan x="60.24823" y="174.575759" letter-spacing="-0.14957">t</tspan>
                <tspan x="65.22266" y="174.575759" letter-spacing="0.00781">u</tspan>
                <tspan x="73.68507" y="174.575759" letter-spacing="-0.05807">r</tspan>
                <tspan x="78.9523" y="174.575759" letter-spacing="0.0865">n</tspan>
                <tspan x="87.4934" y="174.575759" letter-spacing="-0.005"> </tspan>
                <tspan x="90.6543" y="174.575759" letter-spacing="-0.2612">t</tspan>
                <tspan x="95.5171" y="174.575759" letter-spacing="0.0865">o</tspan>
                <tspan x="104.2412" y="174.575759" letter-spacing="-0.005"> sh</tspan>
                <tspan x="121.9772" y="174.575759" letter-spacing="-0.13127">o</tspan>
                <tspan x="130.30053" y="174.575759" letter-spacing="-0.005">w</tspan>
            </text>
            <path d="M811.377,82.2185 L811.377,115.9665" id="Stroke-19" stroke="#231F20" stroke-width="2" stroke-linecap="round" stroke-linejoin="round"></path>
            <polyline id="Stroke-20" stroke="#231F20" stroke-width="2" stroke-linecap="round" stroke-linejoin="round" points="816.1006 110.8862 811.3766 115.9672 806.6536 110.8862"></polyline>
            <path d="M433.8694,35.6285 L467.6174,35.6285" id="Stroke-21" stroke="#231F20" stroke-width="2" stroke-linecap="round" stroke-linejoin="round"></path>
            <polyline id="Stroke-22" stroke="#231F20" stroke-width="2" stroke-linecap="round" stroke-linejoin="round" points="462.537 30.9049 467.618 35.6289 462.537 40.3519"></polyline>
            <path d="M675.8739,35.6285 L709.6219,35.6285" id="Stroke-23" stroke="#231F20" stroke-width="2" stroke-linecap="round" stroke-linejoin="round"></path>
            <polyline id="Stroke-24" stroke="#231F20" stroke-width="2" stroke-linecap="round" stroke-linejoin="round" points="704.5416 30.9049 709.6226 35.6289 704.5416 40.3519"></polyline>
            <path d="M710.0909,158.42 L676.3429,158.42" id="Stroke-25" stroke="#231F20" stroke-width="2" stroke-linecap="round" stroke-linejoin="round"></path>
            <polyline id="Stroke-26" stroke="#231F20" stroke-width="2" stroke-linecap="round" stroke-linejoin="round" points="681.4232 153.6964 676.3422 158.4204 681.4232 163.1434"></polyline>
            <path d="M468.0863,158.42 L434.3383,158.42" id="Stroke-27" stroke="#231F20" stroke-width="2" stroke-linecap="round" stroke-linejoin="round"></path>
            <polyline id="Stroke-28" stroke="#231F20" stroke-width="2" stroke-linecap="round" stroke-linejoin="round" points="439.4186 153.6964 434.3376 158.4204 439.4186 163.1434"></polyline>
            <path d="M229.67,158.42 L195.922,158.42" id="Stroke-29" stroke="#231F20" stroke-width="2" stroke-linecap="round" stroke-linejoin="round"></path>
            <polyline id="Stroke-30" stroke="#231F20" stroke-width="2" stroke-linecap="round" stroke-linejoin="round" points="201.0023 153.6964 195.9213 158.4204 201.0023 163.1434"></polyline>
        </g>
    </g>
</svg>