<svg width="910" height="200" xmlns="http://www.w3.org/2000/svg"><g fill="none" fill-rule="evenodd"><path d="M9.476 1S1 1 1 9.478v57.726s0 8.476 8.476 8.476h171.692s8.476 0 8.476-8.476V9.477s0-8.476-8.476-8.476H9.476z" stroke="#231F20" stroke-width="2" stroke-linecap="round" stroke-linejoin="round"/><text font-family="MrEavesModOT-Reg, Mr Eaves Mod OT" font-size="18.3" letter-spacing="-.016" fill="#231F20" transform="translate(1 1)"><tspan x="34.31" y="39.665">G</tspan> <tspan x="46.353" y="39.665">o </tspan> <tspan x="58.157" y="39.665" letter-spacing="-.348">t</tspan> <tspan x="62.933" y="39.665">o </tspan> <tspan x="74.737" y="39.665" letter-spacing="-.128">P</tspan> <tspan x="82.99" y="39.665" letter-spacing="-.145">r</tspan> <tspan x="88.171" y="39.665" letter-spacing="-.102">i</tspan> <tspan x="91.71" y="39.665" letter-spacing="-.048">m</tspan> <tspan x="104.326" y="39.665">e </tspan> <tspan x="115.086" y="39.665" letter-spacing="-.203">V</tspan> <tspan x="125.644" y="39.665" letter-spacing="-.064">i</tspan> <tspan x="129.221" y="39.665" letter-spacing="-.042">d</tspan> <tspan x="137.853" y="39.665" letter-spacing="-.115">e</tspan> <tspan x="145.333" y="39.665">o</tspan></text><path d="M248.532 2.38s-8.476 0-8.476 8.476v54.966s0 8.476 8.476 8.476h171.692s8.476 0 8.476-8.476V10.856s0-8.476-8.476-8.476H248.532z" stroke="#231F20" stroke-width="2" stroke-linecap="round" stroke-linejoin="round"/><text font-family="MrEavesModOT-Reg, Mr Eaves Mod OT" font-size="18.3" letter-spacing=".082" fill="#231F20" transform="translate(1 1)"><tspan x="275.392" y="39.949">S</tspan> <tspan x="284.204" y="39.949" letter-spacing="-.126">e</tspan> <tspan x="291.672" y="39.949" letter-spacing="-.079">a</tspan> <tspan x="300.267" y="39.949" letter-spacing="-.209">r</tspan> <tspan x="305.201" y="39.949" letter-spacing="-.108">c</tspan> <tspan x="312.12" y="39.949">h </tspan> <tspan x="323.741" y="39.949" letter-spacing="-.172">f</tspan> <tspan x="328.29" y="39.949" letter-spacing="-.057">o</tspan> <tspan x="336.871" y="39.949">r a </tspan> <tspan x="357.202" y="39.949" letter-spacing="-.093">s</tspan> <tspan x="363.24" y="39.949" letter-spacing="-.095">h</tspan> <tspan x="371.599" y="39.949" letter-spacing="-.22">o</tspan> <tspan x="379.834" y="39.949">w</tspan></text><path d="M488.031 2.38s-8.476 0-8.476 8.476v54.966s0 8.476 8.476 8.476h171.692s8.476 0 8.476-8.476V10.856s0-8.476-8.476-8.476H488.031z" stroke="#231F20" stroke-width="2" stroke-linecap="round" stroke-linejoin="round"/><text font-family="MrEavesModOT-Reg, Mr Eaves Mod OT" font-size="18.3" letter-spacing="-.733" fill="#231F20" transform="translate(1 1)"><tspan x="520.35" y="39.949">W</tspan> <tspan x="533.672" y="39.949" letter-spacing="-.123">a</tspan> <tspan x="542.223" y="39.949" letter-spacing="-.262">t</tspan> <tspan x="547.085" y="39.949" letter-spacing="-.006">c</tspan> <tspan x="554.106" y="39.949" letter-spacing=".102">h</tspan> <tspan x="562.663" y="39.949" letter-spacing="-.006"> </tspan> <tspan x="565.822" y="39.949" letter-spacing=".151">S</tspan> <tspan x="574.703" y="39.949" letter-spacing="-.041">r</tspan> <tspan x="579.987" y="39.949" letter-spacing="-.006">i</tspan> <tspan x="583.623" y="39.949" letter-spacing="-.041">r</tspan> <tspan x="588.908" y="39.949" letter-spacing=".04">i</tspan> <tspan x="592.589" y="39.949" letter-spacing=".02">a</tspan> <tspan x="601.283" y="39.949" letter-spacing="-.006">c</tspan> <tspan x="608.304" y="39.949" letter-spacing=".02">h</tspan> <tspan x="616.778" y="39.949" letter-spacing="-.006">a</tspan></text><path d="M198.142 36.629h33.748M226.81 31.905l5.08 4.724-5.08 4.723M728.242 2.38s-8.476 0-8.476 8.476v54.966s0 8.476 8.476 8.476h171.692s8.476 0 8.476-8.476V10.856s0-8.476-8.476-8.476H728.242z" stroke="#231F20" stroke-width="2" stroke-linecap="round" stroke-linejoin="round"/><text font-family="MrEavesModOT-Reg, Mr Eaves Mod OT" font-size="18.3" letter-spacing="-.441" fill="#231F20" transform="translate(1 1)"><tspan x="741.082" y="39.949">P</tspan> <tspan x="748.84" y="39.949" letter-spacing="-.005">a</tspan> <tspan x="757.51" y="39.949" letter-spacing=".019">u</tspan> <tspan x="765.983" y="39.949" letter-spacing="-.049">s</tspan> <tspan x="772.065" y="39.949" letter-spacing=".086">e</tspan> <tspan x="779.746" y="39.949" letter-spacing="-.005"> </tspan> <tspan x="782.906" y="39.949" letter-spacing="-.086">f</tspan> <tspan x="787.542" y="39.949" letter-spacing=".03">o</tspan> <tspan x="796.21" y="39.949" letter-spacing=".086">r</tspan> <tspan x="801.621" y="39.949" letter-spacing="-.005"> </tspan> <tspan x="804.782" y="39.949" letter-spacing=".052">I</tspan> <tspan x="808.787" y="39.949" letter-spacing="-.014">n</tspan> <tspan x="817.227" y="39.949" letter-spacing=".011">s</tspan> <tspan x="823.369" y="39.949" letter-spacing=".022">i</tspan> <tspan x="827.033" y="39.949" letter-spacing=".044">d</tspan> <tspan x="835.752" y="39.949" letter-spacing=".086">e</tspan> <tspan x="843.433" y="39.949" letter-spacing="-.005"> </tspan> <tspan x="846.594" y="39.949" letter-spacing=".149">S</tspan> <tspan x="855.472" y="39.949" letter-spacing="-.058">c</tspan> <tspan x="862.441" y="39.949" letter-spacing="-.014">e</tspan> <tspan x="870.021" y="39.949" letter-spacing=".021">n</tspan> <tspan x="878.497" y="39.949" letter-spacing="-.005">e</tspan></text><path d="M728.242 126.356s-8.476 0-8.476 8.476v54.966s0 8.476 8.476 8.476h171.692s8.476 0 8.476-8.476v-54.966s0-8.476-8.476-8.476H728.242z" stroke="#231F20" stroke-width="2" stroke-linecap="round" stroke-linejoin="round"/><text font-family="MrEavesModOT-Reg, Mr Eaves Mod OT" font-size="18.3" letter-spacing="-.113" fill="#231F20" transform="translate(1 1)"><tspan x="733.818" y="150.483">S</tspan> <tspan x="742.434" y="150.483">w</tspan> <tspan x="753.597" y="150.483" letter-spacing="-.247">i</tspan> <tspan x="756.991" y="150.483" letter-spacing="-.366">t</tspan> <tspan x="761.749" y="150.483" letter-spacing="-.108">c</tspan> <tspan x="768.668" y="150.483">h </tspan> <tspan x="780.289" y="150.483" letter-spacing="-.06">f</tspan> <tspan x="784.95" y="150.483" letter-spacing="-.192">r</tspan> <tspan x="789.9" y="150.483" letter-spacing="-.057">o</tspan> <tspan x="798.481" y="150.483">m </tspan> <tspan x="814.31" y="150.483" letter-spacing="-.236">t</tspan> <tspan x="819.198" y="150.483" letter-spacing="-.066">h</tspan> <tspan x="827.587" y="150.483">e v</tspan> <tspan x="845.356" y="150.483" letter-spacing="-.066">i</tspan> <tspan x="848.932" y="150.483" letter-spacing="-.075">s</tspan> <tspan x="854.988" y="150.483" letter-spacing="-.066">i</tspan> <tspan x="858.564" y="150.483" letter-spacing="-.057">o</tspan> <tspan x="867.144" y="150.483">n </tspan> <tspan x="878.765" y="150.483" letter-spacing="-.348">t</tspan> <tspan x="883.541" y="150.483">o </tspan></text><text font-family="MrEavesModOT-Reg, Mr Eaves Mod OT" font-size="18.3" letter-spacing="-.15" fill="#231F20" transform="translate(1 1)"><tspan x="759.456" y="172.443">t</tspan> <tspan x="764.431" y="172.443" letter-spacing=".021">h</tspan> <tspan x="772.906" y="172.443" letter-spacing=".086">e</tspan> <tspan x="780.587" y="172.443" letter-spacing="-.005"> </tspan> <tspan x="783.748" y="172.443" letter-spacing=".039">m</tspan> <tspan x="796.45" y="172.443" letter-spacing="-.014">e</tspan> <tspan x="804.031" y="172.443" letter-spacing="-.122">r</tspan> <tspan x="809.051" y="172.443" letter-spacing="-.02">c</tspan> <tspan x="816.058" y="172.443" letter-spacing="-.005">h</tspan> <tspan x="824.508" y="172.443" letter-spacing=".006">a</tspan> <tspan x="833.188" y="172.443" letter-spacing="-.005">nd</tspan> <tspan x="850.307" y="172.443" letter-spacing=".021">i</tspan> <tspan x="853.969" y="172.443" letter-spacing="-.051">s</tspan> <tspan x="860.049" y="172.443" letter-spacing="-.005">e</tspan></text><path d="M488.031 126.356s-8.476 0-8.476 8.476v54.966s0 8.476 8.476 8.476h171.692s8.476 0 8.476-8.476v-54.966s0-8.476-8.476-8.476H488.031z" stroke="#231F20" stroke-width="2" stroke-linecap="round" stroke-linejoin="round"/><text font-family="MrEavesModOT-Reg, Mr Eaves Mod OT" font-size="18.3" letter-spacing=".169" fill="#231F20" transform="translate(1 1)"><tspan x="517.619" y="147.538">S</tspan> <tspan x="526.517" y="147.538" letter-spacing="-.005">e</tspan> <tspan x="534.106" y="147.538" letter-spacing=".041">l</tspan> <tspan x="537.789" y="147.538" letter-spacing="-.075">e</tspan> <tspan x="545.309" y="147.538" letter-spacing=".099">c</tspan> <tspan x="552.435" y="147.538" letter-spacing=".086">t</tspan> <tspan x="557.646" y="147.538" letter-spacing="-.005"> </tspan> <tspan x="560.807" y="147.538" letter-spacing=".011">p</tspan> <tspan x="569.492" y="147.538" letter-spacing="-.106">r</tspan> <tspan x="574.529" y="147.538" letter-spacing=".044">o</tspan> <tspan x="583.211" y="147.538" letter-spacing="-.005">du</tspan> <tspan x="600.33" y="147.538" letter-spacing=".097">c</tspan> <tspan x="607.454" y="147.538" letter-spacing=".086">t</tspan> <tspan x="612.665" y="147.538" letter-spacing="-.005"> </tspan> <tspan x="615.826" y="147.538" letter-spacing="-.04">o</tspan> <tspan x="624.424" y="147.538" letter-spacing=".086">f</tspan> <tspan x="629.232" y="147.538" letter-spacing="-.005"> </tspan></text><text font-family="MrEavesModOT-Reg, Mr Eaves Mod OT" font-size="18.3" letter-spacing="-.051" fill="#231F20" transform="translate(1 1)"><tspan x="506.107" y="169.498">i</tspan> <tspan x="509.698" y="169.498" letter-spacing="-.278">n</tspan> <tspan x="517.875" y="169.498" letter-spacing="-.259">t</tspan> <tspan x="522.74" y="169.498" letter-spacing="-.049">e</tspan> <tspan x="530.286" y="169.498" letter-spacing="-.12">r</tspan> <tspan x="535.308" y="169.498" letter-spacing="-.047">e</tspan> <tspan x="542.855" y="169.498" letter-spacing="-.111">s</tspan> <tspan x="548.875" y="169.498" letter-spacing=".052">t</tspan> <tspan x="554.051" y="169.498" letter-spacing="-.003"> f</tspan> <tspan x="561.932" y="169.498" letter-spacing="-.14">r</tspan> <tspan x="566.934" y="169.498" letter-spacing="-.003">o</tspan> <tspan x="575.569" y="169.498" letter-spacing=".052">m</tspan> <tspan x="588.284" y="169.498" letter-spacing="-.003"> o</tspan> <tspan x="600.082" y="169.498" letter-spacing="-.268">p</tspan> <tspan x="608.488" y="169.498" letter-spacing="-.186">t</tspan> <tspan x="613.426" y="169.498" letter-spacing="-.014">i</tspan> <tspan x="617.053" y="169.498" letter-spacing="-.003">o</tspan> <tspan x="625.688" y="169.498" letter-spacing="-.049">n</tspan> <tspan x="634.094" y="169.498" letter-spacing="-.003">s</tspan></text><path d="M247.82 126.356s-8.475 0-8.475 8.476v54.966s0 8.476 8.476 8.476h171.692s8.476 0 8.476-8.476v-54.966s0-8.476-8.476-8.476H247.82z" stroke="#231F20" stroke-width="2" stroke-linecap="round" stroke-linejoin="round"/><text font-family="MrEavesModOT-Reg, Mr Eaves Mod OT" font-size="18.3" letter-spacing="-.015" fill="#231F20" transform="translate(1 1)"><tspan x="269.212" y="163.65">C</tspan> <tspan x="280.36" y="163.65" letter-spacing=".012">o</tspan> <tspan x="289.01" y="163.65" letter-spacing="-.004">m</tspan> <tspan x="301.67" y="163.65" letter-spacing=".009">p</tspan> <tspan x="310.353" y="163.65" letter-spacing=".023">l</tspan> <tspan x="314.018" y="163.65" letter-spacing="-.196">e</tspan> <tspan x="321.416" y="163.65" letter-spacing="-.242">t</tspan> <tspan x="326.298" y="163.65" letter-spacing=".069">e</tspan> <tspan x="333.962" y="163.65" letter-spacing="-.004"> </tspan> <tspan x="337.124" y="163.65" letter-spacing="-.033">p</tspan> <tspan x="345.765" y="163.65" letter-spacing="-.004">u</tspan> <tspan x="354.215" y="163.65" letter-spacing="-.139">r</tspan> <tspan x="359.218" y="163.65" letter-spacing="-.039">c</tspan> <tspan x="366.207" y="163.65">h</tspan> <tspan x="374.646" y="163.65" letter-spacing="-.004">a</tspan> <tspan x="383.316" y="163.65" letter-spacing="-.066">s</tspan> <tspan x="389.381" y="163.65" letter-spacing="-.004">e</tspan></text><path d="M9.476 126.356S1 126.356 1 134.832v54.966s0 8.476 8.476 8.476h171.692s8.476 0 8.476-8.476v-54.966s0-8.476-8.476-8.476H9.476z" stroke="#231F20" stroke-width="2" stroke-linecap="round" stroke-linejoin="round"/><text font-family="MrEavesModOT-Reg, Mr Eaves Mod OT" font-size="18.3" letter-spacing=".097" fill="#231F20" transform="translate(1 1)"><tspan x="45.397" y="152.616">W</tspan> <tspan x="60.829" y="152.616" letter-spacing="-.004">h</tspan> <tspan x="69.279" y="152.616" letter-spacing="-.031">e</tspan> <tspan x="76.843" y="152.616" letter-spacing=".069">n</tspan> <tspan x="85.366" y="152.616" letter-spacing="-.004"> </tspan> <tspan x="88.528" y="152.616" letter-spacing="-.015">i</tspan> <tspan x="92.155" y="152.616" letter-spacing="-.022">n</tspan> <tspan x="100.587" y="152.616" letter-spacing="-.004">i</tspan> <tspan x="104.225" y="152.616" letter-spacing="-.024">s</tspan> <tspan x="110.331" y="152.616" letter-spacing="-.004">h</tspan> <tspan x="118.782" y="152.616" letter-spacing="-.057">e</tspan> <tspan x="126.319" y="152.616" letter-spacing="-.125">d</tspan> <tspan x="134.869" y="152.616" letter-spacing="-.004">,</tspan></text><text font-family="MrEavesModOT-Reg, Mr Eaves Mod OT" font-size="18.3" letter-spacing="-.086" fill="#231F20" transform="translate(1 1)"><tspan x="47.776" y="174.576">r</tspan> <tspan x="52.833" y="174.576" letter-spacing="-.179">e</tspan> <tspan x="60.248" y="174.576" letter-spacing="-.15">t</tspan> <tspan x="65.223" y="174.576" letter-spacing=".008">u</tspan> <tspan x="73.685" y="174.576" letter-spacing="-.058">r</tspan> <tspan x="78.952" y="174.576" letter-spacing=".086">n</tspan> <tspan x="87.493" y="174.576" letter-spacing="-.005"> </tspan> <tspan x="90.654" y="174.576" letter-spacing="-.261">t</tspan> <tspan x="95.517" y="174.576" letter-spacing=".086">o</tspan> <tspan x="104.241" y="174.576" letter-spacing="-.005"> sh</tspan> <tspan x="121.977" y="174.576" letter-spacing="-.131">o</tspan> <tspan x="130.301" y="174.576" letter-spacing="-.005">w</tspan></text><path d="M812.377 83.219v33.748M817.1 111.886l-4.723 5.081-4.723-5.08M434.87 36.629h33.747M463.537 31.905l5.081 4.724-5.081 4.723M676.874 36.629h33.748M705.542 31.905l5.08 4.724-5.08 4.723M711.09 159.42h-33.747M682.423 154.696l-5.08 4.724 5.08 4.723M469.086 159.42h-33.748M440.419 154.696l-5.081 4.724 5.08 4.723M230.67 159.42h-33.748M202.002 154.696l-5.08 4.724 5.08 4.723" stroke="#231F20" stroke-width="2" stroke-linecap="round" stroke-linejoin="round"/></g></svg>