<svg width="75" height="49" xmlns="http://www.w3.org/2000/svg" xmlns:xlink="http://www.w3.org/1999/xlink"><defs><path id="a" d="M.008.085h11.937V23.3H.008z"/></defs><g fill="none" fill-rule="evenodd"><path d="M9.777 18.474c1.374 0 1.537.721 1.537 1.701v.426c0 1.307 0 2.615-1.963 2.615H1.962C0 23.216 0 21.908 0 20.6V2.615C0 1.307 0 0 1.962 0h1.635C5.56 0 5.56 1.307 5.56 2.615v14.093c0 .786 0 1.8 1.014 1.832 1.734 0 2.516-.066 3.203-.066M17.686 17.233c.063.719.719 1.078 1.373 1.078 1.864 0 2.485-.064 3.172-.064 1.374 0 1.797.392 1.797 1.372v2.29c0 .98-.325 1.307-1.307 1.307h-8.633c-1.962 0-1.962-1.962-1.962-2.615V2.615c0-1.308 0-2.615 1.962-2.615h8.438c.818 0 1.537.325 1.537.98v2.78c0 .785-.655.817-1.473.817-1.275 0-2.29-.066-3.107-.066-1.797 0-1.797.655-1.797 1.701 0 2.125 0 2.681 1.635 2.681 2.026 0 2.353-.064 3.107-.064 1.142 0 1.209 1.143 1.209 1.502v2.093c0 .983-.687 1.046-1.505 1.046-1.666 0-2.713-.063-3.4-.063-1.046 0-1.046.457-1.046 1.536v2.29zM31.822 23.216c-1.963 0-1.963-1.307-1.963-2.615v-4.94c0-1.764-1.701-5.852-2.29-7.226l-.098-.228c-.652-1.47-2.583-6.442-2.583-7.358 0-.849.72-.849.948-.849h3.728c1.046 0 1.374 1.406 1.637 2.615.23 1.046 1.308 4.71 1.371 5.003.035.229.198.36.328.36.165 0 .296-.1.328-.328.032-.293 1.014-3.989 1.275-5.035C34.796 1.405 35.19 0 36.367 0h2.91c.98 0 1.342 0 1.342.85 0 .915-1.898 5.919-2.55 7.357-.296.654-.853 2.159-1.54 3.858-1.012 2.55-1.11 2.878-1.11 5.756v2.91c0 1.276 0 2.485-1.962 2.485h-1.635zM6.803 37.801c0 .525.23.525 1.276.525 1.011 0 1.275 0 1.275-.49 0-.13 0-.296-.035-.525-.391-3.203-.522-7.16-1.24-7.16-.687 0-.916 3.922-1.244 7.16-.032.197-.032.36-.032.49m9.514 8.699c0 1.504-1.012 1.635-2.876 1.635h-1.733c-2.029 0-1.015-4.905-2.322-4.905H6.77c-1.308 0-.554 4.905-2.517 4.905H2.713C1.015 48.135 0 48.005 0 46.5c0-1.962.785-3.696 3.337-18.966.26-1.635.915-2.615 2.223-2.615h5.035c1.307 0 1.962.98 2.29 2.615 2.223 13.406 3.432 17.004 3.432 18.966M22.806 40.778c0 1.962 0 2.942 1.797 2.942 1.635 0 1.8-1.47 1.8-2.942 0-1.472 0-2.878-1.8-2.878-1.797 0-1.797.915-1.797 2.878m0-9.221c0 1.635 0 2.191 1.635 2.191 1.307 0 1.635-1.046 1.635-2.191 0-1.145-.328-2.223-1.635-2.223-1.635 0-1.635.588-1.635 2.223m6.476 4.316c2.353.786 3.203 3.368 3.203 5.656 0 1.275-.328 2.55-.882 3.597-1.603 2.945-2.976 3.01-5.101 3.01h-7.293c-1.963 0-1.963-1.309-1.963-2.616V27.534c0-1.308 0-2.615 1.963-2.615h7.03c4.22 0 5.625 2.812 5.625 5.82 0 1.928-.785 3.859-2.582 4.807-.099.032-.134.098-.134.162 0 .067.035.134.134.165zM39.006 42.152c.064.719.719 1.078 1.374 1.078 1.863 0 2.484-.064 3.171-.064 1.374 0 1.797.392 1.797 1.372v2.29c0 .98-.325 1.307-1.307 1.307h-8.633c-1.962 0-1.962-1.962-1.962-2.615V27.534c0-1.308 0-2.615 1.962-2.615h8.436c.82 0 1.539.325 1.539.98v2.78c0 .785-.655.817-1.473.817-1.275 0-2.29-.066-3.107-.066-1.797 0-1.797.654-1.797 1.701 0 2.125 0 2.681 1.635 2.681 2.026 0 2.353-.064 3.107-.064 1.145 0 1.209 1.143 1.209 1.502v2.093c0 .983-.687 1.046-1.505 1.046-1.667 0-2.713-.063-3.4-.063-1.046 0-1.046.458-1.046 1.536v2.29zM51.976 40.778c0 1.962 0 2.942 1.797 2.942 1.635 0 1.8-1.47 1.8-2.942 0-1.472 0-2.878-1.8-2.878-1.797 0-1.797.915-1.797 2.878m0-9.221c0 1.635 0 2.191 1.634 2.191 1.308 0 1.635-1.046 1.635-2.191 0-1.145-.327-2.223-1.635-2.223-1.634 0-1.634.588-1.634 2.223m6.342 4.151c0 .067.035.134.133.165 2.354.786 3.203 3.368 3.203 5.656 0 1.275-.327 2.55-.881 3.597-1.603 2.945-2.977 3.01-5.102 3.01h-7.293c-1.962 0-1.962-1.309-1.962-2.616V27.534c0-1.308 0-2.615 1.962-2.615h7.03c4.22 0 5.626 2.812 5.626 5.82 0 1.928-.786 3.859-2.583 4.807-.098.032-.133.098-.133.162" fill="#000"/><g transform="translate(62.605 24.834)"><mask id="b" fill="#fff"><use xlink:href="#a"/></mask><path d="M5.568 17.318c.064.719.719 1.078 1.374 1.078 1.864 0 2.484-.064 3.171-.064 1.374 0 1.797.392 1.797 1.371v2.29c0 .98-.324 1.308-1.307 1.308H1.971C.008 23.3.008 21.338.008 20.686V2.7c0-1.308 0-2.615 1.963-2.615h8.435c.82 0 1.54.325 1.54.98v2.78c0 .785-.656.817-1.473.817-1.276 0-2.29-.067-3.108-.067-1.797 0-1.797.655-1.797 1.702 0 2.125 0 2.681 1.635 2.681 2.026 0 2.353-.064 3.107-.064 1.145 0 1.209 1.143 1.209 1.502v2.093c0 .982-.687 1.046-1.504 1.046-1.667 0-2.713-.064-3.4-.064-1.047 0-1.047.459-1.047 1.537v2.29z" fill="#000" mask="url(#b)"/></g><path d="M45.78 12.882c0 .525.229.525 1.275.525 1.012 0 1.276 0 1.276-.49 0-.13 0-.296-.035-.525-.391-3.203-.522-7.16-1.24-7.16-.688 0-.917 3.922-1.244 7.16-.032.197-.032.36-.032.49m9.514 8.699c0 1.504-1.012 1.635-2.876 1.635h-1.734c-2.028 0-1.014-4.905-2.321-4.905h-2.618c-1.307 0-.554 4.905-2.516 4.905h-1.54c-1.698 0-2.712-.13-2.712-1.635 0-1.962.785-3.696 3.336-18.966C42.573.98 43.23 0 44.536 0h5.036c1.307 0 1.962.98 2.29 2.615 2.223 13.406 3.432 17.004 3.432 18.966" fill="#000"/></g></svg>