<?xml version="1.0" encoding="UTF-8"?>
<svg width="880px" height="308px" viewBox="0 0 880 308" version="1.1" xmlns="http://www.w3.org/2000/svg" xmlns:xlink="http://www.w3.org/1999/xlink">
    <!-- Generator: Sketch 54.1 (76490) - https://sketchapp.com -->
    <title>ut-overview</title>
    <desc>Created with Sketch.</desc>
    <g id="Desktop" stroke="none" stroke-width="1" fill="none" fill-rule="evenodd">
        <g id="ut-overview">
            <path d="M10.9451,0.9649 C10.9451,0.9649 2.7651,0.9649 2.7651,9.1449 L2.7651,64.8549 C2.7651,64.8549 2.7651,73.0349 10.9451,73.0349 L176.6401,73.0349 C176.6401,73.0349 184.8201,73.0349 184.8201,64.8549 L184.8201,9.1449 C184.8201,9.1449 184.8201,0.9649 176.6401,0.9649 L10.9451,0.9649 Z" id="Stroke-1" stroke="#231F20" stroke-width="1.93" stroke-linecap="round" stroke-linejoin="round"></path>
            <text id="Go-to-Prime-Video" font-family="MrEavesModOT-Reg, Mr Eaves Mod OT" font-size="17.7" font-weight="normal" letter-spacing="-0.01416" fill="#231F20">
                <tspan x="35.731" y="39.7584602">G</tspan>
                <tspan x="47.38114" y="39.7584602">o </tspan>
                <tspan x="58.79764" y="39.7584602" letter-spacing="-0.33276">t</tspan>
                <tspan x="63.42088" y="39.7584602">o </tspan>
                <tspan x="74.83738" y="39.7584602" letter-spacing="-0.12213">P</tspan>
                <tspan x="82.82185" y="39.7584602" letter-spacing="-0.13629">r</tspan>
                <tspan x="87.83626" y="39.7584602" letter-spacing="-0.09381">i</tspan>
                <tspan x="91.26475" y="39.7584602" letter-spacing="-0.04071">m</tspan>
                <tspan x="103.47244" y="39.7584602">e </tspan>
                <tspan x="113.88004" y="39.7584602" letter-spacing="-0.1947">V</tspan>
                <tspan x="124.09294" y="39.7584602" letter-spacing="-0.05841">i</tspan>
                <tspan x="127.55683" y="39.7584602" letter-spacing="-0.0354">d</tspan>
                <tspan x="135.91123" y="39.7584602" letter-spacing="-0.10797">e</tspan>
                <tspan x="143.14876" y="39.7584602">o</tspan>
            </text>
            <path d="M241.6516,2.2969 C241.6516,2.2969 233.4716,2.2969 233.4716,10.4769 L233.4716,63.5239 C233.4716,63.5239 233.4716,71.7029 241.6516,71.7029 L407.3466,71.7029 C407.3466,71.7029 415.5266,71.7029 415.5266,63.5239 L415.5266,10.4769 C415.5266,10.4769 415.5266,2.2969 407.3466,2.2969 L241.6516,2.2969 Z" id="Stroke-3" stroke="#231F20" stroke-width="1.93" stroke-linecap="round" stroke-linejoin="round"></path>
            <text id="Search-for-a-show" font-family="MrEavesModOT-Reg, Mr Eaves Mod OT" font-size="17.7" font-weight="normal" letter-spacing="0.16492" fill="#231F20">
                <tspan x="268.3935" y="40.0320602">S</tspan>
                <tspan x="277.00132" y="40.0320602" letter-spacing="-0.03509">e</tspan>
                <tspan x="284.31173" y="40.0320602" letter-spacing="0.0127">a</tspan>
                <tspan x="292.71423" y="40.0320602" letter-spacing="-0.11474">r</tspan>
                <tspan x="297.57319" y="40.0320602" letter-spacing="-0.01385">c</tspan>
                <tspan x="304.35614" y="40.0320602" letter-spacing="0.0835">h</tspan>
                <tspan x="312.61704" y="40.0320602" letter-spacing="-0.005"> </tspan>
                <tspan x="315.67414" y="40.0320602" letter-spacing="-0.07934">f</tspan>
                <tspan x="320.1614" y="40.0320602" letter-spacing="0.03217">o</tspan>
                <tspan x="328.54797" y="40.0320602" letter-spacing="0.0835">r</tspan>
                <tspan x="333.78217" y="40.0320602" letter-spacing="-0.005"> </tspan>
                <tspan x="336.83927" y="40.0320602" letter-spacing="0.0835">a</tspan>
                <tspan x="345.31257" y="40.0320602" letter-spacing="-0.005"> sh</tspan>
                <tspan x="362.46657" y="40.0320602" letter-spacing="-0.12359">o</tspan>
                <tspan x="370.52038" y="40.0320602" letter-spacing="-0.005">w</tspan>
            </text>
            <path d="M472.7857,2.2969 C472.7857,2.2969 464.6057,2.2969 464.6057,10.4769 L464.6057,63.5239 C464.6057,63.5239 464.6057,71.7029 472.7857,71.7029 L638.4807,71.7029 C638.4807,71.7029 646.6607,71.7029 646.6607,63.5239 L646.6607,10.4769 C646.6607,10.4769 646.6607,2.2969 638.4807,2.2969 L472.7857,2.2969 Z" id="Stroke-5" stroke="#231F20" stroke-width="1.93" stroke-linecap="round" stroke-linejoin="round"></path>
            <text id="Watch-an-ep-of-Suits" font-family="MrEavesModOT-Reg, Mr Eaves Mod OT" font-size="17.7" font-weight="normal" letter-spacing="-0.80535" fill="#231F20">
                <tspan x="490.8926" y="40.0319602">W</tspan>
                <tspan x="503.68085" y="40.0319602" letter-spacing="-0.21594">a</tspan>
                <tspan x="511.85471" y="40.0319602" letter-spacing="-0.35046">t</tspan>
                <tspan x="516.46025" y="40.0319602" letter-spacing="-0.09735">c</tspan>
                <tspan x="523.1597" y="40.0319602">h </tspan>
                <tspan x="534.3992" y="40.0319602" letter-spacing="-0.0708">a</tspan>
                <tspan x="542.7182" y="40.0319602">n </tspan>
                <tspan x="553.9577" y="40.0319602" letter-spacing="-0.09381">e</tspan>
                <tspan x="561.20939" y="40.0319602">p </tspan>
                <tspan x="572.66129" y="40.0319602" letter-spacing="-0.11859">o</tspan>
                <tspan x="580.8971" y="40.0319602">f </tspan>
                <tspan x="588.5258" y="40.0319602" letter-spacing="0.02124">S</tspan>
                <tspan x="596.98994" y="40.0319602" letter-spacing="-0.07611">u</tspan>
                <tspan x="605.09123" y="40.0319602" letter-spacing="-0.23364">i</tspan>
                <tspan x="608.37989" y="40.0319602" letter-spacing="-0.12744">t</tspan>
                <tspan x="613.20845" y="40.0319602">s</tspan>
            </text>
            <path d="M193.0213,35.3194 L225.5913,35.3194" id="Stroke-7" stroke="#231F20" stroke-width="1.93" stroke-linecap="round" stroke-linejoin="round"></path>
            <polyline id="Stroke-8" stroke="#231F20" stroke-width="1.93" stroke-linecap="round" stroke-linejoin="round" points="220.5853 30.6656 225.5913 35.3196 220.5853 39.9736"></polyline>
            <path d="M704.6061,2.2969 C704.6061,2.2969 696.4261,2.2969 696.4261,10.4769 L696.4261,63.5239 C696.4261,63.5239 696.4261,71.7029 704.6061,71.7029 L870.3011,71.7029 C870.3011,71.7029 878.4811,71.7029 878.4811,63.5239 L878.4811,10.4769 C878.4811,10.4769 878.4811,2.2969 870.3011,2.2969 L704.6061,2.2969 Z" id="Stroke-9" stroke="#231F20" stroke-width="1.93" stroke-linecap="round" stroke-linejoin="round"></path>
            <text id="Pause-for-Inside-Scene" font-family="MrEavesModOT-Reg, Mr Eaves Mod OT" font-size="17.7" font-weight="normal" letter-spacing="-0.45612" fill="#231F20">
                <tspan x="717.7777" y="40.0320602">P</tspan>
                <tspan x="725.25118" y="40.0320602" letter-spacing="-0.03486">a</tspan>
                <tspan x="733.60612" y="40.0320602" letter-spacing="-0.01185">u</tspan>
                <tspan x="741.77167" y="40.0320602" letter-spacing="-0.07557">s</tspan>
                <tspan x="747.6256" y="40.0320602" letter-spacing="0.0501">e</tspan>
                <tspan x="755.0212" y="40.0320602" letter-spacing="-0.003"> </tspan>
                <tspan x="758.0803" y="40.0320602" letter-spacing="-0.11274">f</tspan>
                <tspan x="762.53416" y="40.0320602" letter-spacing="-0.003">o</tspan>
                <tspan x="770.88556" y="40.0320602" letter-spacing="0.0501">r</tspan>
                <tspan x="776.08636" y="40.0320602" letter-spacing="-0.003"> </tspan>
                <tspan x="779.14546" y="40.0320602" letter-spacing="0.01647">I</tspan>
                <tspan x="782.98513" y="40.0320602" letter-spacing="-0.04371">n</tspan>
                <tspan x="791.11882" y="40.0320602" letter-spacing="-0.01716">s</tspan>
                <tspan x="797.03116" y="40.0320602" letter-spacing="-0.003">i</tspan>
                <tspan x="800.55046" y="40.0320602" letter-spacing="0.0147">d</tspan>
                <tspan x="808.95496" y="40.0320602" letter-spacing="0.0501">e</tspan>
                <tspan x="816.35056" y="40.0320602" letter-spacing="-0.003"> </tspan>
                <tspan x="819.40966" y="40.0320602" letter-spacing="0.11382">S</tspan>
                <tspan x="827.96638" y="40.0320602" letter-spacing="-0.08442">c</tspan>
                <tspan x="834.67876" y="40.0320602" letter-spacing="-0.04371">e</tspan>
                <tspan x="841.98055" y="40.0320602" letter-spacing="-0.003">ne</tspan>
            </text>
            <path d="M704.6061,121.9424 C704.6061,121.9424 696.4261,121.9424 696.4261,130.1224 L696.4261,183.1694 C696.4261,183.1694 696.4261,191.3484 704.6061,191.3484 L870.3011,191.3484 C870.3011,191.3484 878.4811,191.3484 878.4811,183.1694 L878.4811,130.1224 C878.4811,130.1224 878.4811,121.9424 870.3011,121.9424 L704.6061,121.9424 Z" id="Stroke-11" stroke="#231F20" stroke-width="1.93" stroke-linecap="round" stroke-linejoin="round"></path>
            <text id="Select-Jessica-(Gina)-" font-family="MrEavesModOT-Reg, Mr Eaves Mod OT" font-size="17.7" font-weight="normal" letter-spacing="0.16492" fill="#231F20">
                <tspan x="723.8991" y="146.70566">S</tspan>
                <tspan x="732.50692" y="146.70566" letter-spacing="-0.005">e</tspan>
                <tspan x="739.84742" y="146.70566" letter-spacing="0.04456">l</tspan>
                <tspan x="743.41428" y="146.70566" letter-spacing="-0.06872">e</tspan>
                <tspan x="750.69106" y="146.70566" letter-spacing="0.09943">c</tspan>
                <tspan x="757.58729" y="146.70566" letter-spacing="0.0835">t</tspan>
                <tspan x="762.62679" y="146.70566" letter-spacing="-0.005"> </tspan>
                <tspan x="765.68389" y="146.70566" letter-spacing="0.09058">J</tspan>
                <tspan x="769.59767" y="146.70566" letter-spacing="-0.005">e</tspan>
                <tspan x="776.93817" y="146.70566" letter-spacing="-0.01739">s</tspan>
                <tspan x="782.85028" y="146.70566" letter-spacing="0.01801">s</tspan>
                <tspan x="788.79779" y="146.70566" letter-spacing="-0.005">i</tspan>
                <tspan x="792.31509" y="146.70566" letter-spacing="-0.07934">c</tspan>
                <tspan x="799.03255" y="146.70566" letter-spacing="0.0835">a</tspan>
                <tspan x="807.50585" y="146.70566" letter-spacing="-0.005"> </tspan>
                <tspan x="810.56295" y="146.70566" letter-spacing="-0.71123">(</tspan>
                <tspan x="815.55112" y="146.70566" letter-spacing="0.07288">G</tspan>
                <tspan x="827.2883" y="146.70566" letter-spacing="-0.005">i</tspan>
                <tspan x="830.8056" y="146.70566" letter-spacing="0.00739">n</tspan>
                <tspan x="838.99039" y="146.70566" letter-spacing="-0.58379">a</tspan>
                <tspan x="846.7964" y="146.70566" letter-spacing="0.0835">)</tspan>
                <tspan x="852.5793" y="146.70566" letter-spacing="-0.005"> </tspan>
            </text>
            <text id="-" font-family="MrEavesModOT-Reg, Mr Eaves Mod OT" font-size="17.7" font-weight="normal"></text>
            <text id="from-cast-lineup" font-family="MrEavesModOT-Reg, Mr Eaves Mod OT" font-size="17.7" font-weight="normal" letter-spacing="-0.003" fill="#231F20">
                <tspan x="737.1915" y="167.94566">f</tspan>
                <tspan x="741.7551" y="167.94566" letter-spacing="-0.12867">r</tspan>
                <tspan x="746.60013" y="167.94566">o</tspan>
                <tspan x="754.95153" y="167.94566" letter-spacing="0.0501">m</tspan>
                <tspan x="767.25003" y="167.94566"> </tspan>
                <tspan x="770.30913" y="167.94566" letter-spacing="-0.11451">c</tspan>
                <tspan x="776.99142" y="167.94566">a</tspan>
                <tspan x="785.37822" y="167.94566" letter-spacing="-0.10389">s</tspan>
                <tspan x="791.20383" y="167.94566" letter-spacing="0.0501">t</tspan>
                <tspan x="796.20993" y="167.94566"> </tspan>
                <tspan x="799.26903" y="167.94566" letter-spacing="-0.05079">l</tspan>
                <tspan x="802.74054" y="167.94566" letter-spacing="-0.04371">i</tspan>
                <tspan x="806.21913" y="167.94566">n</tspan>
                <tspan x="814.39353" y="167.94566" letter-spacing="-0.08973">e</tspan>
                <tspan x="821.6493" y="167.94566" letter-spacing="-0.0207">u</tspan>
                <tspan x="829.806" y="167.94566">p</tspan>
            </text>
            <path d="M472.7857,121.9424 C472.7857,121.9424 464.6057,121.9424 464.6057,130.1224 L464.6057,183.1694 C464.6057,183.1694 464.6057,191.3484 472.7857,191.3484 L638.4807,191.3484 C638.4807,191.3484 646.6607,191.3484 646.6607,183.1694 L646.6607,130.1224 C646.6607,130.1224 646.6607,121.9424 638.4807,121.9424 L472.7857,121.9424 Z" id="Stroke-13" stroke="#231F20" stroke-width="1.93" stroke-linecap="round" stroke-linejoin="round"></path>
            <text id="Switch-from-her-bio-" font-family="MrEavesModOT-Reg, Mr Eaves Mod OT" font-size="17.7" font-weight="normal" letter-spacing="-0.05787" fill="#231F20">
                <tspan x="494.7303" y="143.86306">S</tspan>
                <tspan x="503.11533" y="143.86306" letter-spacing="0.05718">w</tspan>
                <tspan x="513.96951" y="143.86306" letter-spacing="-0.18354">i</tspan>
                <tspan x="517.30827" y="143.86306" letter-spacing="-0.30036">t</tspan>
                <tspan x="521.96391" y="143.86306" letter-spacing="-0.04725">c</tspan>
                <tspan x="528.71346" y="143.86306" letter-spacing="0.0501">h</tspan>
                <tspan x="536.94096" y="143.86306" letter-spacing="-0.003"> f</tspan>
                <tspan x="544.56366" y="143.86306" letter-spacing="-0.13044">r</tspan>
                <tspan x="549.40692" y="143.86306" letter-spacing="-0.003">o</tspan>
                <tspan x="557.75832" y="143.86306" letter-spacing="0.0501">m</tspan>
                <tspan x="570.05682" y="143.86306" letter-spacing="-0.003"> h</tspan>
                <tspan x="581.29032" y="143.86306" letter-spacing="-0.04371">e</tspan>
                <tspan x="588.59211" y="143.86306" letter-spacing="0.0501">r</tspan>
                <tspan x="593.79291" y="143.86306" letter-spacing="-0.003"> bi</tspan>
                <tspan x="608.75811" y="143.86306" letter-spacing="0.0501">o</tspan>
                <tspan x="617.16261" y="143.86306" letter-spacing="-0.003"> </tspan>
            </text>
            <text id="-" font-family="MrEavesModOT-Reg, Mr Eaves Mod OT" font-size="17.7" font-weight="normal"></text>
            <text id="to-the-Looks-section" font-family="MrEavesModOT-Reg, Mr Eaves Mod OT" font-size="17.7" font-weight="normal" letter-spacing="-0.28266" fill="#231F20">
                <tspan x="493.3948" y="165.10306">t</tspan>
                <tspan x="498.06814" y="165.10306" letter-spacing="0.0501">o</tspan>
                <tspan x="506.47264" y="165.10306" letter-spacing="-0.003"> </tspan>
                <tspan x="509.53174" y="165.10306" letter-spacing="-0.17469">t</tspan>
                <tspan x="514.31305" y="165.10306" letter-spacing="-0.003">h</tspan>
                <tspan x="522.48745" y="165.10306" letter-spacing="0.0501">e</tspan>
                <tspan x="529.88305" y="165.10306" letter-spacing="-0.003"> </tspan>
                <tspan x="532.94215" y="165.10306" letter-spacing="0.02532">L</tspan>
                <tspan x="540.82627" y="165.10306" letter-spacing="0.02001">o</tspan>
                <tspan x="549.20068" y="165.10306" letter-spacing="-0.003">o</tspan>
                <tspan x="557.55208" y="165.10306" letter-spacing="0.174">k</tspan>
                <tspan x="564.84148" y="165.10306" letter-spacing="0.0501">s</tspan>
                <tspan x="570.82108" y="165.10306" letter-spacing="-0.003"> </tspan>
                <tspan x="573.88018" y="165.10306" letter-spacing="-0.07557">s</tspan>
                <tspan x="579.73411" y="165.10306" letter-spacing="-0.10212">e</tspan>
                <tspan x="586.97749" y="165.10306" letter-spacing="0.06603">c</tspan>
                <tspan x="593.84032" y="165.10306" letter-spacing="-0.17469">t</tspan>
                <tspan x="598.62163" y="165.10306" letter-spacing="-0.003">ion</tspan>
            </text>
            <path d="M240.9653,121.9424 C240.9653,121.9424 232.7853,121.9424 232.7853,130.1224 L232.7853,183.1694 C232.7853,183.1694 232.7853,191.3484 240.9653,191.3484 L406.6603,191.3484 C406.6603,191.3484 414.8403,191.3484 414.8403,183.1694 L414.8403,130.1224 C414.8403,130.1224 414.8403,121.9424 406.6603,121.9424 L240.9653,121.9424 Z" id="Stroke-15" stroke="#231F20" stroke-width="1.93" stroke-linecap="round" stroke-linejoin="round"></path>
            <text id="Pick-an-outit" font-family="MrEavesModOT-Reg, Mr Eaves Mod OT" font-size="17.7" font-weight="normal" letter-spacing="0.14022" fill="#231F20">
                <tspan x="282.5543" y="159.41246">P</tspan>
                <tspan x="291.15512" y="159.41246" letter-spacing="0.11898">i</tspan>
                <tspan x="294.7964" y="159.41246" letter-spacing="0.10128">c</tspan>
                <tspan x="301.69448" y="159.41246" letter-spacing="0.2004">k</tspan>
                <tspan x="309.01028" y="159.41246" letter-spacing="-0.012"> </tspan>
                <tspan x="312.06038" y="159.41246" letter-spacing="0.1296">a</tspan>
                <tspan x="320.57978" y="159.41246" letter-spacing="0.2004">n</tspan>
                <tspan x="328.95758" y="159.41246" letter-spacing="-0.012"> </tspan>
                <tspan x="332.00768" y="159.41246" letter-spacing="0.12252">o</tspan>
                <tspan x="340.4846" y="159.41246" letter-spacing="-0.012">u</tspan>
                <tspan x="348.65" y="159.41246" letter-spacing="0.42342">t</tspan>
                <tspan x="354.02942" y="159.41246" letter-spacing="-0.02085">i</tspan>
                <tspan x="357.53087" y="159.41246" letter-spacing="-0.012">t</tspan>
            </text>
            <path d="M9.1448,121.9424 C9.1448,121.9424 0.9648,121.9424 0.9648,130.1224 L0.9648,183.1694 C0.9648,183.1694 0.9648,191.3484 9.1448,191.3484 L174.8398,191.3484 C174.8398,191.3484 183.0198,191.3484 183.0198,183.1694 L183.0198,130.1224 C183.0198,130.1224 183.0198,121.9424 174.8398,121.9424 L9.1448,121.9424 Z" id="Stroke-17" stroke="#231F20" stroke-width="1.93" stroke-linecap="round" stroke-linejoin="round"></path>
            <text id="Read-the-reviews" font-family="MrEavesModOT-Reg, Mr Eaves Mod OT" font-size="17.7" font-weight="normal" letter-spacing="-0.15522" fill="#231F20">
                <tspan x="39.2326" y="159.41246">R</tspan>
                <tspan x="48.31678" y="159.41246" letter-spacing="-0.06849">e</tspan>
                <tspan x="55.59379" y="159.41246" letter-spacing="-0.003">a</tspan>
                <tspan x="63.98059" y="159.41246" letter-spacing="0.0501">d</tspan>
                <tspan x="72.42049" y="159.41246" letter-spacing="-0.003"> </tspan>
                <tspan x="75.47959" y="159.41246" letter-spacing="-0.17469">t</tspan>
                <tspan x="80.2609" y="159.41246" letter-spacing="-0.003">h</tspan>
                <tspan x="88.4353" y="159.41246" letter-spacing="0.0501">e</tspan>
                <tspan x="95.8309" y="159.41246" letter-spacing="-0.003"> </tspan>
                <tspan x="98.89" y="159.41246" letter-spacing="-0.11274">r</tspan>
                <tspan x="103.75096" y="159.41246" letter-spacing="-0.14814">e</tspan>
                <tspan x="110.77132" y="159.41246" letter-spacing="0.04833">v</tspan>
                <tspan x="117.59875" y="159.41246" letter-spacing="0.01116">i</tspan>
                <tspan x="121.13221" y="159.41246" letter-spacing="-0.15699">e</tspan>
                <tspan x="128.14372" y="159.41246" letter-spacing="-0.003">ws</tspan>
            </text>
            <path d="M9.1448,236.6504 C9.1448,236.6504 0.9648,236.6504 0.9648,244.8304 L0.9648,297.8774 C0.9648,297.8774 0.9648,306.0564 9.1448,306.0564 L174.8398,306.0564 C174.8398,306.0564 183.0198,306.0564 183.0198,297.8774 L183.0198,244.8304 C183.0198,244.8304 183.0198,236.6504 174.8398,236.6504 L9.1448,236.6504 Z" id="Stroke-19" stroke="#231F20" stroke-width="1.93" stroke-linecap="round" stroke-linejoin="round"></path>
            <text id="Compare-to-similar-" font-family="MrEavesModOT-Reg, Mr Eaves Mod OT" font-size="17.7" font-weight="normal" letter-spacing="-0.004" fill="#231F20">
                <tspan x="31.4264" y="261.91506">C</tspan>
                <tspan x="42.2194" y="261.91506" letter-spacing="0.01724">o</tspan>
                <tspan x="50.59104" y="261.91506">m</tspan>
                <tspan x="62.83544" y="261.91506" letter-spacing="0.02078">p</tspan>
                <tspan x="71.24602" y="261.91506">a</tspan>
                <tspan x="79.63182" y="261.91506" letter-spacing="-0.09604">r</tspan>
                <tspan x="84.50948" y="261.91506" letter-spacing="0.0668">e</tspan>
                <tspan x="91.92178" y="261.91506"> </tspan>
                <tspan x="94.97988" y="261.91506" letter-spacing="-0.26596">t</tspan>
                <tspan x="99.66992" y="261.91506" letter-spacing="0.0668">o</tspan>
                <tspan x="108.09112" y="261.91506"> s</tspan>
                <tspan x="117.07472" y="261.91506" letter-spacing="-0.02878">i</tspan>
                <tspan x="120.56824" y="261.91506">m</tspan>
                <tspan x="132.81264" y="261.91506" letter-spacing="-0.03232">i</tspan>
                <tspan x="136.30262" y="261.91506" letter-spacing="0.00839">l</tspan>
                <tspan x="139.83331" y="261.91506">a</tspan>
                <tspan x="148.21911" y="261.91506" letter-spacing="0.0668">r</tspan>
                <tspan x="153.43661" y="261.91506"> </tspan>
            </text>
            <text id="-" font-family="MrEavesModOT-Reg, Mr Eaves Mod OT" font-size="17.7" font-weight="normal"></text>
            <text id="outits-on-Amazon" font-family="MrEavesModOT-Reg, Mr Eaves Mod OT" font-size="17.7" font-weight="normal" letter-spacing="-0.02778" fill="#231F20">
                <tspan x="33.9901" y="283.15506">o</tspan>
                <tspan x="42.31672" y="283.15506" letter-spacing="-0.16584">u</tspan>
                <tspan x="50.32828" y="283.15506" letter-spacing="0.27489">t</tspan>
                <tspan x="55.55917" y="283.15506" letter-spacing="-0.17115">i</tspan>
                <tspan x="58.91032" y="283.15506" letter-spacing="-0.07734">t</tspan>
                <tspan x="63.78898" y="283.15506" letter-spacing="0.0501">s</tspan>
                <tspan x="69.76858" y="283.15506" letter-spacing="-0.003"> o</tspan>
                <tspan x="81.17908" y="283.15506" letter-spacing="0.0501">n</tspan>
                <tspan x="89.40658" y="283.15506" letter-spacing="-0.003"> </tspan>
                <tspan x="92.46568" y="283.15506" letter-spacing="0.06957">A</tspan>
                <tspan x="102.94285" y="283.15506" letter-spacing="-0.003">m</tspan>
                <tspan x="115.18825" y="283.15506" letter-spacing="-0.12159">a</tspan>
                <tspan x="123.45646" y="283.15506" letter-spacing="-0.24726">z</tspan>
                <tspan x="129.2803" y="283.15506" letter-spacing="-0.003">on</tspan>
            </text>
            <path d="M240.9653,236.6504 C240.9653,236.6504 232.7853,236.6504 232.7853,244.8304 L232.7853,297.8774 C232.7853,297.8774 232.7853,306.0564 240.9653,306.0564 L406.6603,306.0564 C406.6603,306.0564 414.8403,306.0564 414.8403,297.8774 L414.8403,244.8304 C414.8403,244.8304 414.8403,236.6504 406.6603,236.6504 L240.9653,236.6504 Z" id="Stroke-21" stroke="#231F20" stroke-width="1.93" stroke-linecap="round" stroke-linejoin="round"></path>
            <text id="Add-to-wishlist-" font-family="MrEavesModOT-Reg, Mr Eaves Mod OT" font-size="17.7" font-weight="normal" letter-spacing="-0.11682" fill="#231F20">
                <tspan x="277.8435" y="263.47186">A</tspan>
                <tspan x="288.13428" y="263.47186" letter-spacing="-0.0531">d</tspan>
                <tspan x="296.47098" y="263.47186">d </tspan>
                <tspan x="307.92288" y="263.47186" letter-spacing="-0.33276">t</tspan>
                <tspan x="312.54612" y="263.47186">o w</tspan>
                <tspan x="334.75962" y="263.47186" letter-spacing="-0.06018">i</tspan>
                <tspan x="338.22174" y="263.47186" letter-spacing="-0.08496">s</tspan>
                <tspan x="344.06628" y="263.47186" letter-spacing="-0.08319">h</tspan>
                <tspan x="352.16049" y="263.47186" letter-spacing="-0.09912">l</tspan>
                <tspan x="355.58367" y="263.47186" letter-spacing="-0.06018">i</tspan>
                <tspan x="359.04579" y="263.47186" letter-spacing="-0.15399">s</tspan>
                <tspan x="364.8213" y="263.47186">t </tspan>
            </text>
            <text id="-" font-family="MrEavesModOT-Reg, Mr Eaves Mod OT" font-size="17.7" font-weight="normal"></text>
            <text id="to-purchase-later" font-family="MrEavesModOT-Reg, Mr Eaves Mod OT" font-size="17.7" font-weight="normal" letter-spacing="-0.24926" fill="#231F20">
                <tspan x="271.0965" y="284.71186">t</tspan>
                <tspan x="275.80324" y="284.71186" letter-spacing="0.0835">o</tspan>
                <tspan x="284.24114" y="284.71186" letter-spacing="-0.005"> p</tspan>
                <tspan x="295.68304" y="284.71186" letter-spacing="0.0127">u</tspan>
                <tspan x="303.87314" y="284.71186" letter-spacing="-0.11474">r</tspan>
                <tspan x="308.7321" y="284.71186" letter-spacing="-0.01385">c</tspan>
                <tspan x="315.51505" y="284.71186" letter-spacing="0.00562">h</tspan>
                <tspan x="323.69807" y="284.71186" letter-spacing="0.02332">a</tspan>
                <tspan x="332.11119" y="284.71186" letter-spacing="-0.04217">s</tspan>
                <tspan x="337.99852" y="284.71186" letter-spacing="0.0835">e</tspan>
                <tspan x="345.42752" y="284.71186" letter-spacing="-0.005"> </tspan>
                <tspan x="348.48462" y="284.71186" letter-spacing="0.02509">l</tspan>
                <tspan x="352.03201" y="284.71186" letter-spacing="-0.13244">a</tspan>
                <tspan x="360.28937" y="284.71186" letter-spacing="-0.21209">t</tspan>
                <tspan x="365.03328" y="284.71186" letter-spacing="-0.005">er</tspan>
            </text>
            <path d="M472.7857,236.6504 C472.7857,236.6504 464.6057,236.6504 464.6057,244.8304 L464.6057,297.8774 C464.6057,297.8774 464.6057,306.0564 472.7857,306.0564 L638.4807,306.0564 C638.4807,306.0564 646.6607,306.0564 646.6607,297.8774 L646.6607,244.8304 C646.6607,244.8304 646.6607,236.6504 638.4807,236.6504 L472.7857,236.6504 Z" id="Stroke-23" stroke="#231F20" stroke-width="1.93" stroke-linecap="round" stroke-linejoin="round"></path>
            <text id="When-inished," font-family="MrEavesModOT-Reg, Mr Eaves Mod OT" font-size="17.7" font-weight="normal" letter-spacing="0.11182" fill="#231F20">
                <tspan x="508.2921" y="263.47186">W</tspan>
                <tspan x="523.23652" y="263.47186" letter-spacing="0.02509">h</tspan>
                <tspan x="531.43901" y="263.47186" letter-spacing="-0.005">e</tspan>
                <tspan x="538.77951" y="263.47186" letter-spacing="0.0835">n</tspan>
                <tspan x="547.04041" y="263.47186" letter-spacing="-0.005"> </tspan>
                <tspan x="550.09751" y="263.47186" letter-spacing="0.00739">i</tspan>
                <tspan x="553.6272" y="263.47186" letter-spacing="-0.005">n</tspan>
                <tspan x="561.7996" y="263.47186" letter-spacing="0.02155">i</tspan>
                <tspan x="565.34345" y="263.47186" letter-spacing="-0.005">s</tspan>
                <tspan x="571.26795" y="263.47186" letter-spacing="0.02509">h</tspan>
                <tspan x="579.47044" y="263.47186" letter-spacing="-0.03509">e</tspan>
                <tspan x="586.78085" y="263.47186" letter-spacing="-0.10058">d</tspan>
                <tspan x="595.07007" y="263.47186" letter-spacing="-0.005">,</tspan>
            </text>
            <text id="return-to-show" font-family="MrEavesModOT-Reg, Mr Eaves Mod OT" font-size="17.7" font-weight="normal" letter-spacing="-0.07934" fill="#231F20">
                <tspan x="510.5931" y="284.71186">r</tspan>
                <tspan x="515.48746" y="284.71186" letter-spacing="-0.16784">e</tspan>
                <tspan x="522.66512" y="284.71186" letter-spacing="-0.14129">t</tspan>
                <tspan x="527.47983" y="284.71186" letter-spacing="0.0127">u</tspan>
                <tspan x="535.66993" y="284.71186" letter-spacing="-0.05279">r</tspan>
                <tspan x="540.76784" y="284.71186" letter-spacing="0.0835">n</tspan>
                <tspan x="549.02874" y="284.71186" letter-spacing="-0.005"> </tspan>
                <tspan x="552.08584" y="284.71186" letter-spacing="-0.25103">t</tspan>
                <tspan x="556.79081" y="284.71186" letter-spacing="0.0835">o</tspan>
                <tspan x="565.22871" y="284.71186" letter-spacing="-0.005"> sh</tspan>
                <tspan x="582.38271" y="284.71186" letter-spacing="-0.12359">o</tspan>
                <tspan x="590.43652" y="284.71186" letter-spacing="-0.005">w</tspan>
            </text>
            <path d="M785.7725,80.3119 L785.7725,112.8819" id="Stroke-25" stroke="#231F20" stroke-width="1.93" stroke-linecap="round" stroke-linejoin="round"></path>
            <polyline id="Stroke-26" stroke="#231F20" stroke-width="1.93" stroke-linecap="round" stroke-linejoin="round" points="790.4268 107.876 785.7728 112.881 781.1188 107.876"></polyline>
            <path d="M90.3115,197.4888 L90.3115,230.0588" id="Stroke-27" stroke="#231F20" stroke-width="1.93" stroke-linecap="round" stroke-linejoin="round"></path>
            <polyline id="Stroke-28" stroke="#231F20" stroke-width="1.93" stroke-linecap="round" stroke-linejoin="round" points="94.9658 225.0528 90.3118 230.0588 85.6578 225.0528"></polyline>
            <path d="M421.4807,35.3194 L454.0507,35.3194" id="Stroke-29" stroke="#231F20" stroke-width="1.93" stroke-linecap="round" stroke-linejoin="round"></path>
            <polyline id="Stroke-30" stroke="#231F20" stroke-width="1.93" stroke-linecap="round" stroke-linejoin="round" points="449.0448 30.6656 454.0508 35.3196 449.0448 39.9736"></polyline>
            <path d="M421.4807,269.6729 L454.0507,269.6729" id="Stroke-31" stroke="#231F20" stroke-width="1.93" stroke-linecap="round" stroke-linejoin="round"></path>
            <polyline id="Stroke-32" stroke="#231F20" stroke-width="1.93" stroke-linecap="round" stroke-linejoin="round" points="449.0448 265.0191 454.0508 269.6731 449.0448 274.3271"></polyline>
            <path d="M655.0326,35.3194 L687.6026,35.3194" id="Stroke-33" stroke="#231F20" stroke-width="1.93" stroke-linecap="round" stroke-linejoin="round"></path>
            <polyline id="Stroke-34" stroke="#231F20" stroke-width="1.93" stroke-linecap="round" stroke-linejoin="round" points="682.5966 30.6656 687.6016 35.3196 682.5966 39.9736"></polyline>
            <path d="M688.0544,153.8223 L655.4844,153.8223" id="Stroke-35" stroke="#231F20" stroke-width="1.93" stroke-linecap="round" stroke-linejoin="round"></path>
            <polyline id="Stroke-36" stroke="#231F20" stroke-width="1.93" stroke-linecap="round" stroke-linejoin="round" points="660.4904 149.1685 655.4854 153.8225 660.4904 158.4765"></polyline>
            <path d="M454.5025,153.8223 L421.9325,153.8223" id="Stroke-37" stroke="#231F20" stroke-width="1.93" stroke-linecap="round" stroke-linejoin="round"></path>
            <polyline id="Stroke-38" stroke="#231F20" stroke-width="1.93" stroke-linecap="round" stroke-linejoin="round" points="426.9384 149.1685 421.9334 153.8225 426.9384 158.4765"></polyline>
            <path d="M224.4135,153.8223 L191.8435,153.8223" id="Stroke-39" stroke="#231F20" stroke-width="1.93" stroke-linecap="round" stroke-linejoin="round"></path>
            <polyline id="Stroke-40" stroke="#231F20" stroke-width="1.93" stroke-linecap="round" stroke-linejoin="round" points="196.8495 149.1685 191.8445 153.8225 196.8495 158.4765"></polyline>
            <path d="M193.0213,269.6729 L225.5913,269.6729" id="Stroke-41" stroke="#231F20" stroke-width="1.93" stroke-linecap="round" stroke-linejoin="round"></path>
            <polyline id="Stroke-42" stroke="#231F20" stroke-width="1.93" stroke-linecap="round" stroke-linejoin="round" points="220.5853 265.0191 225.5913 269.6731 220.5853 274.3271"></polyline>
        </g>
    </g>
</svg>