<svg width="880" height="308" xmlns="http://www.w3.org/2000/svg"><g fill="none" fill-rule="evenodd"><path d="M10.945.965s-8.18 0-8.18 8.18v55.71s0 8.18 8.18 8.18H176.64s8.18 0 8.18-8.18V9.145s0-8.18-8.18-8.18H10.945z" stroke="#231F20" stroke-width="1.93" stroke-linecap="round" stroke-linejoin="round"/><text font-family="MrEavesModOT-Reg, Mr Eaves Mod OT" font-size="17.7" letter-spacing="-.014" fill="#231F20"><tspan x="35.731" y="39.758">G</tspan> <tspan x="47.381" y="39.758">o </tspan> <tspan x="58.798" y="39.758" letter-spacing="-.333">t</tspan> <tspan x="63.421" y="39.758">o </tspan> <tspan x="74.837" y="39.758" letter-spacing="-.122">P</tspan> <tspan x="82.822" y="39.758" letter-spacing="-.136">r</tspan> <tspan x="87.836" y="39.758" letter-spacing="-.094">i</tspan> <tspan x="91.265" y="39.758" letter-spacing="-.041">m</tspan> <tspan x="103.472" y="39.758">e </tspan> <tspan x="113.88" y="39.758" letter-spacing="-.195">V</tspan> <tspan x="124.093" y="39.758" letter-spacing="-.058">i</tspan> <tspan x="127.557" y="39.758" letter-spacing="-.035">d</tspan> <tspan x="135.911" y="39.758" letter-spacing="-.108">e</tspan> <tspan x="143.149" y="39.758">o</tspan></text><path d="M241.652 2.297s-8.18 0-8.18 8.18v53.047s0 8.179 8.18 8.179h165.695s8.18 0 8.18-8.18V10.478s0-8.18-8.18-8.18H241.652z" stroke="#231F20" stroke-width="1.93" stroke-linecap="round" stroke-linejoin="round"/><text font-family="MrEavesModOT-Reg, Mr Eaves Mod OT" font-size="17.7" letter-spacing=".165" fill="#231F20"><tspan x="268.394" y="40.032">S</tspan> <tspan x="277.001" y="40.032" letter-spacing="-.035">e</tspan> <tspan x="284.312" y="40.032" letter-spacing=".013">a</tspan> <tspan x="292.714" y="40.032" letter-spacing="-.115">r</tspan> <tspan x="297.573" y="40.032" letter-spacing="-.014">c</tspan> <tspan x="304.356" y="40.032" letter-spacing=".084">h</tspan> <tspan x="312.617" y="40.032" letter-spacing="-.005"> </tspan> <tspan x="315.674" y="40.032" letter-spacing="-.079">f</tspan> <tspan x="320.161" y="40.032" letter-spacing=".032">o</tspan> <tspan x="328.548" y="40.032" letter-spacing=".084">r</tspan> <tspan x="333.782" y="40.032" letter-spacing="-.005"> </tspan> <tspan x="336.839" y="40.032" letter-spacing=".084">a</tspan> <tspan x="345.313" y="40.032" letter-spacing="-.005"> sh</tspan> <tspan x="362.467" y="40.032" letter-spacing="-.124">o</tspan> <tspan x="370.52" y="40.032" letter-spacing="-.005">w</tspan></text><path d="M472.786 2.297s-8.18 0-8.18 8.18v53.047s0 8.179 8.18 8.179H638.48s8.18 0 8.18-8.18V10.478s0-8.18-8.18-8.18H472.786z" stroke="#231F20" stroke-width="1.93" stroke-linecap="round" stroke-linejoin="round"/><text font-family="MrEavesModOT-Reg, Mr Eaves Mod OT" font-size="17.7" letter-spacing="-.805" fill="#231F20"><tspan x="490.893" y="40.032">W</tspan> <tspan x="503.681" y="40.032" letter-spacing="-.216">a</tspan> <tspan x="511.855" y="40.032" letter-spacing="-.35">t</tspan> <tspan x="516.46" y="40.032" letter-spacing="-.097">c</tspan> <tspan x="523.16" y="40.032">h </tspan> <tspan x="534.399" y="40.032" letter-spacing="-.071">a</tspan> <tspan x="542.718" y="40.032">n </tspan> <tspan x="553.958" y="40.032" letter-spacing="-.094">e</tspan> <tspan x="561.209" y="40.032">p </tspan> <tspan x="572.661" y="40.032" letter-spacing="-.119">o</tspan> <tspan x="580.897" y="40.032">f </tspan> <tspan x="588.526" y="40.032" letter-spacing=".021">S</tspan> <tspan x="596.99" y="40.032" letter-spacing="-.076">u</tspan> <tspan x="605.091" y="40.032" letter-spacing="-.234">i</tspan> <tspan x="608.38" y="40.032" letter-spacing="-.127">t</tspan> <tspan x="613.208" y="40.032">s</tspan></text><path d="M193.021 35.32h32.57m-5.006-4.654l5.006 4.654-5.006 4.654M704.606 2.297s-8.18 0-8.18 8.18v53.047s0 8.179 8.18 8.179h165.695s8.18 0 8.18-8.18V10.478s0-8.18-8.18-8.18H704.606z" stroke="#231F20" stroke-width="1.93" stroke-linecap="round" stroke-linejoin="round"/><text font-family="MrEavesModOT-Reg, Mr Eaves Mod OT" font-size="17.7" letter-spacing="-.456" fill="#231F20"><tspan x="717.778" y="40.032">P</tspan> <tspan x="725.251" y="40.032" letter-spacing="-.035">a</tspan> <tspan x="733.606" y="40.032" letter-spacing="-.012">u</tspan> <tspan x="741.772" y="40.032" letter-spacing="-.076">s</tspan> <tspan x="747.626" y="40.032" letter-spacing=".05">e</tspan> <tspan x="755.021" y="40.032" letter-spacing="-.003"> </tspan> <tspan x="758.08" y="40.032" letter-spacing="-.113">f</tspan> <tspan x="762.534" y="40.032" letter-spacing="-.003">o</tspan> <tspan x="770.886" y="40.032" letter-spacing=".05">r</tspan> <tspan x="776.086" y="40.032" letter-spacing="-.003"> </tspan> <tspan x="779.145" y="40.032" letter-spacing=".016">I</tspan> <tspan x="782.985" y="40.032" letter-spacing="-.044">n</tspan> <tspan x="791.119" y="40.032" letter-spacing="-.017">s</tspan> <tspan x="797.031" y="40.032" letter-spacing="-.003">i</tspan> <tspan x="800.55" y="40.032" letter-spacing=".015">d</tspan> <tspan x="808.955" y="40.032" letter-spacing=".05">e</tspan> <tspan x="816.351" y="40.032" letter-spacing="-.003"> </tspan> <tspan x="819.41" y="40.032" letter-spacing=".114">S</tspan> <tspan x="827.966" y="40.032" letter-spacing="-.084">c</tspan> <tspan x="834.679" y="40.032" letter-spacing="-.044">e</tspan> <tspan x="841.981" y="40.032" letter-spacing="-.003">ne</tspan></text><path d="M704.606 121.942s-8.18 0-8.18 8.18v53.047s0 8.18 8.18 8.18h165.695s8.18 0 8.18-8.18v-53.047s0-8.18-8.18-8.18H704.606z" stroke="#231F20" stroke-width="1.93" stroke-linecap="round" stroke-linejoin="round"/><text font-family="MrEavesModOT-Reg, Mr Eaves Mod OT" font-size="17.7" letter-spacing=".165" fill="#231F20"><tspan x="723.899" y="146.706">S</tspan> <tspan x="732.507" y="146.706" letter-spacing="-.005">e</tspan> <tspan x="739.847" y="146.706" letter-spacing=".045">l</tspan> <tspan x="743.414" y="146.706" letter-spacing="-.069">e</tspan> <tspan x="750.691" y="146.706" letter-spacing=".099">c</tspan> <tspan x="757.587" y="146.706" letter-spacing=".084">t</tspan> <tspan x="762.627" y="146.706" letter-spacing="-.005"> </tspan> <tspan x="765.684" y="146.706" letter-spacing=".091">J</tspan> <tspan x="769.598" y="146.706" letter-spacing="-.005">e</tspan> <tspan x="776.938" y="146.706" letter-spacing="-.017">s</tspan> <tspan x="782.85" y="146.706" letter-spacing=".018">s</tspan> <tspan x="788.798" y="146.706" letter-spacing="-.005">i</tspan> <tspan x="792.315" y="146.706" letter-spacing="-.079">c</tspan> <tspan x="799.033" y="146.706" letter-spacing=".084">a</tspan> <tspan x="807.506" y="146.706" letter-spacing="-.005"> </tspan> <tspan x="810.563" y="146.706" letter-spacing="-.711">(</tspan> <tspan x="815.551" y="146.706" letter-spacing=".073">G</tspan> <tspan x="827.288" y="146.706" letter-spacing="-.005">i</tspan> <tspan x="830.806" y="146.706" letter-spacing=".007">n</tspan> <tspan x="838.99" y="146.706" letter-spacing="-.584">a</tspan> <tspan x="846.796" y="146.706" letter-spacing=".084">)</tspan> </text><text font-family="MrEavesModOT-Reg, Mr Eaves Mod OT" font-size="17.7" letter-spacing="-.003" fill="#231F20"><tspan x="737.192" y="167.946">f</tspan> <tspan x="741.755" y="167.946" letter-spacing="-.129">r</tspan> <tspan x="746.6" y="167.946">o</tspan> <tspan x="754.952" y="167.946" letter-spacing=".05">m</tspan> <tspan x="767.25" y="167.946"> </tspan> <tspan x="770.309" y="167.946" letter-spacing="-.115">c</tspan> <tspan x="776.991" y="167.946">a</tspan> <tspan x="785.378" y="167.946" letter-spacing="-.104">s</tspan> <tspan x="791.204" y="167.946" letter-spacing=".05">t</tspan> <tspan x="796.21" y="167.946"> </tspan> <tspan x="799.269" y="167.946" letter-spacing="-.051">l</tspan> <tspan x="802.741" y="167.946" letter-spacing="-.044">i</tspan> <tspan x="806.219" y="167.946">n</tspan> <tspan x="814.394" y="167.946" letter-spacing="-.09">e</tspan> <tspan x="821.649" y="167.946" letter-spacing="-.021">u</tspan> <tspan x="829.806" y="167.946">p</tspan></text><path d="M472.786 121.942s-8.18 0-8.18 8.18v53.047s0 8.18 8.18 8.18H638.48s8.18 0 8.18-8.18v-53.047s0-8.18-8.18-8.18H472.786z" stroke="#231F20" stroke-width="1.93" stroke-linecap="round" stroke-linejoin="round"/><text font-family="MrEavesModOT-Reg, Mr Eaves Mod OT" font-size="17.7" letter-spacing="-.058" fill="#231F20"><tspan x="494.73" y="143.863">S</tspan> <tspan x="503.115" y="143.863" letter-spacing=".057">w</tspan> <tspan x="513.97" y="143.863" letter-spacing="-.184">i</tspan> <tspan x="517.308" y="143.863" letter-spacing="-.3">t</tspan> <tspan x="521.964" y="143.863" letter-spacing="-.047">c</tspan> <tspan x="528.713" y="143.863" letter-spacing=".05">h</tspan> <tspan x="536.941" y="143.863" letter-spacing="-.003"> f</tspan> <tspan x="544.564" y="143.863" letter-spacing="-.13">r</tspan> <tspan x="549.407" y="143.863" letter-spacing="-.003">o</tspan> <tspan x="557.758" y="143.863" letter-spacing=".05">m</tspan> <tspan x="570.057" y="143.863" letter-spacing="-.003"> h</tspan> <tspan x="581.29" y="143.863" letter-spacing="-.044">e</tspan> <tspan x="588.592" y="143.863" letter-spacing=".05">r</tspan> <tspan x="593.793" y="143.863" letter-spacing="-.003"> bi</tspan> <tspan x="608.758" y="143.863" letter-spacing=".05">o</tspan> </text><text font-family="MrEavesModOT-Reg, Mr Eaves Mod OT" font-size="17.7" letter-spacing="-.283" fill="#231F20"><tspan x="493.395" y="165.103">t</tspan> <tspan x="498.068" y="165.103" letter-spacing=".05">o</tspan> <tspan x="506.473" y="165.103" letter-spacing="-.003"> </tspan> <tspan x="509.532" y="165.103" letter-spacing="-.175">t</tspan> <tspan x="514.313" y="165.103" letter-spacing="-.003">h</tspan> <tspan x="522.487" y="165.103" letter-spacing=".05">e</tspan> <tspan x="529.883" y="165.103" letter-spacing="-.003"> </tspan> <tspan x="532.942" y="165.103" letter-spacing=".025">L</tspan> <tspan x="540.826" y="165.103" letter-spacing=".02">o</tspan> <tspan x="549.201" y="165.103" letter-spacing="-.003">o</tspan> <tspan x="557.552" y="165.103" letter-spacing=".174">k</tspan> <tspan x="564.841" y="165.103" letter-spacing=".05">s</tspan> <tspan x="570.821" y="165.103" letter-spacing="-.003"> </tspan> <tspan x="573.88" y="165.103" letter-spacing="-.076">s</tspan> <tspan x="579.734" y="165.103" letter-spacing="-.102">e</tspan> <tspan x="586.977" y="165.103" letter-spacing=".066">c</tspan> <tspan x="593.84" y="165.103" letter-spacing="-.175">t</tspan> <tspan x="598.622" y="165.103" letter-spacing="-.003">ion</tspan></text><path d="M240.965 121.942s-8.18 0-8.18 8.18v53.047s0 8.18 8.18 8.18H406.66s8.18 0 8.18-8.18v-53.047s0-8.18-8.18-8.18H240.965z" stroke="#231F20" stroke-width="1.93" stroke-linecap="round" stroke-linejoin="round"/><text font-family="MrEavesModOT-Reg, Mr Eaves Mod OT" font-size="17.7" letter-spacing=".14" fill="#231F20"><tspan x="282.554" y="159.412">P</tspan> <tspan x="291.155" y="159.412" letter-spacing=".119">i</tspan> <tspan x="294.796" y="159.412" letter-spacing=".101">c</tspan> <tspan x="301.694" y="159.412" letter-spacing=".2">k</tspan> <tspan x="309.01" y="159.412" letter-spacing="-.012"> </tspan> <tspan x="312.06" y="159.412" letter-spacing=".13">a</tspan> <tspan x="320.58" y="159.412" letter-spacing=".2">n</tspan> <tspan x="328.958" y="159.412" letter-spacing="-.012"> </tspan> <tspan x="332.008" y="159.412" letter-spacing=".123">o</tspan> <tspan x="340.485" y="159.412" letter-spacing="-.012">u</tspan> <tspan x="348.65" y="159.412" letter-spacing=".423">t</tspan> <tspan x="354.029" y="159.412" letter-spacing="-.021">i</tspan> <tspan x="357.531" y="159.412" letter-spacing="-.012">t</tspan></text><path d="M9.145 121.942s-8.18 0-8.18 8.18v53.047s0 8.18 8.18 8.18H174.84s8.18 0 8.18-8.18v-53.047s0-8.18-8.18-8.18H9.145z" stroke="#231F20" stroke-width="1.93" stroke-linecap="round" stroke-linejoin="round"/><text font-family="MrEavesModOT-Reg, Mr Eaves Mod OT" font-size="17.7" letter-spacing="-.155" fill="#231F20"><tspan x="39.233" y="159.412">R</tspan> <tspan x="48.317" y="159.412" letter-spacing="-.068">e</tspan> <tspan x="55.594" y="159.412" letter-spacing="-.003">a</tspan> <tspan x="63.981" y="159.412" letter-spacing=".05">d</tspan> <tspan x="72.42" y="159.412" letter-spacing="-.003"> </tspan> <tspan x="75.48" y="159.412" letter-spacing="-.175">t</tspan> <tspan x="80.261" y="159.412" letter-spacing="-.003">h</tspan> <tspan x="88.435" y="159.412" letter-spacing=".05">e</tspan> <tspan x="95.831" y="159.412" letter-spacing="-.003"> </tspan> <tspan x="98.89" y="159.412" letter-spacing="-.113">r</tspan> <tspan x="103.751" y="159.412" letter-spacing="-.148">e</tspan> <tspan x="110.771" y="159.412" letter-spacing=".048">v</tspan> <tspan x="117.599" y="159.412" letter-spacing=".011">i</tspan> <tspan x="121.132" y="159.412" letter-spacing="-.157">e</tspan> <tspan x="128.144" y="159.412" letter-spacing="-.003">ws</tspan></text><path d="M9.145 236.65s-8.18 0-8.18 8.18v53.047s0 8.18 8.18 8.18H174.84s8.18 0 8.18-8.18V244.83s0-8.18-8.18-8.18H9.145z" stroke="#231F20" stroke-width="1.93" stroke-linecap="round" stroke-linejoin="round"/><text font-family="MrEavesModOT-Reg, Mr Eaves Mod OT" font-size="17.7" letter-spacing="-.004" fill="#231F20"><tspan x="31.426" y="261.915">C</tspan> <tspan x="42.219" y="261.915" letter-spacing=".017">o</tspan> <tspan x="50.591" y="261.915">m</tspan> <tspan x="62.835" y="261.915" letter-spacing=".021">p</tspan> <tspan x="71.246" y="261.915">a</tspan> <tspan x="79.632" y="261.915" letter-spacing="-.096">r</tspan> <tspan x="84.509" y="261.915" letter-spacing=".067">e</tspan> <tspan x="91.922" y="261.915"> </tspan> <tspan x="94.98" y="261.915" letter-spacing="-.266">t</tspan> <tspan x="99.67" y="261.915" letter-spacing=".067">o</tspan> <tspan x="108.091" y="261.915"> s</tspan> <tspan x="117.075" y="261.915" letter-spacing="-.029">i</tspan> <tspan x="120.568" y="261.915">m</tspan> <tspan x="132.813" y="261.915" letter-spacing="-.032">i</tspan> <tspan x="136.303" y="261.915" letter-spacing=".008">l</tspan> <tspan x="139.833" y="261.915">a</tspan> <tspan x="148.219" y="261.915" letter-spacing=".067">r</tspan> </text><text font-family="MrEavesModOT-Reg, Mr Eaves Mod OT" font-size="17.7" letter-spacing="-.028" fill="#231F20"><tspan x="33.99" y="283.155">o</tspan> <tspan x="42.317" y="283.155" letter-spacing="-.166">u</tspan> <tspan x="50.328" y="283.155" letter-spacing=".275">t</tspan> <tspan x="55.559" y="283.155" letter-spacing="-.171">i</tspan> <tspan x="58.91" y="283.155" letter-spacing="-.077">t</tspan> <tspan x="63.789" y="283.155" letter-spacing=".05">s</tspan> <tspan x="69.769" y="283.155" letter-spacing="-.003"> o</tspan> <tspan x="81.179" y="283.155" letter-spacing=".05">n</tspan> <tspan x="89.407" y="283.155" letter-spacing="-.003"> </tspan> <tspan x="92.466" y="283.155" letter-spacing=".07">A</tspan> <tspan x="102.943" y="283.155" letter-spacing="-.003">m</tspan> <tspan x="115.188" y="283.155" letter-spacing="-.122">a</tspan> <tspan x="123.456" y="283.155" letter-spacing="-.247">z</tspan> <tspan x="129.28" y="283.155" letter-spacing="-.003">on</tspan></text><path d="M240.965 236.65s-8.18 0-8.18 8.18v53.047s0 8.18 8.18 8.18H406.66s8.18 0 8.18-8.18V244.83s0-8.18-8.18-8.18H240.965z" stroke="#231F20" stroke-width="1.93" stroke-linecap="round" stroke-linejoin="round"/><text font-family="MrEavesModOT-Reg, Mr Eaves Mod OT" font-size="17.7" letter-spacing="-.117" fill="#231F20"><tspan x="277.844" y="263.472">A</tspan> <tspan x="288.134" y="263.472" letter-spacing="-.053">d</tspan> <tspan x="296.471" y="263.472">d </tspan> <tspan x="307.923" y="263.472" letter-spacing="-.333">t</tspan> <tspan x="312.546" y="263.472">o w</tspan> <tspan x="334.76" y="263.472" letter-spacing="-.06">i</tspan> <tspan x="338.222" y="263.472" letter-spacing="-.085">s</tspan> <tspan x="344.066" y="263.472" letter-spacing="-.083">h</tspan> <tspan x="352.16" y="263.472" letter-spacing="-.099">l</tspan> <tspan x="355.584" y="263.472" letter-spacing="-.06">i</tspan> <tspan x="359.046" y="263.472" letter-spacing="-.154">s</tspan> <tspan x="364.821" y="263.472">t</tspan></text><text font-family="MrEavesModOT-Reg, Mr Eaves Mod OT" font-size="17.7" letter-spacing="-.249" fill="#231F20"><tspan x="271.096" y="284.712">t</tspan> <tspan x="275.803" y="284.712" letter-spacing=".084">o</tspan> <tspan x="284.241" y="284.712" letter-spacing="-.005"> p</tspan> <tspan x="295.683" y="284.712" letter-spacing=".013">u</tspan> <tspan x="303.873" y="284.712" letter-spacing="-.115">r</tspan> <tspan x="308.732" y="284.712" letter-spacing="-.014">c</tspan> <tspan x="315.515" y="284.712" letter-spacing=".006">h</tspan> <tspan x="323.698" y="284.712" letter-spacing=".023">a</tspan> <tspan x="332.111" y="284.712" letter-spacing="-.042">s</tspan> <tspan x="337.999" y="284.712" letter-spacing=".084">e</tspan> <tspan x="345.428" y="284.712" letter-spacing="-.005"> </tspan> <tspan x="348.485" y="284.712" letter-spacing=".025">l</tspan> <tspan x="352.032" y="284.712" letter-spacing="-.132">a</tspan> <tspan x="360.289" y="284.712" letter-spacing="-.212">t</tspan> <tspan x="365.033" y="284.712" letter-spacing="-.005">er</tspan></text><path d="M472.786 236.65s-8.18 0-8.18 8.18v53.047s0 8.18 8.18 8.18H638.48s8.18 0 8.18-8.18V244.83s0-8.18-8.18-8.18H472.786z" stroke="#231F20" stroke-width="1.93" stroke-linecap="round" stroke-linejoin="round"/><text font-family="MrEavesModOT-Reg, Mr Eaves Mod OT" font-size="17.7" letter-spacing=".112" fill="#231F20"><tspan x="508.292" y="263.472">W</tspan> <tspan x="523.237" y="263.472" letter-spacing=".025">h</tspan> <tspan x="531.439" y="263.472" letter-spacing="-.005">e</tspan> <tspan x="538.78" y="263.472" letter-spacing=".084">n</tspan> <tspan x="547.04" y="263.472" letter-spacing="-.005"> </tspan> <tspan x="550.098" y="263.472" letter-spacing=".007">i</tspan> <tspan x="553.627" y="263.472" letter-spacing="-.005">n</tspan> <tspan x="561.8" y="263.472" letter-spacing=".022">i</tspan> <tspan x="565.343" y="263.472" letter-spacing="-.005">s</tspan> <tspan x="571.268" y="263.472" letter-spacing=".025">h</tspan> <tspan x="579.47" y="263.472" letter-spacing="-.035">e</tspan> <tspan x="586.781" y="263.472" letter-spacing="-.101">d</tspan> <tspan x="595.07" y="263.472" letter-spacing="-.005">,</tspan></text><text font-family="MrEavesModOT-Reg, Mr Eaves Mod OT" font-size="17.7" letter-spacing="-.079" fill="#231F20"><tspan x="510.593" y="284.712">r</tspan> <tspan x="515.487" y="284.712" letter-spacing="-.168">e</tspan> <tspan x="522.665" y="284.712" letter-spacing="-.141">t</tspan> <tspan x="527.48" y="284.712" letter-spacing=".013">u</tspan> <tspan x="535.67" y="284.712" letter-spacing="-.053">r</tspan> <tspan x="540.768" y="284.712" letter-spacing=".084">n</tspan> <tspan x="549.029" y="284.712" letter-spacing="-.005"> </tspan> <tspan x="552.086" y="284.712" letter-spacing="-.251">t</tspan> <tspan x="556.791" y="284.712" letter-spacing=".084">o</tspan> <tspan x="565.229" y="284.712" letter-spacing="-.005"> sh</tspan> <tspan x="582.383" y="284.712" letter-spacing="-.124">o</tspan> <tspan x="590.437" y="284.712" letter-spacing="-.005">w</tspan></text><path d="M785.773 80.312v32.57m4.654-5.006l-4.654 5.005-4.654-5.005M90.311 197.489v32.57m4.655-5.006l-4.654 5.006-4.654-5.006M421.48 35.32h32.57m-5.005-4.654l5.006 4.654-5.006 4.654M421.48 269.673h32.57m-5.005-4.653l5.006 4.653-5.006 4.654M655.033 35.32h32.57m-5.006-4.654l5.005 4.654-5.005 4.654m5.457 113.848h-32.57m5.006-4.654l-5.005 4.654 5.005 4.654m-205.988-4.654h-32.57m5.006-4.654l-5.005 4.654 5.005 4.654m-202.525-4.654h-32.57m5.007-4.654l-5.005 4.654 5.005 4.654m-3.829 111.197h32.57m-5.006-4.653l5.006 4.653-5.006 4.654" stroke="#231F20" stroke-width="1.93" stroke-linecap="round" stroke-linejoin="round"/></g></svg>